STARTFONT 2.1
COMMENT
COMMENT Converted from OpenType font "Q:\font stuff\winfont\TeutonWeiss-Bold.otf" by "otf2bdf 3.0".
COMMENT
FONT -FreeType-Teuton Weiss-Bold-R-Normal--109-1090-72-72-P-378-ISO10646-1
SIZE 109 72 72
FONTBOUNDINGBOX 95 116 -5 -24
STARTPROPERTIES 19
FOUNDRY "FreeType"
FAMILY_NAME "Teuton Weiss"
WEIGHT_NAME "Bold"
SLANT "R"
SETWIDTH_NAME "Normal"
ADD_STYLE_NAME ""
PIXEL_SIZE 109
POINT_SIZE 1090
RESOLUTION_X 72
RESOLUTION_Y 72
SPACING "P"
AVERAGE_WIDTH 378
CHARSET_REGISTRY "ISO10646"
CHARSET_ENCODING "1"
FONT_ASCENT 91
FONT_DESCENT 23
COPYRIGHT "Copyright Copr. 2001, Frantisek Storm, www.stormtype.com. All rights reserved."
_OTF_FONTFILE "Q:\font stuff\winfont\TeutonWeiss-Bold.otf"
_OTF_PSNAME "TeutonWeiss-Bold"
ENDPROPERTIES
CHARS 356
STARTCHAR 0020
ENCODING 32
SWIDTH 266 0
DWIDTH 29 0
BBX 0 0 0 0
BITMAP
ENDCHAR
STARTCHAR 0021
ENCODING 33
SWIDTH 201 0
DWIDTH 22 0
BBX 8 77 7 0
BITMAP
FF
FF
FF
FF
FF
FF
FF
FF
FF
FF
FF
FF
FF
FF
FF
FF
FF
FF
FF
FF
FF
FF
FF
FF
FF
FF
FF
FF
FF
FF
FF
FF
FF
FF
FF
FF
FF
FF
FF
FF
FF
FF
FF
FF
FF
FF
FF
FF
FF
FF
FF
FF
FF
FF
FF
FF
FF
FF
FF
FF
00
00
00
00
00
00
00
00
FF
FF
FF
FF
FF
FF
FF
FF
FF
ENDCHAR
STARTCHAR 0022
ENCODING 34
SWIDTH 302 0
DWIDTH 33 0
BBX 18 18 7 58
BITMAP
FC0FC0
FC0FC0
FC0FC0
FC0FC0
FC0FC0
FC0FC0
FC0FC0
FC0FC0
FC0FC0
FC0FC0
FC0FC0
FC0FC0
FC0FC0
FC0FC0
FC0FC0
FC0FC0
FC0FC0
FC0FC0
ENDCHAR
STARTCHAR 0023
ENCODING 35
SWIDTH 504 0
DWIDTH 55 0
BBX 49 77 3 0
BITMAP
0000FF0001FE00
0000FE0001FC00
0000FE0001FC00
0000FE0001FC00
0000FE0001FC00
0001FE0003FC00
0001FE0003FC00
0001FC0003F800
0001FC0003F800
0001FC0003F800
0001FC0003F800
0003FC0007F800
0003F80007F000
0003F80007F000
0003F80007F000
0003F80007F000
0007F8000FF000
0007F8000FF000
0007F0000FE000
0007F0000FE000
0007F0000FE000
0007F0000FE000
07FFFFFFFFFF80
07FFFFFFFFFF80
07FFFFFFFFFF80
07FFFFFFFFFF80
07FFFFFFFFFF80
07FFFFFFFFFF80
001FE0003FC000
001FE0003F8000
001FC0003F8000
001FC0003F8000
001FC0003F8000
001FC0003F8000
003FC0007F8000
003FC0007F0000
003F80007F0000
003F80007F0000
003F80007F0000
003F80007F0000
007F8000FF0000
007F8000FE0000
007F0000FE0000
007F0000FE0000
007F0000FE0000
007F0000FE0000
00FF0001FE0000
00FE0001FC0000
00FE0001FC0000
00FE0001FC0000
00FE0001FC0000
FFFFFFFFFFF000
FFFFFFFFFFF000
FFFFFFFFFFF000
FFFFFFFFFFF000
FFFFFFFFFFF000
FFFFFFFFFFF000
03FC0007F80000
03F80007F00000
03F80007F00000
03F80007F00000
03F80007F00000
03F80007F00000
07F8000FF00000
07F0000FE00000
07F0000FE00000
07F0000FE00000
07F0000FE00000
07F0000FE00000
0FF0001FE00000
0FE0001FC00000
0FE0001FC00000
0FE0001FC00000
0FE0001FC00000
0FE0001FC00000
1FE0003FC00000
1FC0003F800000
ENDCHAR
STARTCHAR 0024
ENCODING 36
SWIDTH 412 0
DWIDTH 45 0
BBX 33 78 6 0
BITMAP
0003F80000
0003F80000
0003F80000
0003F80000
0003F80000
0003F80000
0003F80000
0003F80000
0003F80000
0003F80000
0003F80000
03FFFFFF80
1FFFFFFF80
3FFFFFFF80
7FFFFFFF80
7FFFFFFF80
7FFFFFFF80
FFFFFFFF80
FFC0000080
FF80000000
FF00000000
FF00000000
FF00000000
FF00000000
FF00000000
FF00000000
FF80000000
FF80000000
7FE0000000
7FF0000000
3FFC000000
3FFE000000
1FFF800000
07FFC00000
01FFF00000
00FFF80000
007FFC0000
001FFF0000
000FFF8000
0003FFE000
0001FFF000
00007FFC00
00003FFE00
00001FFF00
000007FF00
000003FF80
000000FF80
000000FF80
0000007F80
0000007F80
0000007F80
0000007F80
0000007F80
0000007F80
0000007F80
0000007F80
0000007F80
0000007F80
000000FF80
000001FF80
FFFFFFFF80
FFFFFFFF80
FFFFFFFF00
FFFFFFFF00
FFFFFFFE00
FFFFFFFC00
FFFFFFF000
0003F80000
0003F80000
0003F80000
0003F80000
0003F80000
0003F80000
0003F80000
0003F80000
0003F80000
0003F80000
0003F80000
ENDCHAR
STARTCHAR 0025
ENCODING 37
SWIDTH 596 0
DWIDTH 65 0
BBX 55 77 5 0
BITMAP
01FFC000001FE0
0FFFF800001FC0
1FFFFC00003FC0
3FFFFE00003F80
7FFFFF00007F80
7FFFFF00007F00
7F007F8000FF00
FE003F8000FE00
FC001F8001FE00
FC001F8001FC00
FC001F8003FC00
FC001F8003F800
FC001F8007F800
FC001F8007F000
FC001F800FF000
FC001F800FE000
FC001F801FE000
FC001F801FC000
FC001F803FC000
FC001F803F8000
FC001F807F8000
FC001F80FF0000
FC001F80FF0000
FC001F81FE0000
FC001F81FC0000
FC001F83FC0000
FC001F83F80000
FC001F87F80000
FE001F87F00000
FE003F8FF00000
7F80FF0FE00000
7FFFFF1FE00000
7FFFFF1FC00000
3FFFFE3FC00000
1FFFFC3F800000
0FFFF87F800000
03FFC07F000000
000000FF000000
000000FE000000
000001FE03FF80
000001FC1FFFE0
000003FC3FFFF0
000003F87FFFF8
000007F8FFFFFC
000007F0FFFFFC
00000FF0FE01FE
00000FE1FC00FE
00001FE1FC00FE
00001FC1F8007E
00003FC1F8007E
00003F81F8007E
00007F81F8007E
00007F01F8007E
0000FF01F8007E
0000FE01F8007E
0001FE01F8007E
0001FC01F8007E
0003FC01F8007E
0003F801F8007E
0007F801F8007E
0007F001F8007E
000FF001F8007E
000FE001F8007E
001FE001F8007E
003FC001F8007E
003FC001F8007E
007F8001F8007E
007F8001F8007E
00FF0001F8007E
00FF0001FC00FE
01FE0000FE01FC
01FE0000FFFFFC
03FC0000FFFFFC
03FC00007FFFF8
07F800003FFFF0
07F800001FFFE0
0FF0000007FF00
ENDCHAR
STARTCHAR 0026
ENCODING 38
SWIDTH 642 0
DWIDTH 70 0
BBX 57 77 8 0
BITMAP
01FFFFFFFF000000
0FFFFFFFFF000000
1FFFFFFFFF000000
3FFFFFFFFF000000
7FFFFFFFFF000000
7FFFFFFFFF000000
FFFFFFFFFF000000
FFE0000001000000
FF80000000000000
FF00000000000000
FF00000000000000
FF00000000000000
FF00000000000000
FF00000000000000
FF00000000000000
FF00000000000000
FF00000000000000
FF00000000000000
FF00000000000000
FF00000000000000
FF00000000000000
FF00000000000000
7F00000000040000
7F000000000C0000
3F000000001C0000
3F800000007C0000
0F80000000FC0000
03C0000001FC0000
01FFFFFFFFFFFF80
0FFFFFFFFFFFFF80
1FFFFFFFFFFFFF80
3FFFFFFFFFFFFF80
3FFFFFFFFFFFFF80
7FFFFFFFFFFFFF80
7FFFFFFFFFFFFF80
FFC0000003FC0000
FF80000003FC0000
FF00000003FC0000
FF00000003FC0000
FF00000003FC0000
FF00000003FC0000
FF00000003FC0000
FF00000003FC0000
FF00000003FC0000
FF00000003FC0000
FF00000003FC0000
FF00000003FC0000
FF00000003FC0000
FF00000003FC0000
FF00000003FC0000
FF00000003FC0000
FF00000003FC0000
FF00000003FC0000
FF00000003FC0000
FF00000003FC0000
FF00000003FC0000
FF00000003FC0000
FF00000003FC0000
FF00000003FC0000
FF00000003FC0000
FF00000003FC0000
FF00000003FC0000
FF00000003FC0000
FF00000003FC0000
FF00000003FC0000
FF00000003FC0000
FF00000003FC0000
FF00000003FC0000
FF80000003FC0000
7FC0000003FE0000
7FFFFFFE03FFFF80
7FFFFFFE01FFFF80
3FFFFFFE01FFFF80
3FFFFFFE00FFFF80
1FFFFFFE00FFFF80
07FFFFFE003FFF80
01FFFFFE000FFF80
ENDCHAR
STARTCHAR 0027
ENCODING 39
SWIDTH 201 0
DWIDTH 22 0
BBX 7 18 7 59
BITMAP
FE
FE
FE
FE
FE
FE
FE
FE
FE
FE
FE
FE
FE
FE
FE
FE
FE
FE
ENDCHAR
STARTCHAR 0028
ENCODING 40
SWIDTH 321 0
DWIDTH 35 0
BBX 22 99 8 -22
BITMAP
0003FC
003FFC
00FFFC
03FFFC
07FFFC
0FFFFC
1FFFFC
3FFE00
3FF000
7FE000
7FC000
7F8000
7F8000
FF0000
FF0000
FF0000
FF0000
FF0000
FF0000
FF0000
FF0000
FF0000
FF0000
FF0000
FF0000
FF0000
FF0000
FF0000
FF0000
FF0000
FF0000
FF0000
FF0000
FF0000
FF0000
FF0000
FF0000
FF0000
FF0000
FF0000
FF0000
FF0000
FF0000
FF0000
FF0000
FF0000
FF0000
FF0000
FF0000
FF0000
FF0000
FF0000
FF0000
FF0000
FF0000
FF0000
FF0000
FF0000
FF0000
FF0000
FF0000
FF0000
FF0000
FF0000
FF0000
FF0000
FF0000
FF0000
FF0000
FF0000
FF0000
FF0000
FF0000
FF0000
FF0000
FF0000
FF0000
FF0000
FF0000
FF0000
FF0000
FF0000
FF0000
FF0000
FF0000
FF8000
7F8000
7F8000
7FC000
7FE000
3FF000
3FFE00
1FFFFC
0FFFFC
07FFFC
03FFFC
01FFFC
003FFC
0003FC
ENDCHAR
STARTCHAR 0029
ENCODING 41
SWIDTH 321 0
DWIDTH 35 0
BBX 22 99 5 -22
BITMAP
FF0000
FFF000
FFFE00
FFFF00
FFFF80
FFFFC0
FFFFE0
01FFF0
003FF0
001FF8
000FF8
0007F8
0007F8
0003FC
0003FC
0003FC
0003FC
0003FC
0003FC
0003FC
0003FC
0003FC
0003FC
0003FC
0003FC
0003FC
0003FC
0003FC
0003FC
0003FC
0003FC
0003FC
0003FC
0003FC
0003FC
0003FC
0003FC
0003FC
0003FC
0003FC
0003FC
0003FC
0003FC
0003FC
0003FC
0003FC
0003FC
0003FC
0003FC
0003FC
0003FC
0003FC
0003FC
0003FC
0003FC
0003FC
0003FC
0003FC
0003FC
0003FC
0003FC
0003FC
0003FC
0003FC
0003FC
0003FC
0003FC
0003FC
0003FC
0003FC
0003FC
0003FC
0003FC
0003FC
0003FC
0003FC
0003FC
0003FC
0003FC
0003FC
0003FC
0003FC
0003FC
0003FC
0003FC
0003FC
0007F8
0007F8
000FF8
001FF8
003FF0
01FFF0
FFFFE0
FFFFC0
FFFF80
FFFF00
FFFC00
FFF000
FE0000
ENDCHAR
STARTCHAR 002A
ENCODING 42
SWIDTH 431 0
DWIDTH 47 0
BBX 35 33 6 43
BITMAP
0003F80000
0003F00000
0003F00000
0001F00000
0001F00000
0001F00000
0001F00000
0001F00000
0001F00000
2001F00180
3C01F007C0
7F01F01FC0
7FE1F0FFC0
7FF9F3FFE0
FFFFFFFFE0
3FFFFFFF80
03FFFFF800
003FFF8000
0003F80000
0007FC0000
000FFE0000
001FBE0000
001FBF0000
003F1F8000
007E0FC000
00FE0FE000
01FC07F000
03FC07F800
03F803F800
07F001FC00
03F001F800
00E000E000
0060004000
ENDCHAR
STARTCHAR 002B
ENCODING 43
SWIDTH 458 0
DWIDTH 50 0
BBX 38 38 6 13
BITMAP
0000FC0000
0000FC0000
0000FC0000
0000FC0000
0000FC0000
0000FC0000
0000FC0000
0000FC0000
0000FC0000
0000FC0000
0000FC0000
0000FC0000
0000FC0000
0000FC0000
0000FC0000
0000FC0000
FFFFFFFFFC
FFFFFFFFFC
FFFFFFFFFC
FFFFFFFFFC
FFFFFFFFFC
FFFFFFFFFC
0000FC0000
0000FC0000
0000FC0000
0000FC0000
0000FC0000
0000FC0000
0000FC0000
0000FC0000
0000FC0000
0000FC0000
0000FC0000
0000FC0000
0000FC0000
0000FC0000
0000FC0000
0000FC0000
ENDCHAR
STARTCHAR 002C
ENCODING 44
SWIDTH 201 0
DWIDTH 22 0
BBX 12 25 4 -16
BITMAP
0FF0
0FF0
0FF0
0FF0
0FF0
0FF0
0FF0
0FF0
0FF0
0FF0
0FF0
1FE0
1FE0
1FC0
3FC0
3FC0
3F80
3F80
7F80
7F00
7F00
7F00
FE00
FE00
FE00
ENDCHAR
STARTCHAR 002D
ENCODING 45
SWIDTH 302 0
DWIDTH 33 0
BBX 21 7 6 29
BITMAP
FFFFF8
FFFFF8
FFFFF8
FFFFF8
FFFFF8
FFFFF8
FFFFF8
ENDCHAR
STARTCHAR 002E
ENCODING 46
SWIDTH 192 0
DWIDTH 21 0
BBX 8 9 6 0
BITMAP
FF
FF
FF
FF
FF
FF
FF
FF
FF
ENDCHAR
STARTCHAR 002F
ENCODING 47
SWIDTH 431 0
DWIDTH 47 0
BBX 47 99 0 -22
BITMAP
0000000003FE
0000000003FE
0000000003FC
0000000007FC
0000000007F8
000000000FF8
000000000FF8
000000000FF0
000000001FF0
000000001FE0
000000003FE0
000000003FE0
000000003FC0
000000007FC0
000000007F80
00000000FF80
00000000FF80
00000000FF00
00000001FF00
00000001FF00
00000001FE00
00000003FE00
00000003FC00
00000007FC00
00000007FC00
00000007F800
0000000FF800
0000000FF000
0000001FF000
0000001FF000
0000001FE000
0000003FE000
0000003FC000
0000007FC000
0000007FC000
0000007F8000
000000FF8000
000000FF8000
000000FF0000
000001FF0000
000001FE0000
000003FE0000
000003FE0000
000003FC0000
000007FC0000
000007F80000
00000FF80000
00000FF80000
00000FF00000
00001FF00000
00001FF00000
00003FE00000
00003FE00000
00003FC00000
00007FC00000
00007FC00000
00007F800000
0000FF800000
0000FF000000
0001FF000000
0001FF000000
0001FE000000
0003FE000000
0003FC000000
0007FC000000
0007FC000000
0007F8000000
000FF8000000
000FF8000000
001FF0000000
001FF0000000
001FE0000000
003FE0000000
003FE0000000
003FC0000000
007FC0000000
007F80000000
00FF80000000
00FF80000000
00FF00000000
01FF00000000
01FE00000000
03FE00000000
03FE00000000
03FC00000000
07FC00000000
07FC00000000
0FF800000000
0FF800000000
0FF000000000
1FF000000000
1FF000000000
1FE000000000
3FE000000000
3FC000000000
7FC000000000
7FC000000000
7F8000000000
FF8000000000
ENDCHAR
STARTCHAR 0030
ENCODING 48
SWIDTH 513 0
DWIDTH 56 0
BBX 39 77 9 0
BITMAP
01FFFFFF00
07FFFFFFE0
1FFFFFFFF0
3FFFFFFFF8
3FFFFFFFF8
7FFFFFFFFC
7FFFFFFFFC
FFE0000FFE
FF800003FE
FF800003FE
FF000001FE
FF000001FE
FF000001FE
FF000001FE
FF000001FE
FF000001FE
FF000001FE
FF000001FE
FF000001FE
FF000001FE
FF000001FE
FF000001FE
FF000001FE
FF000001FE
FF000001FE
FF000001FE
FF000001FE
FF000001FE
FF000001FE
FF000001FE
FF000001FE
FF000001FE
FF000001FE
FF000001FE
FF000001FE
FF000001FE
FF000001FE
FF000001FE
FF000001FE
FF000001FE
FF000001FE
FF000001FE
FF000001FE
FF000001FE
FF000001FE
FF000001FE
FF000001FE
FF000001FE
FF000001FE
FF000001FE
FF000001FE
FF000001FE
FF000001FE
FF000001FE
FF000001FE
FF000001FE
FF000001FE
FF000001FE
FF000001FE
FF000001FE
FF000001FE
FF000001FE
FF000001FE
FF000001FE
FF000001FE
FF000001FE
FF000001FE
FF800003FE
FF800003FE
FFE0000FFE
7FFFFFFFFC
7FFFFFFFFC
3FFFFFFFF8
3FFFFFFFF8
1FFFFFFFF0
07FFFFFFC0
01FFFFFF00
ENDCHAR
STARTCHAR 0031
ENCODING 49
SWIDTH 513 0
DWIDTH 56 0
BBX 38 79 10 1
BITMAP
0000010000
0000070000
00000F0000
00003F0000
00007F0000
0001FF0000
0003FF0000
000FFF0000
003FFF0000
007FFF0000
01FFFF0000
03FFFF0000
0FFFFF0000
1FFEFF0000
7FF8FF0000
FFF0FF0000
FFC0FF0000
FF80FF0000
FE00FF0000
FC00FF0000
F800FF0000
E000FF0000
C000FF0000
0000FF0000
0000FF0000
0000FF0000
0000FF0000
0000FF0000
0000FF0000
0000FF0000
0000FF0000
0000FF0000
0000FF0000
0000FF0000
0000FF0000
0000FF0000
0000FF0000
0000FF0000
0000FF0000
0000FF0000
0000FF0000
0000FF0000
0000FF0000
0000FF0000
0000FF0000
0000FF0000
0000FF0000
0000FF0000
0000FF0000
0000FF0000
0000FF0000
0000FF0000
0000FF0000
0000FF0000
0000FF0000
0000FF0000
0000FF0000
0000FF0000
0000FF0000
0000FF0000
0000FF0000
0000FF0000
0000FF0000
0000FF0000
0000FF0000
0000FF0000
0000FF0000
0000FF0000
0000FF0000
0000FF0000
0000FF0000
0000FF0000
1FFFFFFFFC
1FFFFFFFFC
1FFFFFFFFC
1FFFFFFFFC
1FFFFFFFFC
1FFFFFFFFC
1FFFFFFFFC
ENDCHAR
STARTCHAR 0032
ENCODING 50
SWIDTH 513 0
DWIDTH 56 0
BBX 39 77 9 0
BITMAP
FFFFFFFF00
FFFFFFFFC0
FFFFFFFFF0
FFFFFFFFF8
FFFFFFFFF8
FFFFFFFFFC
FFFFFFFFFC
8000000FFE
00000003FE
00000003FE
00000001FE
00000001FE
00000001FE
00000001FE
00000001FE
00000001FE
00000001FE
00000001FE
00000001FE
00000001FE
00000001FE
00000003FE
00000003FC
00000007FC
0000000FFC
0000001FF8
0000007FF0
000000FFF0
000001FFE0
000003FFC0
000007FF00
00000FFE00
00001FFC00
00003FF800
00007FF000
0001FFE000
0003FFC000
0007FF8000
000FFE0000
001FFC0000
003FF80000
007FF00000
00FFE00000
03FFC00000
07FF800000
0FFF000000
1FFC000000
1FF8000000
3FF0000000
7FE0000000
7FC0000000
7F80000000
FF80000000
FF00000000
FF00000000
FF00000000
FF00000000
FF00000000
FF00000000
FF00000000
FF00000000
FF00000000
FF00000000
FF00000000
FF00000000
FF00000000
FF00000000
FF00000000
FF00000000
FF00000002
FFFFFFFFFE
FFFFFFFFFE
FFFFFFFFFE
FFFFFFFFFE
FFFFFFFFFE
FFFFFFFFFE
FFFFFFFFFE
ENDCHAR
STARTCHAR 0033
ENCODING 51
SWIDTH 513 0
DWIDTH 56 0
BBX 40 77 8 0
BITMAP
FFFFFFFF80
FFFFFFFFF0
FFFFFFFFF8
FFFFFFFFFC
FFFFFFFFFC
FFFFFFFFFE
FFFFFFFFFE
80000007FF
00000001FF
00000001FF
00000000FF
00000000FF
00000000FF
00000000FF
00000000FF
00000000FF
00000000FF
00000000FF
00000000FF
00000000FF
00000000FF
00000000FF
00000000FF
00000000FF
00000000FF
00000000FF
00000000FF
00000000FF
00000000FF
00000000FF
00000001FE
00000001FE
00000007FC
07FFFFFFFC
07FFFFFFF0
07FFFFFFE0
07FFFFFC00
07FFFFFFC0
07FFFFFFF0
07FFFFFFF8
00000007FC
00000001FE
00000001FE
00000000FE
00000000FF
00000000FF
00000000FF
00000000FF
00000000FF
00000000FF
00000000FF
00000000FF
00000000FF
00000000FF
00000000FF
00000000FF
00000000FF
00000000FF
00000000FF
00000000FF
00000000FF
00000000FF
00000000FF
00000000FF
00000000FF
00000000FF
00000000FF
00000001FF
00000001FF
80000007FF
FFFFFFFFFE
FFFFFFFFFE
FFFFFFFFFC
FFFFFFFFFC
FFFFFFFFF8
FFFFFFFFE0
FFFFFFFF80
ENDCHAR
STARTCHAR 0034
ENCODING 52
SWIDTH 513 0
DWIDTH 56 0
BBX 48 78 5 0
BITMAP
0000000FF800
0000000FF800
0000001FF800
0000003FF800
0000003FF800
0000007FF800
0000007FF800
000000FFF800
000000FFF800
000001FFF800
000001FFF800
000003FFF800
000007F7F800
000007F7F800
00000FE7F800
00000FE7F800
00001FC7F800
00001F87F800
00003F87F800
00003F07F800
00007F07F800
00007E07F800
0000FE07F800
0001FC07F800
0001FC07F800
0003F807F800
0003F007F800
0007F007F800
0007E007F800
000FE007F800
000FC007F800
001FC007F800
003F8007F800
003F8007F800
007F0007F800
007E0007F800
00FE0007F800
00FC0007F800
01FC0007F800
01F80007F800
03F80007F800
07F00007F800
07F00007F800
0FE00007F800
0FC00007F800
1FC00007F800
1F800007F800
3F800007F800
3F000007F800
7F000007F800
FFFFFFFFFFFF
FFFFFFFFFFFF
FFFFFFFFFFFF
FFFFFFFFFFFF
FFFFFFFFFFFF
FFFFFFFFFFFF
FFFFFFFFFFFF
00000007F800
00000007F800
00000007F800
00000007F800
00000007F800
00000007F800
00000007F800
00000007F800
00000007F800
00000007F800
00000007F800
00000007F800
00000007F800
00000007F800
00000007F800
00000007F800
00000007F800
00000007F800
00000007F800
00000007F800
00000007F800
ENDCHAR
STARTCHAR 0035
ENCODING 53
SWIDTH 513 0
DWIDTH 56 0
BBX 39 77 9 0
BITMAP
FFFFFFFFFE
FFFFFFFFFE
FFFFFFFFFE
FFFFFFFFFE
FFFFFFFFFE
FFFFFFFFFE
FFFFFFFFFE
FF00000002
FF00000000
FF00000000
FF00000000
FF00000000
FF00000000
FF00000000
FF00000000
FF00000000
FF00000000
FF00000000
FF00000000
FF00000000
FF00000000
FF00000000
FF00000000
FF00000000
FF00000000
FF00000000
FF00000000
FF00000000
FF00000000
FF00000000
FF00000000
FF00000000
FF00000000
FFFFFFFF00
FFFFFFFFE0
FFFFFFFFF0
FFFFFFFFF8
FFFFFFFFF8
FFFFFFFFFC
FFFFFFFFFC
0000000FFE
00000003FE
00000003FE
00000001FE
00000001FE
00000001FE
00000001FE
00000001FE
00000001FE
00000001FE
00000001FE
00000001FE
00000001FE
00000001FE
00000001FE
00000001FE
00000001FE
00000001FE
00000001FE
00000001FE
00000001FE
00000001FE
00000001FE
00000001FE
00000001FE
00000001FE
00000001FE
00000003FE
00000003FE
8000000FFE
FFFFFFFFFC
FFFFFFFFFC
FFFFFFFFF8
FFFFFFFFF8
FFFFFFFFF0
FFFFFFFFC0
FFFFFFFF00
ENDCHAR
STARTCHAR 0036
ENCODING 54
SWIDTH 513 0
DWIDTH 56 0
BBX 39 77 9 0
BITMAP
01FFFFFFFE
07FFFFFFFE
1FFFFFFFFE
3FFFFFFFFE
3FFFFFFFFE
7FFFFFFFFE
7FFFFFFFFE
FFE0000002
FF80000000
FF80000000
FF00000000
FF00000000
FF00000000
FF00000000
FF00000000
FF00000000
FF00000000
FF00000000
FF00000000
FF00000000
FF00000000
FF00000000
FF00000000
FF00000000
FF00000000
FF00000000
FF00000000
FF00000000
FF00000000
FF00000000
FF00000000
FF00000000
FF00000000
FFFFFFFF00
FFFFFFFFE0
FFFFFFFFF0
FFFFFFFFF8
FFFFFFFFF8
FFFFFFFFFC
FFFFFFFFFC
FF00000FFE
FF000003FE
FF000003FE
FF000001FE
FF000001FE
FF000001FE
FF000001FE
FF000001FE
FF000001FE
FF000001FE
FF000001FE
FF000001FE
FF000001FE
FF000001FE
FF000001FE
FF000001FE
FF000001FE
FF000001FE
FF000001FE
FF000001FE
FF000001FE
FF000001FE
FF000001FE
FF000001FE
FF000001FE
FF000001FE
FF000001FE
FF800003FE
FF800003FE
FFE0000FFE
7FFFFFFFFC
7FFFFFFFFC
3FFFFFFFF8
3FFFFFFFF8
1FFFFFFFF0
07FFFFFFC0
01FFFFFF00
ENDCHAR
STARTCHAR 0037
ENCODING 55
SWIDTH 513 0
DWIDTH 56 0
BBX 43 77 7 0
BITMAP
FFFFFFFFFFE0
FFFFFFFFFFE0
FFFFFFFFFFE0
FFFFFFFFFFE0
FFFFFFFFFFE0
FFFFFFFFFFE0
FFFFFFFFFFE0
000000001FC0
000000003FC0
000000003FC0
000000003F80
000000007F80
000000007F80
000000007F00
00000000FF00
00000000FF00
00000001FE00
00000001FE00
00000001FC00
00000003FC00
00000003FC00
00000003F800
00000007F800
00000007F800
0000000FF000
0000000FF000
0000000FF000
0000001FE000
0000001FE000
0000001FC000
0000003FC000
0000003FC000
0000007F8000
0000007F8000
0000007F8000
000000FF0000
000000FF0000
000000FF0000
000001FE0000
000001FE0000
000003FC0000
000003FC0000
000003FC0000
000007F80000
000007F80000
00000FF80000
00000FF00000
00000FF00000
00001FF00000
00001FE00000
00001FE00000
00003FC00000
00003FC00000
00007FC00000
00007F800000
00007F800000
0000FF800000
0000FF000000
0000FF000000
0001FF000000
0001FE000000
0003FE000000
0003FC000000
0003FC000000
0007FC000000
0007F8000000
0007F8000000
000FF8000000
000FF0000000
001FF0000000
001FF0000000
001FE0000000
003FE0000000
003FC0000000
003FC0000000
007FC0000000
007F80000000
ENDCHAR
STARTCHAR 0038
ENCODING 56
SWIDTH 513 0
DWIDTH 56 0
BBX 39 77 9 0
BITMAP
01FFFFFF00
07FFFFFFE0
1FFFFFFFF0
3FFFFFFFF8
3FFFFFFFF8
7FFFFFFFFC
7FFFFFFFFC
FFC00007FE
FF800003FE
FF000001FE
FF000001FE
FF000001FE
FF000001FE
FF000001FE
FF000001FE
FF000001FE
FF000001FE
FF000001FE
FF000001FE
FF000001FE
FF000001FE
FF000001FE
FF000001FE
FF000001FE
FF000001FE
FF000001FE
FF000001FE
FF000001FE
FF000001FE
7F000001FE
7F800003FC
7F800003FC
3FE0000FF8
3FFFFFFFF8
0FFFFFFFE0
07FFFFFFC0
003FFFF800
03FFFFFF80
0FFFFFFFE0
1FFFFFFFF0
3FE0000FF8
7F800003FC
7F800003FC
7F000001FC
FF000001FE
FF000001FE
FF000001FE
FF000001FE
FF000001FE
FF000001FE
FF000001FE
FF000001FE
FF000001FE
FF000001FE
FF000001FE
FF000001FE
FF000001FE
FF000001FE
FF000001FE
FF000001FE
FF000001FE
FF000001FE
FF000001FE
FF000001FE
FF000001FE
FF000001FE
FF000001FE
FF800001FE
FF800003FE
FFC00007FE
7FFFFFFFFC
7FFFFFFFFC
3FFFFFFFF8
3FFFFFFFF8
1FFFFFFFF0
07FFFFFFC0
01FFFFFF00
ENDCHAR
STARTCHAR 0039
ENCODING 57
SWIDTH 513 0
DWIDTH 56 0
BBX 40 77 8 0
BITMAP
01FFFFFF80
07FFFFFFE0
1FFFFFFFF8
3FFFFFFFFC
3FFFFFFFFC
7FFFFFFFFE
7FFFFFFFFE
FFE00007FF
FF800001FF
FF800001FF
FF000000FF
FF000000FF
FF000000FF
FF000000FF
FF000000FF
FF000000FF
FF000000FF
FF000000FF
FF000000FF
FF000000FF
FF000000FF
FF000000FF
FF000000FF
FF000000FF
FF000000FF
FF000000FF
FF000000FF
FF000000FF
FF000000FF
FF000000FF
FF000000FF
FF800000FF
FF800000FF
FFE00000FF
7FFFFFFFFF
7FFFFFFFFF
3FFFFFFFFF
3FFFFFFFFF
1FFFFFFFFF
07FFFFFFFF
01FFFFFFFF
00000000FF
00000000FF
00000000FF
00000000FF
00000000FF
00000000FF
00000000FF
00000000FF
00000000FF
00000000FF
00000000FF
00000000FF
00000000FF
00000000FF
00000000FF
00000000FF
00000000FF
00000000FF
00000000FF
00000000FF
00000000FF
00000000FF
00000000FF
00000000FF
00000000FF
00000000FF
00000001FF
00000001FF
80000007FF
FFFFFFFFFE
FFFFFFFFFE
FFFFFFFFFC
FFFFFFFFFC
FFFFFFFFF8
FFFFFFFFE0
FFFFFFFF80
ENDCHAR
STARTCHAR 003A
ENCODING 58
SWIDTH 201 0
DWIDTH 22 0
BBX 8 55 7 0
BITMAP
FF
FF
FF
FF
FF
FF
FF
FF
FF
00
00
00
00
00
00
00
00
00
00
00
00
00
00
00
00
00
00
00
00
00
00
00
00
00
00
00
00
00
00
00
00
00
00
00
00
00
FF
FF
FF
FF
FF
FF
FF
FF
FF
ENDCHAR
STARTCHAR 003B
ENCODING 59
SWIDTH 201 0
DWIDTH 22 0
BBX 12 71 3 -16
BITMAP
0FF0
0FF0
0FF0
0FF0
0FF0
0FF0
0FF0
0FF0
0FF0
0000
0000
0000
0000
0000
0000
0000
0000
0000
0000
0000
0000
0000
0000
0000
0000
0000
0000
0000
0000
0000
0000
0000
0000
0000
0000
0000
0000
0000
0000
0000
0000
0000
0000
0000
0000
0000
0FF0
0FF0
0FF0
0FF0
0FF0
0FF0
0FF0
0FF0
0FF0
0FF0
0FF0
1FE0
1FE0
1FC0
1FC0
3FC0
3F80
3F80
3F80
7F00
7F00
7F00
7E00
FE00
FE00
ENDCHAR
STARTCHAR 003C
ENCODING 60
SWIDTH 458 0
DWIDTH 50 0
BBX 38 47 6 12
BITMAP
000000000C
000000001C
000000007C
00000001FC
00000007FC
0000001FFC
0000003FF8
000000FFE0
000003FFC0
00000FFF00
00003FFC00
00007FF800
0001FFE000
0007FF8000
001FFF0000
007FFC0000
00FFF00000
03FFC00000
0FFF800000
3FFE000000
FFF8000000
FFF0000000
FFC0000000
FF80000000
FFE0000000
FFF8000000
FFFC000000
3FFF000000
0FFFC00000
03FFE00000
00FFF80000
007FFE0000
001FFF0000
0007FFC000
0001FFF000
00007FF800
00003FFE00
00000FFF80
000003FFC0
000000FFF0
0000003FFC
0000001FFC
00000007FC
00000001FC
000000007C
000000001C
000000000C
ENDCHAR
STARTCHAR 003D
ENCODING 61
SWIDTH 458 0
DWIDTH 50 0
BBX 38 30 6 18
BITMAP
FFFFFFFFFC
FFFFFFFFFC
FFFFFFFFFC
FFFFFFFFFC
FFFFFFFFFC
FFFFFFFFFC
0000000000
0000000000
0000000000
0000000000
0000000000
0000000000
0000000000
0000000000
0000000000
0000000000
0000000000
0000000000
0000000000
0000000000
0000000000
0000000000
0000000000
0000000000
FFFFFFFFFC
FFFFFFFFFC
FFFFFFFFFC
FFFFFFFFFC
FFFFFFFFFC
FFFFFFFFFC
ENDCHAR
STARTCHAR 003E
ENCODING 62
SWIDTH 458 0
DWIDTH 50 0
BBX 38 47 6 12
BITMAP
C000000000
E000000000
F800000000
FE00000000
FF80000000
FFE0000000
FFF0000000
3FFC000000
0FFF000000
07FFC00000
01FFF00000
007FF80000
003FFE0000
000FFF8000
0003FFE000
0001FFF800
00007FFC00
00001FFF00
00000FFFC0
000003FFF0
000000FFFC
0000003FFC
0000001FFC
00000007FC
0000000FFC
0000003FFC
000000FFF8
000001FFF0
000007FFC0
00001FFF00
00003FFC00
0000FFF000
0003FFE000
0007FF8000
001FFE0000
007FF80000
00FFF00000
03FFC00000
0FFF000000
3FFC000000
7FF0000000
FFE0000000
FF80000000
FE00000000
F800000000
E000000000
C000000000
ENDCHAR
STARTCHAR 003F
ENCODING 63
SWIDTH 403 0
DWIDTH 44 0
BBX 36 77 5 0
BITMAP
FFFFFFFC00
FFFFFFFF00
FFFFFFFF80
FFFFFFFFC0
FFFFFFFFE0
FFFFFFFFE0
FFFFFFFFF0
0000003FF0
0000001FF0
0000000FF0
0000000FF0
0000000FF0
0000000FF0
0000000FF0
0000000FF0
0000000FF0
0000000FF0
0000000FF0
0000001FE0
0000003FE0
0000007FE0
000000FFC0
000001FF80
000003FF80
000007FF00
00000FFE00
00001FFC00
00003FF800
00007FF000
0000FFC000
0001FF8000
0003FF0000
0007FE0000
0007FC0000
000FF80000
000FF00000
000FF00000
001FE00000
001FE00000
001FE00000
001FE00000
001FE00000
001FE00000
001FE00000
001FE00000
001FE00000
001FE00000
001FE00000
001FE00000
001FE00000
001FE00000
001FE00000
001FE00000
001FE00000
001FE00000
001FE00000
001FE00000
001FE00000
001FE00000
001FE00000
0000000000
0000000000
0000000000
0000000000
0000000000
0000000000
0000000000
0000000000
001FE00000
001FE00000
001FE00000
001FE00000
001FE00000
001FE00000
001FE00000
001FE00000
001FE00000
ENDCHAR
STARTCHAR 0040
ENCODING 64
SWIDTH 733 0
DWIDTH 80 0
BBX 65 77 9 -12
BITMAP
01FFFFFFFF00000000
07FFFFFFFFC0000000
1FFFFFFFFFF0000000
3FFFFFFFFFF8000000
3FFFFFFFFFF8000000
7FFFFFFFFFFC000000
7FC0000007FC000000
FF00000001FE000000
FF00000001FE000000
FE00000000FE000000
FE00000000FE000000
FE00000000FE000000
FE00000000FE000000
FE00000000FE000000
FE00000000FE000000
FE00000000FE000000
FE00000000FE000000
FE00000000FE000000
FE00000000FE000000
FE00000000FE000000
FE00000000FE000000
FE0000FFFFFE003F80
FE0003FFFFFE003F80
FE0007FFFFFE003F80
FE000FFFFFFE003F80
FE001FFFFFFE003F80
FE001FE000FE003F80
FE003FC000FE003F80
FE003FC000FE003F80
FE003F8000FE003F80
FE003F8000FE003F80
FE003F8000FE003F80
FE003F8000FE003F80
FE003F8000FE003F80
FE003F8000FE003F80
FE003F8000FE003F80
FE003F8000FE003F80
FE003F8000FE003F80
FE003F8000FE003F80
FE003F8000FE003F80
FE003F8000FE003F80
FE003F8000FE003F80
FE003F8000FE003F80
FE003F8000FE003F80
FE003F8000FE003F80
FE003F8000FE003F80
FE003F8000FE003F80
FE003FC000FE003F80
FE003FC000FE003F80
FE003FF000FE003F80
FE001FFFFFFE003F80
FE001FFFFFFE003F80
FE000FFFFFFE003F80
FE000FFFFFFE003F80
FE0003FFFFFE003F80
FE0000FFFFFE003F80
FE0000000000003F80
FE0000000000003F80
FE0000000000003F80
FE0000000000003F80
FE0000000000003F80
FE0000000000003F80
FE0000000000003F80
FE0000000000003F80
FE0000000000003F80
FE0000000000003F80
FE0000000000003F80
FF0000000000003F80
FF0000000000007F80
FFC00000000000FF80
7FFFFFFFFFFFFFFF00
7FFFFFFFFFFFFFFF00
3FFFFFFFFFFFFFFE00
3FFFFFFFFFFFFFFE00
1FFFFFFFFFFFFFFC00
07FFFFFFFFFFFFF000
01FFFFFFFFFFFFC000
ENDCHAR
STARTCHAR 0041
ENCODING 65
SWIDTH 504 0
DWIDTH 55 0
BBX 53 77 1 1
BITMAP
000007FF000000
000007FF000000
000007FF800000
000007FF800000
00000FFF800000
00000FFF800000
00000FFFC00000
00001FFFC00000
00001FFFC00000
00001FDFE00000
00001FDFE00000
00003FDFE00000
00003F9FE00000
00003F8FF00000
00007F8FF00000
00007F8FF00000
00007F0FF00000
00007F07F80000
0000FF07F80000
0000FE07F80000
0000FE03FC0000
0001FE03FC0000
0001FE03FC0000
0001FC03FC0000
0001FC01FE0000
0003FC01FE0000
0003FC01FE0000
0003F801FE0000
0003F800FF0000
0007F800FF0000
0007F800FF0000
0007F000FF8000
000FF0007F8000
000FF0007F8000
000FE0007F8000
000FE0003FC000
001FE0003FC000
001FE0003FC000
001FC0003FC000
003FC0001FE000
003FC0001FE000
003FC0001FE000
003F80001FF000
007F80000FF000
007F80000FF000
007F00000FF000
007F00000FF800
00FF000007F800
00FF000007F800
00FE000007F800
01FE000003FC00
01FFFFFFFFFC00
01FFFFFFFFFC00
01FFFFFFFFFE00
03FFFFFFFFFE00
03FFFFFFFFFE00
03FFFFFFFFFE00
07FC000001FF00
07FC000001FF00
07F8000001FF00
07F8000000FF80
0FF8000000FF80
0FF0000000FF80
0FF0000000FF80
1FF00000007FC0
1FF00000007FC0
1FE00000007FC0
1FE00000003FC0
3FE00000003FE0
3FE00000003FE0
3FC00000003FE0
3FC00000001FF0
7FC00000001FF0
7FC00000001FF0
7F800000001FF0
FF800000000FF8
FF800000000FF8
ENDCHAR
STARTCHAR 0042
ENCODING 66
SWIDTH 559 0
DWIDTH 61 0
BBX 44 77 8 0
BITMAP
FFFFFFFFF800
FFFFFFFFFE00
FFFFFFFFFF80
FFFFFFFFFFC0
FFFFFFFFFFC0
FFFFFFFFFFE0
FFFFFFFFFFE0
FF0000003FE0
FF0000001FF0
FF0000000FF0
FF0000000FF0
FF0000000FF0
FF0000000FF0
FF0000000FF0
FF0000000FF0
FF0000000FF0
FF0000000FF0
FF0000000FF0
FF0000000FF0
FF0000000FF0
FF0000000FF0
FF0000000FF0
FF0000000FF0
FF0000000FF0
FF0000000FF0
FF0000000FF0
FF0000000FF0
FF0000000FF0
FF0000000FF0
FF0000000FF0
FF0000001FF0
FF0000001FF0
FF0000007FE0
FFFFFFFFFFE0
FFFFFFFFFFC0
FFFFFFFFFF80
FFFFFFFFFFC0
FFFFFFFFFFC0
FFFFFFFFFFE0
FF0000007FE0
FF0000001FE0
FF0000001FF0
FF0000000FF0
FF0000000FF0
FF0000000FF0
FF0000000FF0
FF0000000FF0
FF0000000FF0
FF0000000FF0
FF0000000FF0
FF0000000FF0
FF0000000FF0
FF0000000FF0
FF0000000FF0
FF0000000FF0
FF0000000FF0
FF0000000FF0
FF0000000FF0
FF0000000FF0
FF0000000FF0
FF0000000FF0
FF0000000FF0
FF0000000FF0
FF0000000FF0
FF0000000FF0
FF0000000FF0
FF0000000FF0
FF0000000FF0
FF0000001FF0
FF0000003FE0
FFFFFFFFFFE0
FFFFFFFFFFE0
FFFFFFFFFFC0
FFFFFFFFFF80
FFFFFFFFFF00
FFFFFFFFFE00
FFFFFFFFF800
ENDCHAR
STARTCHAR 0043
ENCODING 67
SWIDTH 477 0
DWIDTH 52 0
BBX 41 77 8 0
BITMAP
01FFFFFFFF80
07FFFFFFFF80
1FFFFFFFFF80
3FFFFFFFFF80
3FFFFFFFFF80
7FFFFFFFFF80
7FFFFFFFFF80
FFE000000180
FF8000000000
FF8000000000
FF0000000000
FF0000000000
FF0000000000
FF0000000000
FF0000000000
FF0000000000
FF0000000000
FF0000000000
FF0000000000
FF0000000000
FF0000000000
FF0000000000
FF0000000000
FF0000000000
FF0000000000
FF0000000000
FF0000000000
FF0000000000
FF0000000000
FF0000000000
FF0000000000
FF0000000000
FF0000000000
FF0000000000
FF0000000000
FF0000000000
FF0000000000
FF0000000000
FF0000000000
FF0000000000
FF0000000000
FF0000000000
FF0000000000
FF0000000000
FF0000000000
FF0000000000
FF0000000000
FF0000000000
FF0000000000
FF0000000000
FF0000000000
FF0000000000
FF0000000000
FF0000000000
FF0000000000
FF0000000000
FF0000000000
FF0000000000
FF0000000000
FF0000000000
FF0000000000
FF0000000000
FF0000000000
FF0000000000
FF0000000000
FF0000000000
FF0000000000
FF8000000000
FF8000000000
FFE000000180
7FFFFFFFFF80
7FFFFFFFFF80
3FFFFFFFFF80
3FFFFFFFFF80
1FFFFFFFFF80
07FFFFFFFF80
01FFFFFFFF80
ENDCHAR
STARTCHAR 0044
ENCODING 68
SWIDTH 550 0
DWIDTH 60 0
BBX 44 77 8 0
BITMAP
FFFFFFFFF800
FFFFFFFFFE00
FFFFFFFFFF80
FFFFFFFFFFC0
FFFFFFFFFFC0
FFFFFFFFFFE0
FFFFFFFFFFE0
FF0000007FF0
FF0000001FF0
FF0000001FF0
FF0000000FF0
FF0000000FF0
FF0000000FF0
FF0000000FF0
FF0000000FF0
FF0000000FF0
FF0000000FF0
FF0000000FF0
FF0000000FF0
FF0000000FF0
FF0000000FF0
FF0000000FF0
FF0000000FF0
FF0000000FF0
FF0000000FF0
FF0000000FF0
FF0000000FF0
FF0000000FF0
FF0000000FF0
FF0000000FF0
FF0000000FF0
FF0000000FF0
FF0000000FF0
FF0000000FF0
FF0000000FF0
FF0000000FF0
FF0000000FF0
FF0000000FF0
FF0000000FF0
FF0000000FF0
FF0000000FF0
FF0000000FF0
FF0000000FF0
FF0000000FF0
FF0000000FF0
FF0000000FF0
FF0000000FF0
FF0000000FF0
FF0000000FF0
FF0000000FF0
FF0000000FF0
FF0000000FF0
FF0000000FF0
FF0000000FF0
FF0000000FF0
FF0000000FF0
FF0000000FF0
FF0000000FF0
FF0000000FF0
FF0000000FF0
FF0000000FF0
FF0000000FF0
FF0000000FF0
FF0000000FF0
FF0000000FF0
FF0000000FF0
FF0000000FF0
FF0000001FF0
FF0000001FF0
FF0000007FF0
FFFFFFFFFFE0
FFFFFFFFFFE0
FFFFFFFFFFC0
FFFFFFFFFFC0
FFFFFFFFFF80
FFFFFFFFFE00
FFFFFFFFF800
ENDCHAR
STARTCHAR 0045
ENCODING 69
SWIDTH 477 0
DWIDTH 52 0
BBX 41 77 8 0
BITMAP
FFFFFFFFFE00
FFFFFFFFFE00
FFFFFFFFFE00
FFFFFFFFFE00
FFFFFFFFFE00
FFFFFFFFFE00
FFFFFFFFFE00
FF0000000000
FF0000000000
FF0000000000
FF0000000000
FF0000000000
FF0000000000
FF0000000000
FF0000000000
FF0000000000
FF0000000000
FF0000000000
FF0000000000
FF0000000000
FF0000000000
FF0000000000
FF0000000000
FF0000000000
FF0000000000
FF0000000000
FF0000000000
FF0000000000
FF0000000000
FF0000000000
FF0000000000
FF0000000000
FF0000000000
FFFFFFFF8000
FFFFFFFF8000
FFFFFFFF8000
FFFFFFFF8000
FFFFFFFF8000
FFFFFFFF8000
FFFFFFFF8000
FF0000000000
FF0000000000
FF0000000000
FF0000000000
FF0000000000
FF0000000000
FF0000000000
FF0000000000
FF0000000000
FF0000000000
FF0000000000
FF0000000000
FF0000000000
FF0000000000
FF0000000000
FF0000000000
FF0000000000
FF0000000000
FF0000000000
FF0000000000
FF0000000000
FF0000000000
FF0000000000
FF0000000000
FF0000000000
FF0000000000
FF0000000000
FF0000000000
FF0000000000
FF0000000000
FFFFFFFFFF80
FFFFFFFFFF80
FFFFFFFFFF80
FFFFFFFFFF80
FFFFFFFFFF80
FFFFFFFFFF80
FFFFFFFFFF80
ENDCHAR
STARTCHAR 0046
ENCODING 70
SWIDTH 440 0
DWIDTH 48 0
BBX 39 77 8 0
BITMAP
FFFFFFFFFE
FFFFFFFFFE
FFFFFFFFFE
FFFFFFFFFE
FFFFFFFFFE
FFFFFFFFFE
FFFFFFFFFE
FF00000000
FF00000000
FF00000000
FF00000000
FF00000000
FF00000000
FF00000000
FF00000000
FF00000000
FF00000000
FF00000000
FF00000000
FF00000000
FF00000000
FF00000000
FF00000000
FF00000000
FF00000000
FF00000000
FF00000000
FF00000000
FF00000000
FF00000000
FF00000000
FF00000000
FF00000000
FFFFFFFF80
FFFFFFFF80
FFFFFFFF80
FFFFFFFF80
FFFFFFFF80
FFFFFFFF80
FFFFFFFF80
FF00000000
FF00000000
FF00000000
FF00000000
FF00000000
FF00000000
FF00000000
FF00000000
FF00000000
FF00000000
FF00000000
FF00000000
FF00000000
FF00000000
FF00000000
FF00000000
FF00000000
FF00000000
FF00000000
FF00000000
FF00000000
FF00000000
FF00000000
FF00000000
FF00000000
FF00000000
FF00000000
FF00000000
FF00000000
FF00000000
FF00000000
FF00000000
FF00000000
FF00000000
FF00000000
FF00000000
FF00000000
ENDCHAR
STARTCHAR 0047
ENCODING 71
SWIDTH 550 0
DWIDTH 60 0
BBX 44 77 8 0
BITMAP
01FFFFFFFFF0
07FFFFFFFFF0
1FFFFFFFFFF0
3FFFFFFFFFF0
3FFFFFFFFFF0
7FFFFFFFFFF0
7FFFFFFFFFF0
FFE000000030
FF8000000000
FF8000000000
FF0000000000
FF0000000000
FF0000000000
FF0000000000
FF0000000000
FF0000000000
FF0000000000
FF0000000000
FF0000000000
FF0000000000
FF0000000000
FF0000000000
FF0000000000
FF0000000000
FF0000000000
FF0000000000
FF0000000000
FF0000000000
FF0000000000
FF0000000000
FF0000000000
FF0000000000
FF0000000000
FF0007FFFFF0
FF0007FFFFF0
FF0007FFFFF0
FF0007FFFFF0
FF0007FFFFF0
FF0007FFFFF0
FF0007FFFFF0
FF0000000FF0
FF0000000FF0
FF0000000FF0
FF0000000FF0
FF0000000FF0
FF0000000FF0
FF0000000FF0
FF0000000FF0
FF0000000FF0
FF0000000FF0
FF0000000FF0
FF0000000FF0
FF0000000FF0
FF0000000FF0
FF0000000FF0
FF0000000FF0
FF0000000FF0
FF0000000FF0
FF0000000FF0
FF0000000FF0
FF0000000FF0
FF0000000FF0
FF0000000FF0
FF0000000FF0
FF0000000FF0
FF0000000FF0
FF0000000FF0
FF8000001FF0
FF8000001FF0
FFE000007FF0
7FFFFFFFFFE0
7FFFFFFFFFE0
3FFFFFFFFFC0
3FFFFFFFFFC0
1FFFFFFFFF80
07FFFFFFFE00
01FFFFFFF800
ENDCHAR
STARTCHAR 0048
ENCODING 72
SWIDTH 550 0
DWIDTH 60 0
BBX 44 77 8 1
BITMAP
FF0000000FF0
FF0000000FF0
FF0000000FF0
FF0000000FF0
FF0000000FF0
FF0000000FF0
FF0000000FF0
FF0000000FF0
FF0000000FF0
FF0000000FF0
FF0000000FF0
FF0000000FF0
FF0000000FF0
FF0000000FF0
FF0000000FF0
FF0000000FF0
FF0000000FF0
FF0000000FF0
FF0000000FF0
FF0000000FF0
FF0000000FF0
FF0000000FF0
FF0000000FF0
FF0000000FF0
FF0000000FF0
FF0000000FF0
FF0000000FF0
FF0000000FF0
FF0000000FF0
FF0000000FF0
FF0000000FF0
FF0000000FF0
FF0000000FF0
FFFFFFFFFFF0
FFFFFFFFFFF0
FFFFFFFFFFF0
FFFFFFFFFFF0
FFFFFFFFFFF0
FFFFFFFFFFF0
FFFFFFFFFFF0
FF0000000FF0
FF0000000FF0
FF0000000FF0
FF0000000FF0
FF0000000FF0
FF0000000FF0
FF0000000FF0
FF0000000FF0
FF0000000FF0
FF0000000FF0
FF0000000FF0
FF0000000FF0
FF0000000FF0
FF0000000FF0
FF0000000FF0
FF0000000FF0
FF0000000FF0
FF0000000FF0
FF0000000FF0
FF0000000FF0
FF0000000FF0
FF0000000FF0
FF0000000FF0
FF0000000FF0
FF0000000FF0
FF0000000FF0
FF0000000FF0
FF0000000FF0
FF0000000FF0
FF0000000FF0
FF0000000FF0
FF0000000FF0
FF0000000FF0
FF0000000FF0
FF0000000FF0
FF0000000FF0
FF0000000FF0
ENDCHAR
STARTCHAR 0049
ENCODING 73
SWIDTH 229 0
DWIDTH 25 0
BBX 8 77 8 0
BITMAP
FF
FF
FF
FF
FF
FF
FF
FF
FF
FF
FF
FF
FF
FF
FF
FF
FF
FF
FF
FF
FF
FF
FF
FF
FF
FF
FF
FF
FF
FF
FF
FF
FF
FF
FF
FF
FF
FF
FF
FF
FF
FF
FF
FF
FF
FF
FF
FF
FF
FF
FF
FF
FF
FF
FF
FF
FF
FF
FF
FF
FF
FF
FF
FF
FF
FF
FF
FF
FF
FF
FF
FF
FF
FF
FF
FF
FF
ENDCHAR
STARTCHAR 004A
ENCODING 74
SWIDTH 330 0
DWIDTH 36 0
BBX 26 77 2 0
BITMAP
00003FC0
00003FC0
00003FC0
00003FC0
00003FC0
00003FC0
00003FC0
00003FC0
00003FC0
00003FC0
00003FC0
00003FC0
00003FC0
00003FC0
00003FC0
00003FC0
00003FC0
00003FC0
00003FC0
00003FC0
00003FC0
00003FC0
00003FC0
00003FC0
00003FC0
00003FC0
00003FC0
00003FC0
00003FC0
00003FC0
00003FC0
00003FC0
00003FC0
00003FC0
00003FC0
00003FC0
00003FC0
00003FC0
00003FC0
00003FC0
00003FC0
00003FC0
00003FC0
00003FC0
00003FC0
00003FC0
00003FC0
00003FC0
00003FC0
00003FC0
00003FC0
00003FC0
00003FC0
00003FC0
00003FC0
00003FC0
00003FC0
00003FC0
00003FC0
00003FC0
00003FC0
00003FC0
00003FC0
00003FC0
00003FC0
00003FC0
00003FC0
00007FC0
00007FC0
8001FFC0
FFFFFF80
FFFFFF80
FFFFFF00
FFFFFF00
FFFFFE00
FFFFF800
FFFFE000
ENDCHAR
STARTCHAR 004B
ENCODING 75
SWIDTH 532 0
DWIDTH 58 0
BBX 46 77 8 1
BITMAP
FF0000000FF0
FF0000001FF0
FF0000001FE0
FF0000003FE0
FF0000003FE0
FF0000007FC0
FF0000007FC0
FF000000FF80
FF000000FF80
FF000000FF00
FF000001FF00
FF000001FE00
FF000003FE00
FF000003FC00
FF000007FC00
FF000007FC00
FF00000FF800
FF00000FF800
FF00000FF000
FF00001FF000
FF00001FE000
FF00003FE000
FF00003FC000
FF00007FC000
FF00007F8000
FF0000FF8000
FF0000FF8000
FF0000FF0000
FF0001FF0000
FF0001FE0000
FF0003FE0000
FF0007FC0000
FF000FFC0000
FFFFFFF80000
FFFFFFF00000
FFFFFFE00000
FFFFFF800000
FFFFFFE00000
FFFFFFF00000
FFFFFFF80000
FF000FFC0000
FF0007FE0000
FF0003FE0000
FF0001FE0000
FF0001FF0000
FF0000FF0000
FF0000FF8000
FF0000FF8000
FF00007FC000
FF00007FC000
FF00003FE000
FF00003FE000
FF00001FE000
FF00001FF000
FF00001FF000
FF00000FF800
FF00000FF800
FF000007FC00
FF000007FC00
FF000003FC00
FF000003FE00
FF000003FE00
FF000001FF00
FF000001FF00
FF000000FF80
FF000000FF80
FF0000007FC0
FF0000007FC0
FF0000007FC0
FF0000003FE0
FF0000003FE0
FF0000001FF0
FF0000001FF0
FF0000001FF8
FF0000000FF8
FF0000000FFC
FF00000007FC
ENDCHAR
STARTCHAR 004C
ENCODING 76
SWIDTH 458 0
DWIDTH 50 0
BBX 41 77 8 0
BITMAP
FF0000000000
FF0000000000
FF0000000000
FF0000000000
FF0000000000
FF0000000000
FF0000000000
FF0000000000
FF0000000000
FF0000000000
FF0000000000
FF0000000000
FF0000000000
FF0000000000
FF0000000000
FF0000000000
FF0000000000
FF0000000000
FF0000000000
FF0000000000
FF0000000000
FF0000000000
FF0000000000
FF0000000000
FF0000000000
FF0000000000
FF0000000000
FF0000000000
FF0000000000
FF0000000000
FF0000000000
FF0000000000
FF0000000000
FF0000000000
FF0000000000
FF0000000000
FF0000000000
FF0000000000
FF0000000000
FF0000000000
FF0000000000
FF0000000000
FF0000000000
FF0000000000
FF0000000000
FF0000000000
FF0000000000
FF0000000000
FF0000000000
FF0000000000
FF0000000000
FF0000000000
FF0000000000
FF0000000000
FF0000000000
FF0000000000
FF0000000000
FF0000000000
FF0000000000
FF0000000000
FF0000000000
FF0000000000
FF0000000000
FF0000000000
FF0000000000
FF0000000000
FF0000000000
FF0000000000
FF0000000000
FF0000000000
FFFFFFFFFF80
FFFFFFFFFF80
FFFFFFFFFF80
FFFFFFFFFF80
FFFFFFFFFF80
FFFFFFFFFF80
FFFFFFFFFF80
ENDCHAR
STARTCHAR 004D
ENCODING 77
SWIDTH 651 0
DWIDTH 71 0
BBX 55 77 8 0
BITMAP
FFF80000001FFE
FFF80000001FFE
FFF80000003FFE
FFFC0000003FFE
FFFC0000003FFE
FFFC0000007FFE
FFFE0000007FFE
FFFE0000007FFE
FFFE000000FFFE
FFFE000000FFFE
FFFF000000FFFE
FF7F000001FDFE
FF7F000001FDFE
FF7F800001FDFE
FF3F800003F9FE
FF3F800003F9FE
FF3FC00003F9FE
FF1FC00007F1FE
FF1FC00007F1FE
FF1FE00007F1FE
FF0FE00007E1FE
FF0FE0000FE1FE
FF0FF0000FE1FE
FF07F0000FC1FE
FF07F0001FC1FE
FF07F8001FC1FE
FF03F8001F81FE
FF03F8003F81FE
FF03F8003F81FE
FF01FC003F01FE
FF01FC007F01FE
FF01FC007F01FE
FF01FE007E01FE
FF00FE00FE01FE
FF00FE00FE01FE
FF00FF00FC01FE
FF007F01FC01FE
FF007F01FC01FE
FF007F81F801FE
FF003F83F801FE
FF003F83F801FE
FF003FC3F001FE
FF001FC7F001FE
FF001FC7F001FE
FF001FE7E001FE
FF000FEFE001FE
FF000FEFE001FE
FF000FEFC001FE
FF0007FFC001FE
FF0007FFC001FE
FF0007FF8001FE
FF0003FF8001FE
FF0003FF8001FE
FF0003FF8001FE
FF0001FF0001FE
FF0001FF0001FE
FF0001FF0001FE
FF0000000001FE
FF0000000001FE
FF0000000001FE
FF0000000001FE
FF0000000001FE
FF0000000001FE
FF0000000001FE
FF0000000001FE
FF0000000001FE
FF0000000001FE
FF0000000001FE
FF0000000001FE
FF0000000001FE
FF0000000001FE
FF0000000001FE
FF0000000001FE
FF0000000001FE
FF0000000001FE
FF0000000001FE
FF0000000001FE
ENDCHAR
STARTCHAR 004E
ENCODING 78
SWIDTH 559 0
DWIDTH 61 0
BBX 45 77 8 0
BITMAP
FFC0000007F8
FFC0000007F8
FFE0000007F8
FFE0000007F8
FFE0000007F8
FFF0000007F8
FFF0000007F8
FFF8000007F8
FFF8000007F8
FFFC000007F8
FFFC000007F8
FFFC000007F8
FFFE000007F8
FFFE000007F8
FFFF000007F8
FF7F000007F8
FF7F800007F8
FF3F800007F8
FF3F800007F8
FF3FC00007F8
FF1FC00007F8
FF1FE00007F8
FF0FE00007F8
FF0FF00007F8
FF07F00007F8
FF07F80007F8
FF03F80007F8
FF03F80007F8
FF03FC0007F8
FF01FC0007F8
FF01FE0007F8
FF00FE0007F8
FF00FF0007F8
FF007F0007F8
FF007F0007F8
FF007F8007F8
FF003F8007F8
FF003FC007F8
FF001FC007F8
FF001FE007F8
FF000FE007F8
FF000FF007F8
FF000FF007F8
FF0007F007F8
FF0007F807F8
FF0003F807F8
FF0003FC07F8
FF0001FC07F8
FF0001FE07F8
FF0000FE07F8
FF0000FE07F8
FF0000FF07F8
FF00007F07F8
FF00007F87F8
FF00003F87F8
FF00003FC7F8
FF00001FC7F8
FF00001FE7F8
FF00001FE7F8
FF00000FE7F8
FF00000FF7F8
FF000007F7F8
FF000007FFF8
FF000003FFF8
FF000003FFF8
FF000003FFF8
FF000001FFF8
FF000001FFF8
FF000000FFF8
FF000000FFF8
FF0000007FF8
FF0000007FF8
FF0000003FF8
FF0000003FF8
FF0000003FF8
FF0000001FF8
FF0000001FF8
ENDCHAR
STARTCHAR 004F
ENCODING 79
SWIDTH 550 0
DWIDTH 60 0
BBX 44 77 8 0
BITMAP
01FFFFFFF800
07FFFFFFFE00
1FFFFFFFFF80
3FFFFFFFFFC0
3FFFFFFFFFC0
7FFFFFFFFFE0
7FFFFFFFFFE0
FFE000007FF0
FF8000001FF0
FF8000001FF0
FF0000000FF0
FF0000000FF0
FF0000000FF0
FF0000000FF0
FF0000000FF0
FF0000000FF0
FF0000000FF0
FF0000000FF0
FF0000000FF0
FF0000000FF0
FF0000000FF0
FF0000000FF0
FF0000000FF0
FF0000000FF0
FF0000000FF0
FF0000000FF0
FF0000000FF0
FF0000000FF0
FF0000000FF0
FF0000000FF0
FF0000000FF0
FF0000000FF0
FF0000000FF0
FF0000000FF0
FF0000000FF0
FF0000000FF0
FF0000000FF0
FF0000000FF0
FF0000000FF0
FF0000000FF0
FF0000000FF0
FF0000000FF0
FF0000000FF0
FF0000000FF0
FF0000000FF0
FF0000000FF0
FF0000000FF0
FF0000000FF0
FF0000000FF0
FF0000000FF0
FF0000000FF0
FF0000000FF0
FF0000000FF0
FF0000000FF0
FF0000000FF0
FF0000000FF0
FF0000000FF0
FF0000000FF0
FF0000000FF0
FF0000000FF0
FF0000000FF0
FF0000000FF0
FF0000000FF0
FF0000000FF0
FF0000000FF0
FF0000000FF0
FF0000000FF0
FF8000001FF0
FF8000001FF0
FFE000007FF0
7FFFFFFFFFE0
7FFFFFFFFFE0
3FFFFFFFFFC0
3FFFFFFFFFC0
1FFFFFFFFF80
07FFFFFFFE00
01FFFFFFF800
ENDCHAR
STARTCHAR 0050
ENCODING 80
SWIDTH 522 0
DWIDTH 57 0
BBX 44 77 8 0
BITMAP
FFFFFFFFF800
FFFFFFFFFE00
FFFFFFFFFF80
FFFFFFFFFFC0
FFFFFFFFFFC0
FFFFFFFFFFE0
FFFFFFFFFFE0
FF0000007FF0
FF0000001FF0
FF0000001FF0
FF0000000FF0
FF0000000FF0
FF0000000FF0
FF0000000FF0
FF0000000FF0
FF0000000FF0
FF0000000FF0
FF0000000FF0
FF0000000FF0
FF0000000FF0
FF0000000FF0
FF0000000FF0
FF0000000FF0
FF0000000FF0
FF0000000FF0
FF0000000FF0
FF0000000FF0
FF0000000FF0
FF0000000FF0
FF0000000FF0
FF0000000FF0
FF0000000FF0
FF0000001FF0
FF0000001FF0
FF0000007FF0
FFFFFFFFFFE0
FFFFFFFFFFE0
FFFFFFFFFFC0
FFFFFFFFFFC0
FFFFFFFFFF80
FFFFFFFFFE00
FFFFFFFFF800
FF0000000000
FF0000000000
FF0000000000
FF0000000000
FF0000000000
FF0000000000
FF0000000000
FF0000000000
FF0000000000
FF0000000000
FF0000000000
FF0000000000
FF0000000000
FF0000000000
FF0000000000
FF0000000000
FF0000000000
FF0000000000
FF0000000000
FF0000000000
FF0000000000
FF0000000000
FF0000000000
FF0000000000
FF0000000000
FF0000000000
FF0000000000
FF0000000000
FF0000000000
FF0000000000
FF0000000000
FF0000000000
FF0000000000
FF0000000000
FF0000000000
ENDCHAR
STARTCHAR 0051
ENCODING 81
SWIDTH 550 0
DWIDTH 60 0
BBX 44 99 8 -22
BITMAP
01FFFFFFF800
07FFFFFFFE00
1FFFFFFFFF80
3FFFFFFFFFC0
3FFFFFFFFFC0
7FFFFFFFFFE0
7FFFFFFFFFE0
FFE000007FF0
FF8000001FF0
FF8000001FF0
FF0000000FF0
FF0000000FF0
FF0000000FF0
FF0000000FF0
FF0000000FF0
FF0000000FF0
FF0000000FF0
FF0000000FF0
FF0000000FF0
FF0000000FF0
FF0000000FF0
FF0000000FF0
FF0000000FF0
FF0000000FF0
FF0000000FF0
FF0000000FF0
FF0000000FF0
FF0000000FF0
FF0000000FF0
FF0000000FF0
FF0000000FF0
FF0000000FF0
FF0000000FF0
FF0000000FF0
FF0000000FF0
FF0000000FF0
FF0000000FF0
FF0000000FF0
FF0000000FF0
FF0000000FF0
FF0000000FF0
FF0000000FF0
FF0000000FF0
FF0000000FF0
FF0000000FF0
FF0000000FF0
FF0000000FF0
FF0000000FF0
FF0000000FF0
FF0000000FF0
FF0000000FF0
FF0000000FF0
FF0000000FF0
FF0000000FF0
FF0000000FF0
FF0000000FF0
FF0000000FF0
FF0000000FF0
FF0000000FF0
FF001F000FF0
FF001F000FF0
FF000F000FF0
FF000F800FF0
FF000F800FF0
FF0007C00FF0
FF0007C00FF0
FF0007C00FF0
FF8003E01FF0
FF8003E01FF0
FFE003E07FF0
7FFFFFFFFFE0
7FFFFFFFFFE0
3FFFFFFFFFC0
3FFFFFFFFFC0
1FFFFFFFFF80
07FFFFFFFE00
01FFFFFFF800
0000007C0000
0000007E0000
0000007E0000
0000003F0000
0000003F0000
0000003F0000
0000001F8000
0000001F8000
0000001F8000
0000000FC000
0000000FC000
0000000FE000
00000007E000
00000007E000
00000007F000
00000007F000
00000003F000
00000003F800
00000003F800
00000001F800
00000001FC00
00000001FC00
ENDCHAR
STARTCHAR 0052
ENCODING 82
SWIDTH 568 0
DWIDTH 62 0
BBX 48 77 8 0
BITMAP
FFFFFFFFF800
FFFFFFFFFE00
FFFFFFFFFF80
FFFFFFFFFFC0
FFFFFFFFFFC0
FFFFFFFFFFE0
FFFFFFFFFFE0
FF0000007FF0
FF0000001FF0
FF0000001FF0
FF0000000FF0
FF0000000FF0
FF0000000FF0
FF0000000FF0
FF0000000FF0
FF0000000FF0
FF0000000FF0
FF0000000FF0
FF0000000FF0
FF0000000FF0
FF0000000FF0
FF0000000FF0
FF0000000FF0
FF0000000FF0
FF0000000FF0
FF0000000FF0
FF0000000FF0
FF0000000FF0
FF0000000FF0
FF0000000FF0
FF0000001FF0
FF0000001FF0
FF0000003FF0
FFFFFFFFFFE0
FFFFFFFFFFE0
FFFFFFFFFFE0
FFFFFFFFFFC0
FFFFFFFFFF80
FFFFFFFFFF00
FFFFFFFFFC00
FF00003FC000
FF00001FC000
FF00001FE000
FF00001FE000
FF00000FE000
FF00000FF000
FF00000FF000
FF000007F800
FF000007F800
FF000007F800
FF000003FC00
FF000003FC00
FF000001FC00
FF000001FE00
FF000001FE00
FF000000FF00
FF000000FF00
FF000000FF00
FF0000007F80
FF0000007F80
FF0000007FC0
FF0000003FC0
FF0000003FC0
FF0000003FE0
FF0000001FE0
FF0000001FE0
FF0000001FF0
FF0000000FF0
FF0000000FF8
FF00000007F8
FF00000007F8
FF00000007FC
FF00000003FC
FF00000003FC
FF00000003FE
FF00000001FE
FF00000001FF
ENDCHAR
STARTCHAR 0053
ENCODING 83
SWIDTH 495 0
DWIDTH 54 0
BBX 40 77 7 0
BITMAP
01FFFFFFFF
07FFFFFFFF
1FFFFFFFFF
3FFFFFFFFF
3FFFFFFFFF
7FFFFFFFFF
7FFFFFFFFF
FFE0000003
FF80000000
FF80000000
FF00000000
FF00000000
FF00000000
FF00000000
FF00000000
FF00000000
FF00000000
FF00000000
FF00000000
FF00000000
FF00000000
FF80000000
FF80000000
7FC0000000
7FE0000000
7FF0000000
3FF8000000
1FFC000000
1FFE000000
0FFF800000
07FFC00000
01FFE00000
00FFF00000
007FF80000
003FFE0000
001FFF0000
0007FF8000
0003FFC000
0001FFE000
0000FFF800
00007FFC00
00001FFE00
00000FFF00
000007FF80
000003FFE0
000001FFF0
000000FFF8
0000003FFC
0000001FFC
0000000FFE
00000007FE
00000003FE
00000001FF
00000000FF
00000000FF
00000000FF
00000000FF
00000000FF
00000000FF
00000000FF
00000000FF
00000000FF
00000000FF
00000000FF
00000000FF
00000000FF
00000000FF
00000001FF
00000001FF
80000007FF
FFFFFFFFFE
FFFFFFFFFE
FFFFFFFFFC
FFFFFFFFFC
FFFFFFFFF8
FFFFFFFFF0
FFFFFFFF80
ENDCHAR
STARTCHAR 0054
ENCODING 84
SWIDTH 467 0
DWIDTH 51 0
BBX 44 77 3 0
BITMAP
FFFFFFFFFFF0
FFFFFFFFFFF0
FFFFFFFFFFF0
FFFFFFFFFFF0
FFFFFFFFFFF0
FFFFFFFFFFF0
FFFFFFFFFFF0
00003FC00000
00003FC00000
00003FC00000
00003FC00000
00003FC00000
00003FC00000
00003FC00000
00003FC00000
00003FC00000
00003FC00000
00003FC00000
00003FC00000
00003FC00000
00003FC00000
00003FC00000
00003FC00000
00003FC00000
00003FC00000
00003FC00000
00003FC00000
00003FC00000
00003FC00000
00003FC00000
00003FC00000
00003FC00000
00003FC00000
00003FC00000
00003FC00000
00003FC00000
00003FC00000
00003FC00000
00003FC00000
00003FC00000
00003FC00000
00003FC00000
00003FC00000
00003FC00000
00003FC00000
00003FC00000
00003FC00000
00003FC00000
00003FC00000
00003FC00000
00003FC00000
00003FC00000
00003FC00000
00003FC00000
00003FC00000
00003FC00000
00003FC00000
00003FC00000
00003FC00000
00003FC00000
00003FC00000
00003FC00000
00003FC00000
00003FC00000
00003FC00000
00003FC00000
00003FC00000
00003FC00000
00003FC00000
00003FC00000
00003FC00000
00003FC00000
00003FC00000
00003FC00000
00003FC00000
00003FC00000
00003FC00000
ENDCHAR
STARTCHAR 0055
ENCODING 85
SWIDTH 550 0
DWIDTH 60 0
BBX 44 77 8 0
BITMAP
FF0000000FF0
FF0000000FF0
FF0000000FF0
FF0000000FF0
FF0000000FF0
FF0000000FF0
FF0000000FF0
FF0000000FF0
FF0000000FF0
FF0000000FF0
FF0000000FF0
FF0000000FF0
FF0000000FF0
FF0000000FF0
FF0000000FF0
FF0000000FF0
FF0000000FF0
FF0000000FF0
FF0000000FF0
FF0000000FF0
FF0000000FF0
FF0000000FF0
FF0000000FF0
FF0000000FF0
FF0000000FF0
FF0000000FF0
FF0000000FF0
FF0000000FF0
FF0000000FF0
FF0000000FF0
FF0000000FF0
FF0000000FF0
FF0000000FF0
FF0000000FF0
FF0000000FF0
FF0000000FF0
FF0000000FF0
FF0000000FF0
FF0000000FF0
FF0000000FF0
FF0000000FF0
FF0000000FF0
FF0000000FF0
FF0000000FF0
FF0000000FF0
FF0000000FF0
FF0000000FF0
FF0000000FF0
FF0000000FF0
FF0000000FF0
FF0000000FF0
FF0000000FF0
FF0000000FF0
FF0000000FF0
FF0000000FF0
FF0000000FF0
FF0000000FF0
FF0000000FF0
FF0000000FF0
FF0000000FF0
FF0000000FF0
FF0000000FF0
FF0000000FF0
FF0000000FF0
FF0000000FF0
FF0000000FF0
FF0000000FF0
FF8000001FF0
FF8000001FF0
FFE000007FF0
7FFFFFFFFFE0
7FFFFFFFFFE0
3FFFFFFFFFC0
3FFFFFFFFFC0
1FFFFFFFFF80
07FFFFFFFE00
01FFFFFFF800
ENDCHAR
STARTCHAR 0056
ENCODING 86
SWIDTH 504 0
DWIDTH 55 0
BBX 53 77 1 0
BITMAP
FF8000000007F8
FF800000000FF8
7F800000000FF0
7F800000000FF0
7FC00000000FF0
7FC00000001FE0
3FC00000001FE0
3FE00000001FE0
3FE00000001FE0
1FE00000003FC0
1FE00000003FC0
1FF00000003FC0
1FF00000003F80
0FF00000007F80
0FF00000007F80
0FF80000007F80
07F8000000FF00
07F8000000FF00
07F8000000FF00
07FC000000FF00
03FC000001FE00
03FC000001FE00
03FE000001FE00
03FE000001FC00
01FE000003FC00
01FE000003FC00
01FF000003FC00
00FF000007F800
00FF000007F800
00FF000007F800
00FF800007F000
007F80000FF000
007F80000FF000
007F80000FF000
007FC0000FE000
003FC0001FE000
003FC0001FE000
003FE0001FC000
001FE0001FC000
001FE0003FC000
001FE0003FC000
001FF0003F8000
000FF0007F8000
000FF0007F8000
000FF0007F8000
000FF8007F0000
0007F800FF0000
0007F800FF0000
0007F800FE0000
0003FC00FE0000
0003FC01FE0000
0003FC01FE0000
0003FE01FC0000
0001FE03FC0000
0001FE03FC0000
0001FE03F80000
0000FF03F80000
0000FF07F80000
0000FF07F80000
0000FF07F00000
00007F87F00000
00007F8FF00000
00007F8FE00000
00007F8FE00000
00003FCFE00000
00003FDFE00000
00003FDFC00000
00001FFFC00000
00001FFFC00000
00001FFFC00000
00001FFF800000
00000FFF800000
00000FFF800000
00000FFF000000
00000FFF000000
000007FF000000
000007FF000000
ENDCHAR
STARTCHAR 0057
ENCODING 87
SWIDTH 761 0
DWIDTH 83 0
BBX 79 77 2 0
BITMAP
FF0000000FF0000001FE
FF0000000FF0000001FE
7F8000000FF0000001FC
7F8000001FF0000001FC
7F8000001FF0000003FC
7F8000001FF8000003FC
7FC000001FF8000003F8
3FC000001FF8000003F8
3FC000003FF8000007F8
3FC000003FF8000007F8
3FC000003FFC000007F8
1FE000003FFC000007F0
1FE000003FFC000007F0
1FE000007FFC00000FF0
1FE000007EFC00000FF0
0FF000007EFE00000FE0
0FF000007EFE00000FE0
0FF000007EFE00001FE0
0FF00000FEFE00001FE0
0FF00000FCFE00001FC0
07F80000FC7F00001FC0
07F80000FC7F00001FC0
07F80000FC7F00003FC0
07F80001FC7F00003F80
03FC0001F87F00003F80
03FC0001F83F00003F80
03FC0001F83F80007F80
03FC0001F83F80007F80
01FC0003F83F80007F00
01FE0003F03F80007F00
01FE0003F01F8000FF00
01FE0003F01FC000FF00
01FE0003F01FC000FE00
00FF0007F01FC000FE00
00FF0007E01FC000FE00
00FF0007E00FC001FE00
00FF0007E00FE001FC00
007F0007E00FE001FC00
007F800FE00FE001FC00
007F800FC00FE003FC00
007F800FC007E003FC00
003F800FC007F003F800
003F800FC007F003F800
003FC01FC007F003F800
003FC01F8007F007F800
003FC01F8003F007F000
001FC01F8003F807F000
001FE01F8003F807F000
001FE03F8003F80FF000
001FE03F0003F80FE000
000FE03F0003F80FE000
000FE03F0001FC0FE000
000FF03F0001FC0FE000
000FF07F0001FC1FC000
000FF07E0001FC1FC000
0007F07E0001FC1FC000
0007F87E0000FC1FC000
0007F87E0000FE3FC000
0007F8FE0000FE3F8000
0003F8FC0000FE3F8000
0003F8FC0000FE3F8000
0003FCFC00007E3F8000
0003FCFC00007F7F0000
0001FDFC00007F7F0000
0001FDF800007F7F0000
0001FFF800007F7F0000
0001FFF800003FFE0000
0001FFF800003FFE0000
0000FFF800003FFE0000
0000FFF800003FFE0000
0000FFF000003FFC0000
0000FFF000001FFC0000
00007FF000001FFC0000
00007FF000001FFC0000
00007FF000001FFC0000
00007FE000001FF80000
00003FE000000FF80000
ENDCHAR
STARTCHAR 0058
ENCODING 88
SWIDTH 532 0
DWIDTH 58 0
BBX 56 77 1 0
BITMAP
1FF80000001FF0
0FF80000001FF0
07FC0000003FE0
07FC0000003FE0
03FE0000007FC0
03FE0000007FC0
01FF000000FF80
01FF000000FF80
00FF800001FF00
00FFC00001FE00
007FC00003FE00
007FE00003FC00
003FE00007FC00
001FF00007F800
001FF0000FF800
000FF8000FF000
000FF8001FF000
0007FC001FE000
0007FC003FC000
0003FE003FC000
0003FE007F8000
0001FF007F8000
0000FF00FF0000
0000FF80FF0000
00007F81FE0000
00007FC1FE0000
00003FC3FC0000
00003FE3F80000
00001FE7F80000
00001FFFF00000
00000FFFF00000
00000FFFE00000
000007FFE00000
000003FFC00000
000003FFC00000
000001FF800000
000001FF800000
000003FFC00000
000003FFC00000
000007FFE00000
00000FFFF00000
00000FFFF00000
00001FFFF80000
00001FE7F80000
00003FE7FC0000
00003FC3FC0000
00007F83FE0000
00007F81FF0000
0000FF01FF0000
0001FF00FF8000
0001FE00FF8000
0003FE007FC000
0003FC007FC000
0007FC003FE000
0007F8001FE000
000FF8001FF000
001FF0000FF800
001FF0000FF800
003FE00007FC00
003FC00007FC00
007FC00003FE00
007F800003FE00
00FF800001FF00
00FF000001FF00
01FF000000FF80
03FE000000FFC0
03FE0000007FC0
07FC0000007FE0
07FC0000003FE0
0FF80000001FF0
0FF80000001FF0
1FF00000000FF8
1FF00000000FFC
3FE000000007FC
7FC000000007FE
7FC000000003FE
FF8000000003FF
ENDCHAR
STARTCHAR 0059
ENCODING 89
SWIDTH 522 0
DWIDTH 57 0
BBX 56 77 1 0
BITMAP
FF8000000001FF
FFC000000003FE
7FC000000003FE
7FE000000007FC
3FE000000007FC
3FF00000000FF8
1FF00000000FF8
1FF80000001FF0
0FF80000003FF0
07FC0000003FE0
07FE0000007FC0
03FE0000007FC0
03FF000000FF80
01FF000000FF80
01FF800001FF00
00FF800001FF00
007FC00003FE00
007FC00003FE00
003FE00007FC00
003FE00007F800
001FF0000FF800
001FF8001FF000
000FF8001FF000
000FFC003FE000
0007FC003FE000
0003FE007FC000
0003FE007FC000
0001FF00FF8000
0001FF00FF0000
0000FF81FF0000
0000FF81FE0000
00007FC3FE0000
00003FC3FC0000
00003FE7FC0000
00001FFFF80000
00001FFFF80000
00000FFFF00000
00000FFFF00000
000007FFE00000
000003FFC00000
000003FFC00000
000001FF800000
000001FF800000
000000FF000000
000000FF000000
000000FF000000
000000FF000000
000000FF000000
000000FF000000
000000FF000000
000000FF000000
000000FF000000
000000FF000000
000000FF000000
000000FF000000
000000FF000000
000000FF000000
000000FF000000
000000FF000000
000000FF000000
000000FF000000
000000FF000000
000000FF000000
000000FF000000
000000FF000000
000000FF000000
000000FF000000
000000FF000000
000000FF000000
000000FF000000
000000FF000000
000000FF000000
000000FF000000
000000FF000000
000000FF000000
000000FF000000
000000FF000000
ENDCHAR
STARTCHAR 005A
ENCODING 90
SWIDTH 495 0
DWIDTH 54 0
BBX 45 77 5 0
BITMAP
FFFFFFFFFFF8
FFFFFFFFFFF8
FFFFFFFFFFF8
FFFFFFFFFFF8
FFFFFFFFFFF0
FFFFFFFFFFF0
FFFFFFFFFFE0
800000001FE0
000000001FC0
000000003FC0
000000007F80
000000007F80
00000000FF00
00000000FF00
00000001FE00
00000001FE00
00000003FC00
00000003FC00
00000007F800
00000007F000
0000000FF000
0000000FE000
0000001FE000
0000001FC000
0000003FC000
0000007F8000
0000007F8000
000000FF0000
000000FF0000
000001FE0000
000001FE0000
000003FC0000
000003FC0000
000007F80000
000007F80000
00000FF00000
00000FF00000
00001FE00000
00001FE00000
00003FC00000
00003F800000
00007F800000
0000FF000000
0000FF000000
0001FE000000
0001FE000000
0003FC000000
0003FC000000
0007F8000000
0007F8000000
000FF0000000
000FF0000000
001FE0000000
001FE0000000
003FC0000000
003FC0000000
007F80000000
00FF80000000
00FF00000000
01FF00000000
01FE00000000
03FE00000000
03FC00000000
07F800000000
07F800000000
0FF000000000
0FF000000000
1FE000000000
1FE000000000
3FC000000000
3FFFFFFFFFF8
7FFFFFFFFFF8
7FFFFFFFFFF8
FFFFFFFFFFF8
FFFFFFFFFFF8
FFFFFFFFFFF8
FFFFFFFFFFF8
ENDCHAR
STARTCHAR 005B
ENCODING 91
SWIDTH 385 0
DWIDTH 42 0
BBX 23 99 9 -22
BITMAP
FFFFFE
FFFFFE
FFFFFE
FFFFFE
FFFFFE
FFFFFE
FFFFFE
FF0000
FF0000
FF0000
FF0000
FF0000
FF0000
FF0000
FF0000
FF0000
FF0000
FF0000
FF0000
FF0000
FF0000
FF0000
FF0000
FF0000
FF0000
FF0000
FF0000
FF0000
FF0000
FF0000
FF0000
FF0000
FF0000
FF0000
FF0000
FF0000
FF0000
FF0000
FF0000
FF0000
FF0000
FF0000
FF0000
FF0000
FF0000
FF0000
FF0000
FF0000
FF0000
FF0000
FF0000
FF0000
FF0000
FF0000
FF0000
FF0000
FF0000
FF0000
FF0000
FF0000
FF0000
FF0000
FF0000
FF0000
FF0000
FF0000
FF0000
FF0000
FF0000
FF0000
FF0000
FF0000
FF0000
FF0000
FF0000
FF0000
FF0000
FF0000
FF0000
FF0000
FF0000
FF0000
FF0000
FF0000
FF0000
FF0000
FF0000
FF0000
FF0000
FF0000
FF0000
FF0000
FFFFFE
FFFFFE
FFFFFE
FFFFFE
FFFFFE
FFFFFE
FFFFFE
ENDCHAR
STARTCHAR 005C
ENCODING 92
SWIDTH 422 0
DWIDTH 46 0
BBX 46 77 0 0
BITMAP
FF8000000000
7F8000000000
7FC000000000
3FC000000000
3FE000000000
1FE000000000
1FF000000000
0FF000000000
0FF800000000
07F800000000
07FC00000000
03FC00000000
03FE00000000
01FE00000000
01FF00000000
00FF00000000
00FF80000000
007F80000000
007FC0000000
003FC0000000
003FE0000000
001FE0000000
001FE0000000
000FF0000000
000FF0000000
0007F8000000
0007F8000000
0003FC000000
0003FC000000
0001FE000000
0001FE000000
0000FF000000
0000FF000000
00007F800000
00007F800000
00003FC00000
00003FC00000
00001FE00000
00001FE00000
00000FF00000
00000FF00000
00000FF80000
000007F80000
000007FC0000
000003FC0000
000003FE0000
000001FE0000
000001FF0000
000000FF0000
000000FF8000
0000007F8000
0000007FC000
0000003FC000
0000003FE000
0000001FE000
0000001FF000
0000000FF000
0000000FF800
00000007F800
00000007FC00
00000003FC00
00000003FE00
00000001FE00
00000001FF00
00000000FF00
00000000FF80
000000007F80
000000007FC0
000000003FC0
000000003FE0
000000001FE0
000000001FF0
000000000FF0
000000000FF8
0000000007F8
0000000007FC
0000000003FC
ENDCHAR
STARTCHAR 005D
ENCODING 93
SWIDTH 348 0
DWIDTH 38 0
BBX 23 99 6 -22
BITMAP
FFFFFE
FFFFFE
FFFFFE
FFFFFE
FFFFFE
FFFFFE
FFFFFE
0001FE
0001FE
0001FE
0001FE
0001FE
0001FE
0001FE
0001FE
0001FE
0001FE
0001FE
0001FE
0001FE
0001FE
0001FE
0001FE
0001FE
0001FE
0001FE
0001FE
0001FE
0001FE
0001FE
0001FE
0001FE
0001FE
0001FE
0001FE
0001FE
0001FE
0001FE
0001FE
0001FE
0001FE
0001FE
0001FE
0001FE
0001FE
0001FE
0001FE
0001FE
0001FE
0001FE
0001FE
0001FE
0001FE
0001FE
0001FE
0001FE
0001FE
0001FE
0001FE
0001FE
0001FE
0001FE
0001FE
0001FE
0001FE
0001FE
0001FE
0001FE
0001FE
0001FE
0001FE
0001FE
0001FE
0001FE
0001FE
0001FE
0001FE
0001FE
0001FE
0001FE
0001FE
0001FE
0001FE
0001FE
0001FE
0001FE
0001FE
0001FE
0001FE
0001FE
0001FE
0001FE
FFFFFE
FFFFFE
FFFFFE
FFFFFE
FFFFFE
FFFFFE
FFFFFE
ENDCHAR
STARTCHAR 005E
ENCODING 94
SWIDTH 357 0
DWIDTH 39 0
BBX 35 29 2 47
BITMAP
0001F00000
0003F80000
0003F80000
0007FC0000
0007FC0000
000FFE0000
000FFE0000
001FFF0000
001FBF0000
003F3F8000
007F1FC000
007E0FC000
00FC0FE000
00FC07E000
01F807F000
01F803F000
03F001F800
03E001F800
07E000FC00
0FC000FC00
0FC0007E00
1F80003F00
1F00003F00
3F00001F80
3E00001F80
7E00000FC0
7C000007C0
F8000007E0
F8000003E0
ENDCHAR
STARTCHAR 005F
ENCODING 95
SWIDTH 724 0
DWIDTH 79 0
BBX 66 7 6 -15
BITMAP
FFFFFFFFFFFFFFFFC0
FFFFFFFFFFFFFFFFC0
FFFFFFFFFFFFFFFFC0
FFFFFFFFFFFFFFFFC0
FFFFFFFFFFFFFFFFC0
FFFFFFFFFFFFFFFFC0
FFFFFFFFFFFFFFFFC0
ENDCHAR
STARTCHAR 0060
ENCODING 96
SWIDTH 330 0
DWIDTH 36 0
BBX 18 15 9 61
BITMAP
FF0000
7F8000
3FC000
1FC000
0FE000
07F000
03F000
03F800
01FC00
00FE00
007E00
003F00
001F80
000FC0
000FC0
ENDCHAR
STARTCHAR 0061
ENCODING 97
SWIDTH 458 0
DWIDTH 50 0
BBX 36 55 7 0
BITMAP
FFFFFFF800
FFFFFFFE00
FFFFFFFF80
FFFFFFFFC0
FFFFFFFFC0
FFFFFFFFE0
E00000FFE0
0000003FF0
0000001FF0
0000000FF0
0000000FF0
0000000FF0
0000000FF0
0000000FF0
0000000FF0
0000000FF0
0000000FF0
0000000FF0
0000000FF0
0000000FF0
01FFFFFFF0
07FFFFFFF0
1FFFFFFFF0
3FFFFFFFF0
3FFFFFFFF0
7FFFFFFFF0
7FC0000FF0
FF80000FF0
FF80000FF0
FF00000FF0
FF00000FF0
FF00000FF0
FF00000FF0
FF00000FF0
FF00000FF0
FF00000FF0
FF00000FF0
FF00000FF0
FF00000FF0
FF00000FF0
FF00000FF0
FF00000FF0
FF00000FF0
FF00000FF0
FF00000FF0
FF00000FF0
FF80000FF0
FFC0000FF0
7FF0000FF0
7FFFFFFFF0
3FFFFFFFF0
3FFFFFFFF0
1FFFFFFFF0
07FFFFFFF0
01FFFFFFF0
ENDCHAR
STARTCHAR 0062
ENCODING 98
SWIDTH 467 0
DWIDTH 51 0
BBX 36 77 8 0
BITMAP
FF00000000
FF00000000
FF00000000
FF00000000
FF00000000
FF00000000
FF00000000
FF00000000
FF00000000
FF00000000
FF00000000
FF00000000
FF00000000
FF00000000
FF00000000
FF00000000
FF00000000
FF00000000
FF00000000
FF00000000
FF00000000
FF00000000
FFFFFFF800
FFFFFFFE00
FFFFFFFF80
FFFFFFFFC0
FFFFFFFFC0
FFFFFFFFE0
FF0001FFE0
FF00003FF0
FF00001FF0
FF00000FF0
FF00000FF0
FF00000FF0
FF00000FF0
FF00000FF0
FF00000FF0
FF00000FF0
FF00000FF0
FF00000FF0
FF00000FF0
FF00000FF0
FF00000FF0
FF00000FF0
FF00000FF0
FF00000FF0
FF00000FF0
FF00000FF0
FF00000FF0
FF00000FF0
FF00000FF0
FF00000FF0
FF00000FF0
FF00000FF0
FF00000FF0
FF00000FF0
FF00000FF0
FF00000FF0
FF00000FF0
FF00000FF0
FF00000FF0
FF00000FF0
FF00000FF0
FF00000FF0
FF00000FF0
FF00000FF0
FF00000FF0
FF00000FF0
FF00001FF0
FF00001FF0
FF0000FFE0
FFFFFFFFE0
FFFFFFFFC0
FFFFFFFFC0
FFFFFFFF80
FFFFFFFE00
FFFFFFF800
ENDCHAR
STARTCHAR 0063
ENCODING 99
SWIDTH 385 0
DWIDTH 42 0
BBX 32 55 8 0
BITMAP
01FFFFFF
07FFFFFF
1FFFFFFF
3FFFFFFF
3FFFFFFF
7FFFFFFF
7FFFFFFF
FFC00000
FF800000
FF000000
FF000000
FF000000
FF000000
FF000000
FF000000
FF000000
FF000000
FF000000
FF000000
FF000000
FF000000
FF000000
FF000000
FF000000
FF000000
FF000000
FF000000
FF000000
FF000000
FF000000
FF000000
FF000000
FF000000
FF000000
FF000000
FF000000
FF000000
FF000000
FF000000
FF000000
FF000000
FF000000
FF000000
FF000000
FF000000
FF000000
FF800000
FFC00000
7FF8000F
7FFFFFFF
3FFFFFFF
3FFFFFFF
1FFFFFFF
07FFFFFF
01FFFFFF
ENDCHAR
STARTCHAR 0064
ENCODING 100
SWIDTH 467 0
DWIDTH 51 0
BBX 36 77 8 0
BITMAP
0000000FF0
0000000FF0
0000000FF0
0000000FF0
0000000FF0
0000000FF0
0000000FF0
0000000FF0
0000000FF0
0000000FF0
0000000FF0
0000000FF0
0000000FF0
0000000FF0
0000000FF0
0000000FF0
0000000FF0
0000000FF0
0000000FF0
0000000FF0
0000000FF0
0000000FF0
01FFFFFFF0
07FFFFFFF0
1FFFFFFFF0
3FFFFFFFF0
3FFFFFFFF0
7FFFFFFFF0
7FF8000FF0
FFC0000FF0
FF80000FF0
FF00000FF0
FF00000FF0
FF00000FF0
FF00000FF0
FF00000FF0
FF00000FF0
FF00000FF0
FF00000FF0
FF00000FF0
FF00000FF0
FF00000FF0
FF00000FF0
FF00000FF0
FF00000FF0
FF00000FF0
FF00000FF0
FF00000FF0
FF00000FF0
FF00000FF0
FF00000FF0
FF00000FF0
FF00000FF0
FF00000FF0
FF00000FF0
FF00000FF0
FF00000FF0
FF00000FF0
FF00000FF0
FF00000FF0
FF00000FF0
FF00000FF0
FF00000FF0
FF00000FF0
FF00000FF0
FF00000FF0
FF00000FF0
FF00000FF0
FF80000FF0
FFC0000FF0
7FF0000FF0
7FFFFFFFF0
3FFFFFFFF0
3FFFFFFFF0
1FFFFFFFF0
07FFFFFFF0
01FFFFFFF0
ENDCHAR
STARTCHAR 0065
ENCODING 101
SWIDTH 449 0
DWIDTH 49 0
BBX 36 55 8 0
BITMAP
01FFFFF800
07FFFFFE00
1FFFFFFF80
3FFFFFFFC0
3FFFFFFFC0
7FFFFFFFE0
7FE0007FE0
FF80001FF0
FF80001FF0
FF00000FF0
FF00000FF0
FF00000FF0
FF00000FF0
FF00000FF0
FF00000FF0
FF00000FF0
FF00000FF0
FF00000FF0
FF00000FF0
FF00000FF0
FFFFFFFFF0
FFFFFFFFF0
FFFFFFFFF0
FFFFFFFFF0
FFFFFFFFF0
FFFFFFFFF0
FF00000000
FF00000000
FF00000000
FF00000000
FF00000000
FF00000000
FF00000000
FF00000000
FF00000000
FF00000000
FF00000000
FF00000000
FF00000000
FF00000000
FF00000000
FF00000000
FF00000000
FF00000000
FF00000000
FF00000000
FF80000000
FFC0000000
7FF0000070
7FFFFFFFF0
3FFFFFFFF0
3FFFFFFFF0
1FFFFFFFF0
07FFFFFFF0
01FFFFFFF0
ENDCHAR
STARTCHAR 0066
ENCODING 102
SWIDTH 275 0
DWIDTH 30 0
BBX 23 77 8 0
BITMAP
01FFFE
07FFFE
1FFFFE
3FFFFE
3FFFFE
7FFFFE
7FF83E
FFC000
FF8000
FF0000
FF0000
FF0000
FF0000
FF0000
FF0000
FF0000
FF0000
FF0000
FF0000
FF0000
FF0000
FF0000
FFFFFE
FFFFFE
FFFFFE
FFFFFE
FFFFFE
FFFFFE
FF0000
FF0000
FF0000
FF0000
FF0000
FF0000
FF0000
FF0000
FF0000
FF0000
FF0000
FF0000
FF0000
FF0000
FF0000
FF0000
FF0000
FF0000
FF0000
FF0000
FF0000
FF0000
FF0000
FF0000
FF0000
FF0000
FF0000
FF0000
FF0000
FF0000
FF0000
FF0000
FF0000
FF0000
FF0000
FF0000
FF0000
FF0000
FF0000
FF0000
FF0000
FF0000
FF0000
FF0000
FF0000
FF0000
FF0000
FF0000
FF0000
ENDCHAR
STARTCHAR 0067
ENCODING 103
SWIDTH 467 0
DWIDTH 51 0
BBX 36 77 8 -22
BITMAP
01FFFFFFF0
07FFFFFFF0
1FFFFFFFF0
3FFFFFFFF0
3FFFFFFFF0
7FFFFFFFF0
7FF8000FF0
FFC0000FF0
FF80000FF0
FF00000FF0
FF00000FF0
FF00000FF0
FF00000FF0
FF00000FF0
FF00000FF0
FF00000FF0
FF00000FF0
FF00000FF0
FF00000FF0
FF00000FF0
FF00000FF0
FF00000FF0
FF00000FF0
FF00000FF0
FF00000FF0
FF00000FF0
FF00000FF0
FF00000FF0
FF00000FF0
FF00000FF0
FF00000FF0
FF00000FF0
FF00000FF0
FF00000FF0
FF00000FF0
FF00000FF0
FF00000FF0
FF00000FF0
FF00000FF0
FF00000FF0
FF00000FF0
FF00000FF0
FF00000FF0
FF00000FF0
FF00000FF0
FF00000FF0
FF80000FF0
FFC0000FF0
7FF0000FF0
7FFFFFFFF0
3FFFFFFFF0
3FFFFFFFF0
1FFFFFFFF0
07FFFFFFF0
01FFFFFFF0
0000000FF0
0000000FF0
0000000FF0
0000000FF0
0000000FF0
0000000FF0
0000000FF0
0000000FF0
0000000FF0
0000000FF0
0000000FF0
0000000FF0
0000000FF0
0000001FF0
0000003FF0
E00001FFE0
FFFFFFFFE0
FFFFFFFFC0
FFFFFFFFC0
FFFFFFFF80
FFFFFFFE00
FFFFFFF800
ENDCHAR
STARTCHAR 0068
ENCODING 104
SWIDTH 467 0
DWIDTH 51 0
BBX 36 77 8 0
BITMAP
FF00000000
FF00000000
FF00000000
FF00000000
FF00000000
FF00000000
FF00000000
FF00000000
FF00000000
FF00000000
FF00000000
FF00000000
FF00000000
FF00000000
FF00000000
FF00000000
FF00000000
FF00000000
FF00000000
FF00000000
FF00000000
FF00000000
FFFFFFF800
FFFFFFFE00
FFFFFFFF80
FFFFFFFFC0
FFFFFFFFC0
FFFFFFFFE0
FF0001FFE0
FF00003FF0
FF00001FF0
FF00000FF0
FF00000FF0
FF00000FF0
FF00000FF0
FF00000FF0
FF00000FF0
FF00000FF0
FF00000FF0
FF00000FF0
FF00000FF0
FF00000FF0
FF00000FF0
FF00000FF0
FF00000FF0
FF00000FF0
FF00000FF0
FF00000FF0
FF00000FF0
FF00000FF0
FF00000FF0
FF00000FF0
FF00000FF0
FF00000FF0
FF00000FF0
FF00000FF0
FF00000FF0
FF00000FF0
FF00000FF0
FF00000FF0
FF00000FF0
FF00000FF0
FF00000FF0
FF00000FF0
FF00000FF0
FF00000FF0
FF00000FF0
FF00000FF0
FF00000FF0
FF00000FF0
FF00000FF0
FF00000FF0
FF00000FF0
FF00000FF0
FF00000FF0
FF00000FF0
FF00000FF0
ENDCHAR
STARTCHAR 0069
ENCODING 105
SWIDTH 211 0
DWIDTH 23 0
BBX 8 71 8 0
BITMAP
FF
FF
FF
FF
FF
FF
FF
FF
00
00
00
00
00
00
00
00
FF
FF
FF
FF
FF
FF
FF
FF
FF
FF
FF
FF
FF
FF
FF
FF
FF
FF
FF
FF
FF
FF
FF
FF
FF
FF
FF
FF
FF
FF
FF
FF
FF
FF
FF
FF
FF
FF
FF
FF
FF
FF
FF
FF
FF
FF
FF
FF
FF
FF
FF
FF
FF
FF
FF
ENDCHAR
STARTCHAR 006A
ENCODING 106
SWIDTH 211 0
DWIDTH 23 0
BBX 12 93 4 -22
BITMAP
0FF0
0FF0
0FF0
0FF0
0FF0
0FF0
0FF0
0FF0
0000
0000
0000
0000
0000
0000
0000
0000
0FF0
0FF0
0FF0
0FF0
0FF0
0FF0
0FF0
0FF0
0FF0
0FF0
0FF0
0FF0
0FF0
0FF0
0FF0
0FF0
0FF0
0FF0
0FF0
0FF0
0FF0
0FF0
0FF0
0FF0
0FF0
0FF0
0FF0
0FF0
0FF0
0FF0
0FF0
0FF0
0FF0
0FF0
0FF0
0FF0
0FF0
0FF0
0FF0
0FF0
0FF0
0FF0
0FF0
0FF0
0FF0
0FF0
0FF0
0FF0
0FF0
0FF0
0FF0
0FF0
0FF0
0FF0
0FF0
0FF0
0FF0
0FF0
0FF0
0FF0
0FF0
0FF0
0FF0
1FE0
1FE0
1FE0
1FE0
1FE0
1FE0
3FC0
3FC0
3FC0
3FC0
7F80
7F80
7F80
FF00
ENDCHAR
STARTCHAR 006B
ENCODING 107
SWIDTH 449 0
DWIDTH 49 0
BBX 38 77 8 0
BITMAP
FF00000000
FF00000000
FF00000000
FF00000000
FF00000000
FF00000000
FF00000000
FF00000000
FF00000000
FF00000000
FF00000000
FF00000000
FF00000000
FF00000000
FF00000000
FF00000000
FF00000000
FF00000000
FF00000000
FF00000000
FF00000000
FF00000000
FF000007F8
FF00000FF0
FF00000FF0
FF00001FE0
FF00001FE0
FF00001FE0
FF00003FC0
FF00003FC0
FF00007F80
FF00007F80
FF0000FF00
FF0000FF00
FF0001FE00
FF0001FE00
FF0001FC00
FF0003FC00
FF0003FC00
FF0007F800
FF0007F800
FF000FF000
FF001FF000
FF003FE000
FFFFFFC000
FFFFFF8000
FFFFFF0000
FFFFFF8000
FFFFFFC000
FFFFFFE000
FF003FE000
FF001FF000
FF000FF000
FF0007F000
FF0007F800
FF0007F800
FF0003FC00
FF0003FC00
FF0001FE00
FF0001FE00
FF0001FE00
FF0000FF00
FF0000FF00
FF00007F80
FF00007F80
FF00007F80
FF00003FC0
FF00003FC0
FF00003FE0
FF00001FE0
FF00001FF0
FF00000FF0
FF00000FF0
FF00000FF8
FF000007F8
FF000007FC
FF000007FC
ENDCHAR
STARTCHAR 006C
ENCODING 108
SWIDTH 211 0
DWIDTH 23 0
BBX 8 77 8 0
BITMAP
FF
FF
FF
FF
FF
FF
FF
FF
FF
FF
FF
FF
FF
FF
FF
FF
FF
FF
FF
FF
FF
FF
FF
FF
FF
FF
FF
FF
FF
FF
FF
FF
FF
FF
FF
FF
FF
FF
FF
FF
FF
FF
FF
FF
FF
FF
FF
FF
FF
FF
FF
FF
FF
FF
FF
FF
FF
FF
FF
FF
FF
FF
FF
FF
FF
FF
FF
FF
FF
FF
FF
FF
FF
FF
FF
FF
FF
ENDCHAR
STARTCHAR 006D
ENCODING 109
SWIDTH 678 0
DWIDTH 74 0
BBX 59 55 8 0
BITMAP
FFFFFE001FFFF000
FFFFFFC07FFFFC00
FFFFFFE0FFFFFF00
FFFFFFF1FFFFFF80
FFFFFFFBFFFFFF80
FFFFFFFBFFFFFFC0
FF000FFBFC03FFC0
FF0001FFE0007FE0
FF0000FFC0003FE0
FF00007F80001FE0
FF00007F80001FE0
FF00007F80001FE0
FF00007F80001FE0
FF00007F80001FE0
FF00007F80001FE0
FF00007F80001FE0
FF00007F80001FE0
FF00007F80001FE0
FF00007F80001FE0
FF00007F80001FE0
FF00007F80001FE0
FF00007F80001FE0
FF00007F80001FE0
FF00007F80001FE0
FF00007F80001FE0
FF00007F80001FE0
FF00007F80001FE0
FF00007F80001FE0
FF00007F80001FE0
FF00007F80001FE0
FF00007F80001FE0
FF00007F80001FE0
FF00007F80001FE0
FF00007F80001FE0
FF00007F80001FE0
FF00007F80001FE0
FF00007F80001FE0
FF00007F80001FE0
FF00007F80001FE0
FF00007F80001FE0
FF00007F80001FE0
FF00007F80001FE0
FF00007F80001FE0
FF00007F80001FE0
FF00007F80001FE0
FF00007F80001FE0
FF00007F80001FE0
FF00007F80001FE0
FF00007F80001FE0
FF00007F80001FE0
FF00007F80001FE0
FF00007F80001FE0
FF00007F80001FE0
FF00007F80001FE0
FF00007F80001FE0
ENDCHAR
STARTCHAR 006E
ENCODING 110
SWIDTH 467 0
DWIDTH 51 0
BBX 36 55 8 0
BITMAP
FFFFFFF800
FFFFFFFE00
FFFFFFFF80
FFFFFFFFC0
FFFFFFFFC0
FFFFFFFFE0
FF0001FFE0
FF00003FF0
FF00001FF0
FF00000FF0
FF00000FF0
FF00000FF0
FF00000FF0
FF00000FF0
FF00000FF0
FF00000FF0
FF00000FF0
FF00000FF0
FF00000FF0
FF00000FF0
FF00000FF0
FF00000FF0
FF00000FF0
FF00000FF0
FF00000FF0
FF00000FF0
FF00000FF0
FF00000FF0
FF00000FF0
FF00000FF0
FF00000FF0
FF00000FF0
FF00000FF0
FF00000FF0
FF00000FF0
FF00000FF0
FF00000FF0
FF00000FF0
FF00000FF0
FF00000FF0
FF00000FF0
FF00000FF0
FF00000FF0
FF00000FF0
FF00000FF0
FF00000FF0
FF00000FF0
FF00000FF0
FF00000FF0
FF00000FF0
FF00000FF0
FF00000FF0
FF00000FF0
FF00000FF0
FF00000FF0
ENDCHAR
STARTCHAR 006F
ENCODING 111
SWIDTH 467 0
DWIDTH 51 0
BBX 36 55 8 0
BITMAP
01FFFFF800
07FFFFFE00
1FFFFFFF80
3FFFFFFFC0
3FFFFFFFC0
7FFFFFFFE0
7FF801FFE0
FFC0003FF0
FF80001FF0
FF00000FF0
FF00000FF0
FF00000FF0
FF00000FF0
FF00000FF0
FF00000FF0
FF00000FF0
FF00000FF0
FF00000FF0
FF00000FF0
FF00000FF0
FF00000FF0
FF00000FF0
FF00000FF0
FF00000FF0
FF00000FF0
FF00000FF0
FF00000FF0
FF00000FF0
FF00000FF0
FF00000FF0
FF00000FF0
FF00000FF0
FF00000FF0
FF00000FF0
FF00000FF0
FF00000FF0
FF00000FF0
FF00000FF0
FF00000FF0
FF00000FF0
FF00000FF0
FF00000FF0
FF00000FF0
FF00000FF0
FF00000FF0
FF00000FF0
FF80001FF0
FFC0001FF0
7FF000FFE0
7FFFFFFFE0
3FFFFFFFC0
3FFFFFFFC0
1FFFFFFF80
07FFFFFE00
01FFFFF800
ENDCHAR
STARTCHAR 0070
ENCODING 112
SWIDTH 467 0
DWIDTH 51 0
BBX 36 77 8 -22
BITMAP
FFFFFFF800
FFFFFFFE00
FFFFFFFF80
FFFFFFFFC0
FFFFFFFFC0
FFFFFFFFE0
FF0001FFE0
FF00003FF0
FF00001FF0
FF00000FF0
FF00000FF0
FF00000FF0
FF00000FF0
FF00000FF0
FF00000FF0
FF00000FF0
FF00000FF0
FF00000FF0
FF00000FF0
FF00000FF0
FF00000FF0
FF00000FF0
FF00000FF0
FF00000FF0
FF00000FF0
FF00000FF0
FF00000FF0
FF00000FF0
FF00000FF0
FF00000FF0
FF00000FF0
FF00000FF0
FF00000FF0
FF00000FF0
FF00000FF0
FF00000FF0
FF00000FF0
FF00000FF0
FF00000FF0
FF00000FF0
FF00000FF0
FF00000FF0
FF00000FF0
FF00000FF0
FF00000FF0
FF00000FF0
FF00001FF0
FF00001FF0
FF0000FFE0
FFFFFFFFE0
FFFFFFFFC0
FFFFFFFFC0
FFFFFFFF80
FFFFFFFE00
FFFFFFF800
FF00000000
FF00000000
FF00000000
FF00000000
FF00000000
FF00000000
FF00000000
FF00000000
FF00000000
FF00000000
FF00000000
FF00000000
FF00000000
FF00000000
FF00000000
FF00000000
FF00000000
FF00000000
FF00000000
FF00000000
FF00000000
FF00000000
ENDCHAR
STARTCHAR 0071
ENCODING 113
SWIDTH 467 0
DWIDTH 51 0
BBX 36 77 8 -22
BITMAP
01FFFFFFF0
07FFFFFFF0
1FFFFFFFF0
3FFFFFFFF0
3FFFFFFFF0
7FFFFFFFF0
7FF8000FF0
FFC0000FF0
FF80000FF0
FF00000FF0
FF00000FF0
FF00000FF0
FF00000FF0
FF00000FF0
FF00000FF0
FF00000FF0
FF00000FF0
FF00000FF0
FF00000FF0
FF00000FF0
FF00000FF0
FF00000FF0
FF00000FF0
FF00000FF0
FF00000FF0
FF00000FF0
FF00000FF0
FF00000FF0
FF00000FF0
FF00000FF0
FF00000FF0
FF00000FF0
FF00000FF0
FF00000FF0
FF00000FF0
FF00000FF0
FF00000FF0
FF00000FF0
FF00000FF0
FF00000FF0
FF00000FF0
FF00000FF0
FF00000FF0
FF00000FF0
FF00000FF0
FF00000FF0
FF80000FF0
FFC0000FF0
7FF0000FF0
7FFFFFFFF0
3FFFFFFFF0
3FFFFFFFF0
1FFFFFFFF0
07FFFFFFF0
01FFFFFFF0
0000000FF0
0000000FF0
0000000FF0
0000000FF0
0000000FF0
0000000FF0
0000000FF0
0000000FF0
0000000FF0
0000000FF0
0000000FF0
0000000FF0
0000000FF0
0000000FF0
0000000FF0
0000000FF0
0000000FF0
0000000FF0
0000000FF0
0000000FF0
0000000FF0
0000000FF0
ENDCHAR
STARTCHAR 0072
ENCODING 114
SWIDTH 302 0
DWIDTH 33 0
BBX 24 55 8 0
BITMAP
FF0FFF
FF1FFF
FF3FFF
FF7FFF
FFFFFF
FFFFFF
FFFFFF
FFE000
FFC000
FF8000
FF8000
FF0000
FF0000
FF0000
FF0000
FF0000
FF0000
FF0000
FF0000
FF0000
FF0000
FF0000
FF0000
FF0000
FF0000
FF0000
FF0000
FF0000
FF0000
FF0000
FF0000
FF0000
FF0000
FF0000
FF0000
FF0000
FF0000
FF0000
FF0000
FF0000
FF0000
FF0000
FF0000
FF0000
FF0000
FF0000
FF0000
FF0000
FF0000
FF0000
FF0000
FF0000
FF0000
FF0000
FF0000
ENDCHAR
STARTCHAR 0073
ENCODING 115
SWIDTH 403 0
DWIDTH 44 0
BBX 33 55 6 0
BITMAP
00FFFFFF80
07FFFFFF80
0FFFFFFF80
1FFFFFFF80
3FFFFFFF80
7FFFFFFF80
7FF8000780
FFC0000000
FF80000000
FF00000000
FF00000000
FF00000000
FF00000000
FF00000000
FF00000000
FF80000000
FF80000000
7FC0000000
7FE0000000
7FF0000000
3FFC000000
1FFF000000
0FFF800000
07FFE00000
03FFF00000
00FFFC0000
007FFE0000
001FFF8000
0007FFC000
0003FFF000
0000FFF800
00007FFC00
00001FFE00
00000FFF00
000003FF00
000001FF00
000000FF80
000000FF80
0000007F80
0000007F80
0000007F80
0000007F80
0000007F80
0000007F80
0000007F80
0000007F80
000000FF80
000001FF80
F0000FFF00
FFFFFFFF00
FFFFFFFE00
FFFFFFFE00
FFFFFFFC00
FFFFFFF000
FFFFFFC000
ENDCHAR
STARTCHAR 0074
ENCODING 116
SWIDTH 302 0
DWIDTH 33 0
BBX 22 70 8 0
BITMAP
010000
030000
0F0000
3F0000
FF0000
FF0000
FF0000
FF0000
FF0000
FF0000
FF0000
FF0000
FF0000
FF0000
FF0000
FFFFFC
FFFFFC
FFFFFC
FFFFFC
FFFFFC
FFFFFC
FF0000
FF0000
FF0000
FF0000
FF0000
FF0000
FF0000
FF0000
FF0000
FF0000
FF0000
FF0000
FF0000
FF0000
FF0000
FF0000
FF0000
FF0000
FF0000
FF0000
FF0000
FF0000
FF0000
FF0000
FF0000
FF0000
FF0000
FF0000
FF0000
FF0000
FF0000
FF0000
FF0000
FF0000
FF0000
FF0000
FF0000
FF0000
FF0000
FF8000
FF8000
FFC000
7FFFFC
7FFFFC
3FFFFC
3FFFFC
1FFFFC
07FFFC
01FFFC
ENDCHAR
STARTCHAR 0075
ENCODING 117
SWIDTH 467 0
DWIDTH 51 0
BBX 36 55 8 0
BITMAP
FF00000FF0
FF00000FF0
FF00000FF0
FF00000FF0
FF00000FF0
FF00000FF0
FF00000FF0
FF00000FF0
FF00000FF0
FF00000FF0
FF00000FF0
FF00000FF0
FF00000FF0
FF00000FF0
FF00000FF0
FF00000FF0
FF00000FF0
FF00000FF0
FF00000FF0
FF00000FF0
FF00000FF0
FF00000FF0
FF00000FF0
FF00000FF0
FF00000FF0
FF00000FF0
FF00000FF0
FF00000FF0
FF00000FF0
FF00000FF0
FF00000FF0
FF00000FF0
FF00000FF0
FF00000FF0
FF00000FF0
FF00000FF0
FF00000FF0
FF00000FF0
FF00000FF0
FF00000FF0
FF00000FF0
FF00000FF0
FF00000FF0
FF00000FF0
FF00000FF0
FF00000FF0
FF80000FF0
FFC0000FF0
7FF0000FF0
7FFFFFFFF0
3FFFFFFFF0
3FFFFFFFF0
1FFFFFFFF0
07FFFFFFF0
01FFFFFFF0
ENDCHAR
STARTCHAR 0076
ENCODING 118
SWIDTH 412 0
DWIDTH 45 0
BBX 42 55 1 0
BITMAP
FF8000003FC0
FF8000007FC0
7F8000007F80
7F8000007F80
7FC000007F80
3FC00000FF00
3FC00000FF00
3FE00000FF00
1FE00000FE00
1FE00001FE00
1FE00001FE00
1FF00001FE00
0FF00003FC00
0FF00003FC00
0FF00003FC00
07F80003F800
07F80007F800
07F80007F800
03FC0007F000
03FC0007F000
03FC000FF000
03FC000FF000
01FE000FE000
01FE000FE000
01FE001FE000
00FE001FC000
00FF001FC000
00FF003FC000
007F003F8000
007F003F8000
007F803F8000
007F807F8000
003F807F0000
003FC07F0000
003FC07F0000
001FC0FE0000
001FC0FE0000
001FE0FE0000
001FE0FC0000
000FE1FC0000
000FE1FC0000
000FF1FC0000
0007F3F80000
0007F3F80000
0007FBF80000
0003FBF00000
0003FFF00000
0003FFF00000
0003FFE00000
0001FFE00000
0001FFE00000
0001FFE00000
0000FFC00000
0000FFC00000
0000FFC00000
ENDCHAR
STARTCHAR 0077
ENCODING 119
SWIDTH 642 0
DWIDTH 70 0
BBX 65 55 2 0
BITMAP
FF00000FF800007F80
FF80000FF800007F80
7F80000FF80000FF00
7F80000FF80000FF00
7F80000FFC0000FF00
7FC0000FFC0000FF00
3FC0001FFC0001FE00
3FC0001FFC0001FE00
3FC0001FFC0001FE00
3FE0001FFE0001FC00
1FE0001FFE0003FC00
1FE0003F7E0003FC00
1FE0003F7E0003FC00
0FF0003F7E0003F800
0FF0003F7F0003F800
0FF0003E7F0007F800
0FF0007E3F0007F800
07F0007E3F0007F000
07F8007E3F0007F000
07F8007E3F800FF000
07F8007C3F800FE000
03F800FC1F800FE000
03FC00FC1F800FE000
03FC00FC1F801FE000
03FC00FC1FC01FC000
01FC00F81FC01FC000
01FE01F80FC01FC000
01FE01F80FC03FC000
01FE01F80FC03F8000
00FE01F80FE03F8000
00FF01F00FE03F8000
00FF03F007E03F8000
007F03F007E07F0000
007F03F007E07F0000
007F03F007F07F0000
007F83E007F07E0000
003F87E003F0FE0000
003F87E003F0FE0000
003F87E003F0FE0000
003FC7E003F8FC0000
001FC7C003F9FC0000
001FCFC001F9FC0000
001FCFC001F9FC0000
001FEFC001F9F80000
000FEFC001F9F80000
000FEF8001FFF80000
000FFF8000FFF00000
0007FF8000FFF00000
0007FF8000FFF00000
0007FF8000FFF00000
0007FF0000FFE00000
0003FF00007FE00000
0003FF00007FE00000
0003FF00007FE00000
0003FF00007FC00000
ENDCHAR
STARTCHAR 0078
ENCODING 120
SWIDTH 431 0
DWIDTH 47 0
BBX 42 55 2 0
BITMAP
FF8000007FC0
7FC000007F80
3FC00000FF00
3FE00000FF00
1FE00001FE00
1FF00003FE00
0FF80003FC00
07F80007F800
07FC0007F800
03FC000FF000
03FE000FF000
01FE001FE000
00FF003FC000
00FF803FC000
007F807F8000
007FC07F8000
003FC0FF0000
001FE0FE0000
001FE1FE0000
000FF3FC0000
000FFBF80000
0007FFF80000
0003FFF00000
0003FFF00000
0001FFE00000
0000FFC00000
0000FFC00000
00007F800000
0000FFC00000
0000FFE00000
0001FFE00000
0003FFF00000
0003FFF00000
0007FFF80000
0007F3FC0000
000FF3FC0000
001FE1FE0000
001FE1FE0000
003FC0FF0000
003F80FF8000
007F807F8000
00FF003FC000
00FF003FC000
01FE001FE000
01FE001FF000
03FC000FF000
07F8000FF800
07F80007F800
0FF00003FC00
1FF00003FE00
1FE00001FE00
3FE00001FF00
3FC00000FF80
7F800000FF80
FF8000007FC0
ENDCHAR
STARTCHAR 0079
ENCODING 121
SWIDTH 412 0
DWIDTH 45 0
BBX 42 77 1 -22
BITMAP
FF8000003FC0
FF8000007FC0
7F8000007F80
7F8000007F80
7FC000007F80
3FC00000FF00
3FC00000FF00
3FE00000FF00
1FE00000FE00
1FE00001FE00
1FE00001FE00
1FF00001FE00
0FF00001FC00
0FF00003FC00
0FF00003FC00
07F80003F800
07F80007F800
07F80007F800
03F80007F000
03FC0007F000
03FC000FF000
03FC000FF000
01FE000FE000
01FE000FE000
01FE001FE000
00FE001FC000
00FF001FC000
00FF001FC000
007F003F8000
007F003F8000
007F803F8000
007F803F0000
003F807F0000
003F807F0000
003FC07F0000
001FC0FE0000
001FC0FE0000
001FE0FE0000
001FE0FC0000
000FE1FC0000
000FE1FC0000
000FF1F80000
0007F1F80000
0007F3F80000
0007F3F80000
0003FBF00000
0003FBF00000
0003FFF00000
0003FFE00000
0001FFE00000
0001FFE00000
0001FFC00000
0000FFC00000
0000FFC00000
0000FFC00000
00003F800000
00007F800000
00007F800000
00007F000000
0000FF000000
0000FF000000
0000FE000000
0001FE000000
0001FE000000
0001FE000000
0003FC000000
0003FC000000
0007FC000000
0007F8000000
0007F8000000
000FF8000000
000FF0000000
000FF0000000
001FF0000000
001FE0000000
001FE0000000
003FE0000000
ENDCHAR
STARTCHAR 007A
ENCODING 122
SWIDTH 412 0
DWIDTH 45 0
BBX 37 55 4 0
BITMAP
FFFFFFFFF8
FFFFFFFFF8
FFFFFFFFF8
FFFFFFFFF8
FFFFFFFFF0
FFFFFFFFF0
E000000FE0
0000001FC0
0000003FC0
0000003F80
0000007F80
0000007F00
000000FE00
000001FE00
000001FC00
000003FC00
000003F800
000007F000
00000FF000
00000FE000
00001FE000
00003FC000
00003F8000
00007F8000
00007F0000
0000FF0000
0001FE0000
0001FC0000
0003FC0000
0007F80000
0007F80000
000FF00000
000FE00000
001FE00000
003FC00000
003FC00000
007F800000
007F000000
00FF000000
01FE000000
01FC000000
03FC000000
07F8000000
07F8000000
0FF0000000
0FE0000000
1FE0000000
3FC0000000
3FC0000038
7FFFFFFFF8
7FFFFFFFF8
FFFFFFFFF8
FFFFFFFFF8
FFFFFFFFF8
FFFFFFFFF8
ENDCHAR
STARTCHAR 007B
ENCODING 123
SWIDTH 330 0
DWIDTH 36 0
BBX 28 99 3 -22
BITMAP
00000FF0
0000FFF0
0003FFF0
000FFFF0
001FFFF0
003FFFF0
007FFFF0
00FFF800
00FFC000
01FF8000
01FF0000
01FE0000
01FE0000
03FE0000
03FC0000
03FC0000
03FC0000
03FC0000
03FC0000
03FC0000
03FC0000
03FC0000
03FC0000
03FC0000
03FC0000
03FC0000
03FC0000
03FC0000
03FC0000
03FC0000
03FC0000
03FC0000
03FC0000
03FC0000
03FC0000
03FC0000
03FC0000
03FC0000
03FC0000
03FC0000
03FC0000
07FC0000
07FC0000
0FF80000
3FF00000
FFF00000
FFC00000
FF800000
FFE00000
FFF00000
3FF80000
0FF80000
07FC0000
07FC0000
03FC0000
03FC0000
03FC0000
03FC0000
03FC0000
03FC0000
03FC0000
03FC0000
03FC0000
03FC0000
03FC0000
03FC0000
03FC0000
03FC0000
03FC0000
03FC0000
03FC0000
03FC0000
03FC0000
03FC0000
03FC0000
03FC0000
03FC0000
03FC0000
03FC0000
03FC0000
03FC0000
03FC0000
03FC0000
03FC0000
03FC0000
03FE0000
01FE0000
01FE0000
01FF0000
01FF8000
00FFC000
00FFF000
007FFFF0
003FFFF0
001FFFF0
000FFFF0
0003FFF0
0000FFF0
00000FF0
ENDCHAR
STARTCHAR 007C
ENCODING 124
SWIDTH 211 0
DWIDTH 23 0
BBX 8 99 8 -22
BITMAP
FF
FF
FF
FF
FF
FF
FF
FF
FF
FF
FF
FF
FF
FF
FF
FF
FF
FF
FF
FF
FF
FF
FF
FF
FF
FF
FF
FF
FF
FF
FF
FF
FF
FF
FF
FF
FF
FF
FF
FF
FF
FF
FF
FF
FF
FF
FF
FF
FF
FF
FF
FF
FF
FF
FF
FF
FF
FF
FF
FF
FF
FF
FF
FF
FF
FF
FF
FF
FF
FF
FF
FF
FF
FF
FF
FF
FF
FF
FF
FF
FF
FF
FF
FF
FF
FF
FF
FF
FF
FF
FF
FF
FF
FF
FF
FF
FF
FF
FF
ENDCHAR
STARTCHAR 007D
ENCODING 125
SWIDTH 330 0
DWIDTH 36 0
BBX 28 99 5 -22
BITMAP
FF000000
FFF00000
FFFE0000
FFFF0000
FFFF8000
FFFFC000
FFFFE000
01FFF000
003FF000
001FF800
000FF800
0007F800
0007FC00
0007FC00
0003FC00
0003FC00
0003FC00
0003FC00
0003FC00
0003FC00
0003FC00
0003FC00
0003FC00
0003FC00
0003FC00
0003FC00
0003FC00
0003FC00
0003FC00
0003FC00
0003FC00
0003FC00
0003FC00
0003FC00
0003FC00
0003FC00
0003FC00
0003FC00
0003FC00
0003FC00
0003FC00
0003FE00
0003FE00
0001FF00
0000FFC0
0000FFF0
00003FF0
00001FF0
00007FF0
0000FFF0
0000FFC0
0001FF00
0003FE00
0003FE00
0003FC00
0003FC00
0003FC00
0003FC00
0003FC00
0003FC00
0003FC00
0003FC00
0003FC00
0003FC00
0003FC00
0003FC00
0003FC00
0003FC00
0003FC00
0003FC00
0003FC00
0003FC00
0003FC00
0003FC00
0003FC00
0003FC00
0003FC00
0003FC00
0003FC00
0003FC00
0003FC00
0003FC00
0003FC00
0003FC00
0003FC00
0007FC00
0007F800
0007F800
000FF800
001FF800
003FF000
00FFF000
FFFFE000
FFFFC000
FFFF8000
FFFF0000
FFFC0000
FFF00000
FE000000
ENDCHAR
STARTCHAR 007E
ENCODING 126
SWIDTH 477 0
DWIDTH 52 0
BBX 42 18 5 47
BITMAP
00FC000007C0
07FF000007C0
0FFFC00007C0
1FFFF00007C0
1FFFF80007C0
3FFFFC0007C0
7FFFFE0007C0
7F07FF000FC0
7E01FFC00FC0
7C007FE01FC0
FC003FF83F80
FC001FFFFF80
F8000FFFFF80
F80003FFFF00
F80001FFFE00
F80000FFFE00
F800003FF800
F800000FE000
ENDCHAR
STARTCHAR 00A0
ENCODING 160
SWIDTH 266 0
DWIDTH 29 0
BBX 0 0 0 0
BITMAP
ENDCHAR
STARTCHAR 00A1
ENCODING 161
SWIDTH 201 0
DWIDTH 22 0
BBX 8 77 7 -22
BITMAP
FF
FF
FF
FF
FF
FF
FF
FF
FF
00
00
00
00
00
00
00
00
FF
FF
FF
FF
FF
FF
FF
FF
FF
FF
FF
FF
FF
FF
FF
FF
FF
FF
FF
FF
FF
FF
FF
FF
FF
FF
FF
FF
FF
FF
FF
FF
FF
FF
FF
FF
FF
FF
FF
FF
FF
FF
FF
FF
FF
FF
FF
FF
FF
FF
FF
FF
FF
FF
FF
FF
FF
FF
FF
FF
ENDCHAR
STARTCHAR 00A2
ENCODING 162
SWIDTH 376 0
DWIDTH 41 0
BBX 32 78 5 0
BITMAP
0001FC00
0001FC00
0001FC00
0001FC00
0001FC00
0001FC00
0001FC00
0001FC00
0001FC00
0001FC00
0001FC00
01FFFFFF
07FFFFFF
0FFFFFFF
1FFFFFFF
3FFFFFFF
7FFFFFFF
7FFFFFFF
7FE00000
FF800000
FF800000
FF000000
FF000000
FF000000
FF000000
FF000000
FF000000
FF000000
FF000000
FF000000
FF000000
FF000000
FF000000
FF000000
FF000000
FF000000
FF000000
FF000000
FF000000
FF000000
FF000000
FF000000
FF000000
FF000000
FF000000
FF000000
FF000000
FF000000
FF000000
FF000000
FF000000
FF000000
FF000000
FF000000
FF000000
FF000000
FF000000
FF000000
FF800000
FF800000
7FE00000
7FFFFFFF
3FFFFFFF
3FFFFFFF
1FFFFFFF
07FFFFFF
01FFFFFF
0001FC00
0001FC00
0001FC00
0001FC00
0001FC00
0001FC00
0001FC00
0001FC00
0001FC00
0001FC00
0001FC00
ENDCHAR
STARTCHAR 00A3
ENCODING 163
SWIDTH 458 0
DWIDTH 50 0
BBX 45 77 4 0
BITMAP
001FFFFC0000
007FFFFC0000
01FFFFFC0000
03FFFFFC0000
03FFFFFC0000
07FFFFFC0000
07FFFFFC0000
0FFE00040000
0FF800000000
0FF800000000
0FF000000000
0FF000000000
0FF000000000
0FF000000000
0FF000000000
0FF000000000
0FF000000000
0FF000000000
0FF000000000
0FF000000000
0FF000000000
0FF000000000
0FF000000000
0FF000000000
0FF000000000
0FF000000000
0FF000000000
0FF000000000
0FF000000000
0FF000000000
0FF000000000
0FF000000000
0FF000000000
0FF000000000
0FF000000000
0FF000000000
FFFFFFF80000
FFFFFFF80000
FFFFFFF80000
FFFFFFF80000
FFFFFFF80000
FFFFFFF80000
0FF000000000
0FF000000000
0FF000000000
0FF000000000
0FF000000000
0FF000000000
0FF000000000
0FF000000000
0FF000000000
0FF000000000
0FF000000000
0FF000000000
0FF000000000
0FF000000000
0FF000000000
0FF000000000
0FF000000000
0FF000000000
0FF000000000
0FF000000000
0FF000000000
0FF000000000
0FF000000000
0FF000000000
0FF000000000
0FF000000000
0FF000000000
0FF000000008
0FFFFFFFFFF8
0FFFFFFFFFF8
0FFFFFFFFFF8
0FFFFFFFFFF8
0FFFFFFFFFF8
0FFFFFFFFFF8
0FFFFFFFFFF8
ENDCHAR
STARTCHAR 00A4
ENCODING 164
SWIDTH 513 0
DWIDTH 56 0
BBX 52 77 2 1
BITMAP
7F000000000FF0
7F800000000FF0
3FC00000001FE0
3FC00000003FE0
1FE00000003FC0
1FF00000007FC0
1FF0000000FF80
0FF8000000FF80
0FFC000001FF00
07FC000003FF00
07FE000003FE00
03FF000007FE00
03FF00000FFC00
01FFFFFFFFFC00
01FFFFFFFFF800
00FFFFFFFFF800
00FFFFFFFFF000
00FFFFFFFFF000
00FFFFFFFFF000
00FFFFFFFFF000
00FFC0003FF000
00FF80001FF000
00FF80000FF000
00FF00000FF000
00FF00000FF000
00FF00000FF000
00FF00000FF000
00FF00000FF000
00FF00000FF000
00FF00000FF000
00FF00000FF000
00FF00000FF000
00FF00000FF000
00FF00000FF000
00FF00000FF000
00FF00000FF000
00FF00000FF000
00FF00000FF000
00FF00000FF000
00FF00000FF000
00FF00000FF000
00FF00000FF000
00FF00000FF000
00FF00000FF000
00FF00000FF000
00FF00000FF000
00FF00000FF000
00FF00000FF000
00FF00000FF000
00FF00000FF000
00FF00000FF000
00FF00000FF000
00FF00000FF000
00FF00000FF000
00FF80000FF000
00FF80001FF000
00FFC0003FF000
00FFFFFFFFF000
00FFFFFFFFF000
00FFFFFFFFF000
00FFFFFFFFF000
00FFFFFFFFF800
01FFFFFFFFF800
01FFFFFFFFFC00
03FF000007FC00
03FE000007FE00
07FE000003FE00
07FC000001FF00
0FF8000001FF00
0FF8000000FF80
1FF00000007F80
1FF00000007FC0
3FE00000003FC0
3FC00000001FE0
7FC00000001FE0
7F800000000FF0
FF000000000FF0
ENDCHAR
STARTCHAR 00A5
ENCODING 165
SWIDTH 522 0
DWIDTH 57 0
BBX 57 77 0 1
BITMAP
FFC000000000FF80
7FE000000001FF80
3FE000000001FF00
3FF000000003FE00
1FF000000003FE00
1FF800000007FC00
0FF80000000FFC00
0FFC0000000FF800
07FE0000001FF800
07FE0000001FF000
03FF0000003FE000
01FF0000003FE000
01FF8000007FC000
00FF8000007FC000
00FFC00000FF8000
007FC00000FF8000
007FE00001FF0000
003FE00001FF0000
001FF00003FE0000
001FF80007FC0000
000FF80007FC0000
000FFC000FF80000
0007FC000FF80000
0007FE001FF00000
0003FE001FF00000
0001FF003FE00000
0001FF003FE00000
0000FF807FC00000
0000FF807F800000
00007FC0FF800000
00007FC0FF000000
00003FE1FF000000
00001FF3FE000000
00001FF3FE000000
00000FFFFC000000
00000FFFFC000000
000007FFF8000000
000007FFF0000000
000003FFF0000000
000001FFE0000000
000001FFE0000000
000000FFC0000000
000000FFC0000000
0000007F80000000
0000007F80000000
0000007F80000000
0000007F80000000
0000007F80000000
0000007F80000000
00007FFFFF800000
00007FFFFF800000
00007FFFFF800000
00007FFFFF800000
00007FFFFF800000
00007FFFFF800000
0000007F80000000
0000007F80000000
0000007F80000000
0000007F80000000
0000007F80000000
0000007F80000000
0000007F80000000
0000007F80000000
0000007F80000000
0000007F80000000
0000007F80000000
0000007F80000000
0000007F80000000
0000007F80000000
0000007F80000000
0000007F80000000
0000007F80000000
0000007F80000000
0000007F80000000
0000007F80000000
0000007F80000000
0000007F80000000
ENDCHAR
STARTCHAR 00A7
ENCODING 167
SWIDTH 431 0
DWIDTH 47 0
BBX 36 99 6 -22
BITMAP
00FFFFFFF0
07FFFFFFF0
0FFFFFFFF0
1FFFFFFFF0
3FFFFFFFF0
7FFFFFFFF0
7FF80000F0
7FC0000000
FF80000000
FF00000000
FF00000000
FF00000000
FF00000000
FF00000000
FF00000000
FF00000000
FF00000000
FF80000000
FFC0000000
FFE0000000
FFF0000000
FFF8000000
FFFC000000
FFFF000000
FFFF800000
FFFFC00000
FF7FE00000
FF3FF00000
FF1FFC0000
FF0FFE0000
FF07FF0000
FF03FF8000
FF00FFE000
FF007FF000
FF003FF800
FF001FFC00
FF0007FF00
FF0003FF80
FF0001FF80
FF0000FFC0
FF00003FE0
FF00003FE0
FF00001FE0
FF00001FF0
FF00000FF0
FF00000FF0
FF00000FF0
FF00000FF0
FF00000FF0
FF00000FF0
FF00000FF0
FF00000FF0
7F80000FF0
7F80000FF0
7FC0000FF0
3FE0000FF0
3FF0000FF0
1FF8000FF0
0FFE000FF0
07FF000FF0
03FF800FF0
00FFC00FF0
007FF00FF0
003FF80FF0
001FFC0FF0
0007FE0FF0
0003FF8FF0
0001FFCFF0
0000FFEFF0
00007FEFF0
00001FFFF0
00000FFFF0
000007FFF0
000003FFF0
000001FFF0
0000007FF0
0000003FF0
0000001FF0
0000001FF0
0000000FF0
0000000FF0
0000000FF0
0000000FF0
0000000FF0
0000000FF0
0000000FF0
0000000FF0
0000000FF0
0000000FF0
0000000FF0
0000001FF0
0000003FF0
F00001FFE0
FFFFFFFFE0
FFFFFFFFC0
FFFFFFFFC0
FFFFFFFF80
FFFFFFFE00
FFFFFFF800
ENDCHAR
STARTCHAR 00A8
ENCODING 168
SWIDTH 348 0
DWIDTH 38 0
BBX 21 8 9 65
BITMAP
FC01F8
FC01F8
FC01F8
FC01F8
FC01F8
FC01F8
FC01F8
FC01F8
ENDCHAR
STARTCHAR 00A9
ENCODING 169
SWIDTH 669 0
DWIDTH 73 0
BBX 55 77 9 0
BITMAP
01FFFFFFFFFF00
07FFFFFFFFFFE0
1FFFFFFFFFFFF0
3FFFFFFFFFFFF8
3FFFFFFFFFFFF8
7F8000000003FC
7E0000000000FC
FE0000000000FE
FC00000000007E
FC00000000007E
FC00000000007E
FC00000000007E
FC00FFFFFFE07E
FC03FFFFFFE07E
FC07FFFFFFE07E
FC07FFFFFFE07E
FC0FFFFFFFE07E
FC0FF00000007E
FC0FE00000007E
FC0FC00000007E
FC0FC00000007E
FC0FC00000007E
FC0FC00000007E
FC0FC00000007E
FC0FC00000007E
FC0FC00000007E
FC0FC00000007E
FC0FC00000007E
FC0FC00000007E
FC0FC00000007E
FC0FC00000007E
FC0FC00000007E
FC0FC00000007E
FC0FC00000007E
FC0FC00000007E
FC0FC00000007E
FC0FC00000007E
FC0FC00000007E
FC0FC00000007E
FC0FC00000007E
FC0FC00000007E
FC0FC00000007E
FC0FC00000007E
FC0FC00000007E
FC0FC00000007E
FC0FC00000007E
FC0FC00000007E
FC0FC00000007E
FC0FC00000007E
FC0FC00000007E
FC0FC00000007E
FC0FC00000007E
FC0FC00000007E
FC0FC00000007E
FC0FC00000007E
FC0FC00000007E
FC0FC00000007E
FC0FC00000007E
FC0FE00000007E
FC0FF00000007E
FC0FFFFFFFE07E
FC07FFFFFFE07E
FC07FFFFFFE07E
FC03FFFFFFE07E
FC00FFFFFFE07E
FC00000000007E
FC00000000007E
FC00000000007E
FC00000000007E
FE0000000000FE
7F0000000000FC
7F8000000003FC
3FFFFFFFFFFFF8
3FFFFFFFFFFFF8
1FFFFFFFFFFFF0
07FFFFFFFFFFC0
01FFFFFFFFFF00
ENDCHAR
STARTCHAR 00AA
ENCODING 170
SWIDTH 458 0
DWIDTH 50 0
BBX 36 77 7 0
BITMAP
FFFFFFF800
FFFFFFFE00
FFFFFFFF80
FFFFFFFFC0
FFFFFFFFC0
FFFFFFFFE0
E00000FFE0
0000003FF0
0000001FF0
0000000FF0
0000000FF0
0000000FF0
0000000FF0
0000000FF0
0000000FF0
0000000FF0
0000000FF0
0000000FF0
0000000FF0
0000000FF0
01FFFFFFF0
07FFFFFFF0
1FFFFFFFF0
3FFFFFFFF0
3FFFFFFFF0
7FFFFFFFF0
7FC0000FF0
FF80000FF0
FF80000FF0
FF00000FF0
FF00000FF0
FF00000FF0
FF00000FF0
FF00000FF0
FF00000FF0
FF00000FF0
FF00000FF0
FF00000FF0
FF00000FF0
FF00000FF0
FF00000FF0
FF00000FF0
FF00000FF0
FF00000FF0
FF00000FF0
FF00000FF0
FF80000FF0
FF80000FF0
7FE0000FF0
7FFFFFFFF0
3FFFFFFFF0
3FFFFFFFF0
1FFFFFFFF0
07FFFFFFF0
01FFFFFFF0
0000000000
0000000000
0000000000
0000000000
0000000000
0000000000
0000000000
0000000000
0000000000
0000000000
0000000000
0000000000
0000000000
0000000000
0000000000
0000000000
FFFFFFFFF0
FFFFFFFFF0
FFFFFFFFF0
FFFFFFFFF0
FFFFFFFFF0
FFFFFFFFF0
ENDCHAR
STARTCHAR 00AB
ENCODING 171
SWIDTH 596 0
DWIDTH 65 0
BBX 57 49 4 8
BITMAP
0000000800000180
0000003800000380
0000007800000780
000000F800001F80
000003F800003F80
000007F800007F80
00000FF80001FF80
00001FF00003FF00
00007FE00007FE00
0000FFC0001FF800
0001FF80003FF000
0007FE00007FE000
000FFC0001FFC000
001FF80003FF8000
007FF00007FE0000
00FFE0001FFC0000
01FF80003FF80000
07FF00007FF00000
0FFE0001FFC00000
1FFC0003FF800000
7FF00007FF000000
FFE0000FFE000000
FFC0000FF8000000
FF80000FF0000000
FF00000FE0000000
FF80000FF8000000
FFC0000FFC000000
FFF0000FFE000000
7FF80007FF000000
3FFC0003FFC00000
0FFE0001FFE00000
07FF80007FF00000
03FFC0003FF80000
00FFE0001FFE0000
007FF00007FF0000
003FF80003FF8000
000FFE0001FFC000
0007FF00007FE000
0003FF80003FF800
0000FFC0001FFC00
00007FF00007FE00
00003FF80003FF00
00000FF80001FF80
000007F800007F80
000003F800003F80
000000F800001F80
0000007800000780
0000003800000380
0000000800000180
ENDCHAR
STARTCHAR 00AC
ENCODING 172
SWIDTH 467 0
DWIDTH 51 0
BBX 39 36 6 0
BITMAP
FFFFFFFFFE
FFFFFFFFFE
FFFFFFFFFE
FFFFFFFFFE
FFFFFFFFFE
FFFFFFFFFE
FFFFFFFFFE
00000001FE
00000001FE
00000001FE
00000001FE
00000001FE
00000001FE
00000001FE
00000001FE
00000001FE
00000001FE
00000001FE
00000001FE
00000001FE
00000001FE
00000001FE
00000001FE
00000001FE
00000001FE
00000001FE
00000001FE
00000001FE
00000001FE
00000001FE
00000001FE
00000001FE
00000001FE
00000001FE
00000001FE
00000001FE
ENDCHAR
STARTCHAR 00AE
ENCODING 174
SWIDTH 669 0
DWIDTH 73 0
BBX 55 77 9 0
BITMAP
01FFFFFFFFFF00
07FFFFFFFFFFE0
1FFFFFFFFFFFF0
3FFFFFFFFFFFF8
3FFFFFFFFFFFF8
7F8000000003FC
7E0000000000FC
FE0000000000FE
FC00000000007E
FC00000000007E
FC00000000007E
FC00000000007E
FC0FFFFFFE007E
FC0FFFFFFF807E
FC0FFFFFFFC07E
FC0FFFFFFFC07E
FC0FFFFFFFE07E
FC0FC0001FE07E
FC0FC0000FE07E
FC0FC00007E07E
FC0FC00007E07E
FC0FC00007E07E
FC0FC00007E07E
FC0FC00007E07E
FC0FC00007E07E
FC0FC00007E07E
FC0FC00007E07E
FC0FC00007E07E
FC0FC00007E07E
FC0FC00007E07E
FC0FC00007E07E
FC0FC00007E07E
FC0FC00007E07E
FC0FC0000FE07E
FC0FC0001FE07E
FC0FFFFFFFE07E
FC0FFFFFFFC07E
FC0FFFFFFFC07E
FC0FFFFFFF807E
FC0FFFFFFE007E
FC0FC003E0007E
FC0FC001F0007E
FC0FC001F0007E
FC0FC001F8007E
FC0FC000F8007E
FC0FC000FC007E
FC0FC0007C007E
FC0FC0007C007E
FC0FC0007E007E
FC0FC0003E007E
FC0FC0003F007E
FC0FC0001F007E
FC0FC0001F807E
FC0FC0001F807E
FC0FC0000F807E
FC0FC0000FC07E
FC0FC00007C07E
FC0FC00007E07E
FC0FC00007E07E
FC0FC00003E07E
FC0FC00003F07E
FC0FC00001F07E
FC0FC00001F87E
FC0FC00001F87E
FC0FC00000FC7E
FC00000000007E
FC00000000007E
FC00000000007E
FC00000000007E
FE0000000000FE
7F0000000000FC
7F8000000003FC
3FFFFFFFFFFFF8
3FFFFFFFFFFFF8
1FFFFFFFFFFFF0
07FFFFFFFFFFC0
01FFFFFFFFFF00
ENDCHAR
STARTCHAR 00AF
ENCODING 175
SWIDTH 376 0
DWIDTH 41 0
BBX 23 6 9 66
BITMAP
FFFFFE
FFFFFE
FFFFFE
FFFFFE
FFFFFE
FFFFFE
ENDCHAR
STARTCHAR 00B0
ENCODING 176
SWIDTH 330 0
DWIDTH 36 0
BBX 25 37 6 40
BITMAP
03FFE000
0FFFF800
1FFFFC00
3FFFFE00
7FFFFF00
7FFFFF00
7F007F80
FE003F80
FC001F80
FC001F80
FC001F80
FC001F80
FC001F80
FC001F80
FC001F80
FC001F80
FC001F80
FC001F80
FC001F80
FC001F80
FC001F80
FC001F80
FC001F80
FC001F80
FC001F80
FC001F80
FC001F80
FC001F80
FE001F80
FE003F80
FF007F80
7FFFFF00
7FFFFF00
3FFFFE00
1FFFFC00
0FFFF800
03FFE000
ENDCHAR
STARTCHAR 00B1
ENCODING 177
SWIDTH 458 0
DWIDTH 50 0
BBX 38 54 6 1
BITMAP
0000FC0000
0000FC0000
0000FC0000
0000FC0000
0000FC0000
0000FC0000
0000FC0000
0000FC0000
0000FC0000
0000FC0000
0000FC0000
0000FC0000
0000FC0000
0000FC0000
0000FC0000
0000FC0000
FFFFFFFFFC
FFFFFFFFFC
FFFFFFFFFC
FFFFFFFFFC
FFFFFFFFFC
FFFFFFFFFC
0000FC0000
0000FC0000
0000FC0000
0000FC0000
0000FC0000
0000FC0000
0000FC0000
0000FC0000
0000FC0000
0000FC0000
0000FC0000
0000FC0000
0000FC0000
0000FC0000
0000FC0000
0000FC0000
0000000000
0000000000
0000000000
0000000000
0000000000
0000000000
0000000000
0000000000
0000000000
FFFFFFFFFC
FFFFFFFFFC
FFFFFFFFFC
FFFFFFFFFC
FFFFFFFFFC
FFFFFFFFFC
FFFFFFFFFC
ENDCHAR
STARTCHAR 00B4
ENCODING 180
SWIDTH 330 0
DWIDTH 36 0
BBX 18 15 10 61
BITMAP
003FC0
007F80
00FF00
00FE00
01FC00
03F800
03F000
07F000
0FE000
1FC000
1F8000
3F0000
7E0000
FC0000
FC0000
ENDCHAR
STARTCHAR 00B5
ENCODING 181
SWIDTH 467 0
DWIDTH 51 0
BBX 36 77 8 -22
BITMAP
FF00000FF0
FF00000FF0
FF00000FF0
FF00000FF0
FF00000FF0
FF00000FF0
FF00000FF0
FF00000FF0
FF00000FF0
FF00000FF0
FF00000FF0
FF00000FF0
FF00000FF0
FF00000FF0
FF00000FF0
FF00000FF0
FF00000FF0
FF00000FF0
FF00000FF0
FF00000FF0
FF00000FF0
FF00000FF0
FF00000FF0
FF00000FF0
FF00000FF0
FF00000FF0
FF00000FF0
FF00000FF0
FF00000FF0
FF00000FF0
FF00000FF0
FF00000FF0
FF00000FF0
FF00000FF0
FF00000FF0
FF00000FF0
FF00000FF0
FF00000FF0
FF00000FF0
FF00000FF0
FF00000FF0
FF00000FF0
FF00000FF0
FF00000FF0
FF00000FF0
FF00000FF0
FF80000FF0
FFC0000FF0
FFF0000FF0
FFFFFFFFF0
FFFFFFFFF0
FFFFFFFFF0
FFFFFFFFF0
FFFFFFFFF0
FFFFFFFFF0
FF00000000
FF00000000
FF00000000
FF00000000
FF00000000
FF00000000
FF00000000
FF00000000
FF00000000
FF00000000
FF00000000
FF00000000
FF00000000
FF00000000
FF00000000
FF00000000
FF00000000
FF00000000
FF00000000
FF00000000
FF00000000
FF00000000
ENDCHAR
STARTCHAR 00B6
ENCODING 182
SWIDTH 522 0
DWIDTH 57 0
BBX 44 77 8 0
BITMAP
03FFFFFFFFF0
0FFFFFFFFFF0
1FFFFFFFFFF0
3FFFFFFFFFF0
3FFFFFFFFFF0
7FFFFFFFFFF0
7FFFFFFFFFF0
7FFFFFFFFFF0
FFFFFFFFFFF0
FFFFFFFFFFF0
FFFFFFFFFFF0
FFFFFFFFFFF0
FFFFFFFFFFF0
FFFFFFFFFFF0
FFFFFFFFFFF0
FFFFFFFFFFF0
FFFFFFFFFFF0
FFFFFFFFFFF0
FFFFFFFFFFF0
FFFFFFFFFFF0
FFFFFFFFFFF0
FFFFFFFFFFF0
FFFFFFFFFFF0
FFFFFFFFFFF0
FFFFFFFFFFF0
FFFFFFFFFFF0
FFFFFFFFFFF0
FFFFFFFFFFF0
FFFFFFFFFFF0
FFFFFFFFFFF0
FFFFFFFFFFF0
FFFFFFFFFFF0
FFFFFFFFFFF0
FFFFFFFFFFF0
7FFFFFFFFFF0
7FFFFFFFFFF0
7FFFFFFFFFF0
3FFFFFFFFFF0
3FFFFFFFFFF0
1FFFFFFFFFF0
07FFFFFFFFF0
01FFFFFFFFF0
000000000FF0
000000000FF0
000000000FF0
000000000FF0
000000000FF0
000000000FF0
000000000FF0
000000000FF0
000000000FF0
000000000FF0
000000000FF0
000000000FF0
000000000FF0
000000000FF0
000000000FF0
000000000FF0
000000000FF0
000000000FF0
000000000FF0
000000000FF0
000000000FF0
000000000FF0
000000000FF0
000000000FF0
000000000FF0
000000000FF0
000000000FF0
000000000FF0
000000000FF0
000000000FF0
000000000FF0
000000000FF0
000000000FF0
000000000FF0
000000000FF0
ENDCHAR
STARTCHAR 00B7
ENCODING 183
SWIDTH 201 0
DWIDTH 22 0
BBX 9 9 6 27
BITMAP
FF80
FF80
FF80
FF80
FF80
FF80
FF80
FF80
FF80
ENDCHAR
STARTCHAR 00B8
ENCODING 184
SWIDTH 348 0
DWIDTH 38 0
BBX 21 22 9 -21
BITMAP
01F000
01E000
03E000
03E000
03C000
07FF80
07FFE0
0FFFF0
0007F0
0003F8
0001F8
0001F8
0001F8
0001F8
0001F8
0001F8
0003F8
0007F8
7FFFF0
FFFFE0
FFFFC0
FFFF00
ENDCHAR
STARTCHAR 00BA
ENCODING 186
SWIDTH 467 0
DWIDTH 51 0
BBX 36 77 8 0
BITMAP
01FFFFF800
07FFFFFE00
1FFFFFFF80
3FFFFFFFC0
3FFFFFFFC0
7FFFFFFFE0
7FF801FFE0
FFC0003FF0
FF80001FF0
FF00000FF0
FF00000FF0
FF00000FF0
FF00000FF0
FF00000FF0
FF00000FF0
FF00000FF0
FF00000FF0
FF00000FF0
FF00000FF0
FF00000FF0
FF00000FF0
FF00000FF0
FF00000FF0
FF00000FF0
FF00000FF0
FF00000FF0
FF00000FF0
FF00000FF0
FF00000FF0
FF00000FF0
FF00000FF0
FF00000FF0
FF00000FF0
FF00000FF0
FF00000FF0
FF00000FF0
FF00000FF0
FF00000FF0
FF00000FF0
FF00000FF0
FF00000FF0
FF00000FF0
FF00000FF0
FF00000FF0
FF00000FF0
FF00000FF0
FF80001FF0
FF80001FF0
7FE0003FE0
7FFFFFFFE0
3FFFFFFFC0
3FFFFFFFC0
1FFFFFFF80
07FFFFFE00
01FFFFF800
0000000000
0000000000
0000000000
0000000000
0000000000
0000000000
0000000000
0000000000
0000000000
0000000000
0000000000
0000000000
0000000000
0000000000
0000000000
0000000000
FFFFFFFFF0
FFFFFFFFF0
FFFFFFFFF0
FFFFFFFFF0
FFFFFFFFF0
FFFFFFFFF0
ENDCHAR
STARTCHAR 00BB
ENCODING 187
SWIDTH 596 0
DWIDTH 65 0
BBX 57 49 4 8
BITMAP
C000000800000000
E000000E00000000
F000000F00000000
FC00000F80000000
FE00000FE0000000
FF00000FF0000000
FFC0000FF8000000
7FE0000FFE000000
3FF00007FF000000
1FFC0001FF800000
0FFE0000FFC00000
07FF00007FF00000
01FFC0003FF80000
00FFE0001FFC0000
007FF00007FF0000
003FFC0003FF8000
000FFE0001FFC000
0007FF0000FFF000
0003FFC0003FF800
0001FFE0001FFC00
0000FFF0000FFF00
00003FF80007FF80
00001FF80001FF80
00000FF80000FF80
000007F800007F80
000007F80000FF80
00000FF80001FF80
00003FF80003FF80
00007FF00007FF00
0000FFE0000FFE00
0001FFC0003FF800
0007FF00007FF000
000FFE0000FFE000
001FFC0001FF8000
003FF00007FF0000
007FE0000FFE0000
01FFC0001FF80000
03FF00003FF00000
07FE0000FFE00000
0FFC0001FF800000
3FF00003FF000000
7FE00007FE000000
FFC0000FF8000000
FF00000FF0000000
FE00000FE0000000
FC00000F80000000
F000000F00000000
E000000E00000000
C000000800000000
ENDCHAR
STARTCHAR 00BF
ENCODING 191
SWIDTH 403 0
DWIDTH 44 0
BBX 36 77 5 -22
BITMAP
00007F8000
00007F8000
00007F8000
00007F8000
00007F8000
00007F8000
00007F8000
00007F8000
00007F8000
0000000000
0000000000
0000000000
0000000000
0000000000
0000000000
0000000000
0000000000
00007F8000
00007F8000
00007F8000
00007F8000
00007F8000
00007F8000
00007F8000
00007F8000
00007F8000
00007F8000
00007F8000
00007F8000
00007F8000
00007F8000
00007F8000
00007F8000
00007F8000
00007F8000
00007F8000
00007F8000
00007F8000
00007F8000
00007F8000
0000FF8000
0000FF0000
0001FF0000
0003FE0000
0007FE0000
000FFC0000
001FF80000
007FF00000
00FFE00000
01FFC00000
03FF800000
07FF000000
0FFE000000
1FFC000000
1FF8000000
3FF0000000
7FE0000000
7FC0000000
7F80000000
FF80000000
FF00000000
FF00000000
FF00000000
FF00000000
FF00000000
FF00000000
FF00000000
FF00000000
FF80000000
FFC0000000
FFFFFFFFF0
7FFFFFFFF0
7FFFFFFFF0
3FFFFFFFF0
1FFFFFFFF0
0FFFFFFFF0
03FFFFFFF0
ENDCHAR
STARTCHAR 00C0
ENCODING 192
SWIDTH 504 0
DWIDTH 55 0
BBX 53 88 1 0
BITMAP
0001FFFFFC0000
0001FFFFFC0000
0001FFFFFC0000
0001FFFFFC0000
0001FFFFFC0000
00000000000000
00000000000000
00000000000000
00000000000000
00000000000000
00000000000000
000003FF000000
000007FF000000
000007FF000000
000007FF800000
00000FFF800000
00000FFF800000
00000FFF800000
00000FFFC00000
00001FFFC00000
00001FFFC00000
00001FDFE00000
00003FDFE00000
00003F9FE00000
00003F9FE00000
00003F8FF00000
00007F8FF00000
00007F0FF00000
00007F07F80000
0000FF07F80000
0000FF07F80000
0000FE07F80000
0000FE03FC0000
0001FE03FC0000
0001FE03FC0000
0001FC03FC0000
0001FC01FE0000
0003FC01FE0000
0003F801FE0000
0003F801FF0000
0007F800FF0000
0007F800FF0000
0007F000FF0000
0007F0007F8000
000FF0007F8000
000FF0007F8000
000FE0007FC000
001FE0003FC000
001FE0003FC000
001FC0003FC000
001FC0003FE000
003FC0001FE000
003FC0001FE000
003F80001FE000
007F80001FF000
007F80000FF000
007F80000FF000
007F00000FF800
00FF000007F800
00FF000007F800
00FF000007F800
01FE000007FC00
01FFFFFFFFFC00
01FFFFFFFFFC00
01FFFFFFFFFC00
03FFFFFFFFFE00
03FFFFFFFFFE00
03FFFFFFFFFE00
03FC000001FF00
07FC000001FF00
07F8000001FF00
07F8000001FF00
0FF8000000FF80
0FF8000000FF80
0FF0000000FF80
0FF00000007FC0
1FF00000007FC0
1FF00000007FC0
1FE00000007FC0
3FE00000003FE0
3FE00000003FE0
3FE00000003FE0
3FC00000003FE0
7FC00000001FF0
7FC00000001FF0
7F800000001FF0
FF800000001FF8
FF800000000FF8
ENDCHAR
STARTCHAR 00C1
ENCODING 193
SWIDTH 504 0
DWIDTH 55 0
BBX 53 91 1 0
BITMAP
0003E0001F0000
0003E0001F0000
0003E0001F0000
0003E0001F0000
0003E0001F0000
0003F0003F0000
0001F8007E0000
0001FFFFFE0000
0000FFFFFC0000
00007FFFF80000
00001FFFE00000
00000000000000
00000000000000
00000000000000
000007FF000000
000007FF000000
00000FFF000000
00000FFF800000
00000FFF800000
00000FFF800000
00001FFFC00000
00001FFFC00000
00001FFFC00000
00001FFFC00000
00003FFFE00000
00003F9FE00000
00003F9FE00000
00007F9FE00000
00007F8FF00000
00007F0FF00000
00007F0FF00000
0000FF0FF80000
0000FF07F80000
0000FE07F80000
0000FE07F80000
0001FE07FC0000
0001FC03FC0000
0001FC03FC0000
0003FC03FC0000
0003FC01FE0000
0003F801FE0000
0003F801FE0000
0007F801FF0000
0007F800FF0000
0007F000FF0000
0007F000FF0000
000FF000FF8000
000FE0007F8000
000FE0007F8000
001FE0007FC000
001FE0003FC000
001FC0003FC000
001FC0003FC000
003FC0003FE000
003FC0001FE000
003F80001FE000
007F80001FE000
007F80001FF000
007F00000FF000
007F00000FF000
00FF00000FF800
00FF000007F800
00FE000007F800
00FE000007F800
01FE000007FC00
01FFFFFFFFFC00
01FFFFFFFFFC00
03FFFFFFFFFE00
03FFFFFFFFFE00
03FFFFFFFFFE00
03FFFFFFFFFE00
07F8000001FF00
07F8000001FF00
07F8000001FF00
07F8000001FF00
0FF0000000FF80
0FF0000000FF80
0FF0000000FF80
1FF0000000FFC0
1FE00000007FC0
1FE00000007FC0
1FE00000007FC0
3FE00000003FE0
3FC00000003FE0
3FC00000003FE0
3FC00000003FE0
7FC00000001FF0
7F800000001FF0
7F800000001FF0
FF800000001FF8
FF800000000FF8
ENDCHAR
STARTCHAR 00C2
ENCODING 194
SWIDTH 504 0
DWIDTH 55 0
BBX 53 89 1 0
BITMAP
0000FC01F80000
0000FC01F80000
0000FC01F80000
0000FC01F80000
0000FC01F80000
0000FC01F80000
00000000000000
00000000000000
00000000000000
00000000000000
00000000000000
00000000000000
000003FF000000
000007FF000000
000007FF000000
000007FF800000
00000FFF800000
00000FFF800000
00000FFF800000
00000FFFC00000
00001FFFC00000
00001FFFC00000
00001FDFE00000
00003FDFE00000
00003F9FE00000
00003F8FE00000
00003F8FF00000
00007F8FF00000
00007F0FF00000
00007F07F00000
00007F07F80000
0000FE07F80000
0000FE07F80000
0000FE03FC0000
0001FE03FC0000
0001FC03FC0000
0001FC03FC0000
0001FC01FE0000
0003FC01FE0000
0003F801FE0000
0003F801FF0000
0007F800FF0000
0007F800FF0000
0007F000FF0000
0007F000FF8000
000FF0007F8000
000FE0007F8000
000FE0007F8000
001FE0003FC000
001FE0003FC000
001FC0003FC000
001FC0003FE000
003FC0001FE000
003FC0001FE000
003F80001FE000
007F80001FF000
007F80000FF000
007F00000FF000
007F00000FF800
00FF00000FF800
00FF000007F800
00FE000007F800
01FE000007FC00
01FFFFFFFFFC00
01FFFFFFFFFC00
01FFFFFFFFFC00
03FFFFFFFFFE00
03FFFFFFFFFE00
03FFFFFFFFFE00
03FC000001FF00
07FC000001FF00
07F8000001FF00
07F8000001FF00
0FF8000000FF80
0FF0000000FF80
0FF0000000FF80
0FF0000000FFC0
1FF00000007FC0
1FE00000007FC0
1FE00000007FC0
3FE00000003FE0
3FE00000003FE0
3FC00000003FE0
3FC00000003FE0
7FC00000001FF0
7FC00000001FF0
7F800000001FF0
FF800000001FF8
FF800000000FF8
ENDCHAR
STARTCHAR 00C3
ENCODING 195
SWIDTH 385 0
DWIDTH 42 0
BBX 32 77 8 0
BITMAP
000000FE
000001FC
000003F8
000007F8
000007F0
00000FE0
00001FC0
00003F80
00003F00
00007E00
0000FE00
0001FC00
0001F800
0003F000
0007E000
00000000
00000000
00000000
00000000
00000000
00000000
00000000
01FFFFFF
07FFFFFF
1FFFFFFF
3FFFFFFF
3FFFFFFF
7FFFFFFF
7FFFFFFF
FFC00000
FF800000
FF000000
FF000000
FF000000
FF000000
FF000000
FF000000
FF000000
FF000000
FF000000
FF000000
FF000000
FF000000
FF000000
FF000000
FF000000
FF000000
FF000000
FF000000
FF000000
FF000000
FF000000
FF000000
FF000000
FF000000
FF000000
FF000000
FF000000
FF000000
FF000000
FF000000
FF000000
FF000000
FF000000
FF000000
FF000000
FF000000
FF000000
FF800000
FFC00000
7FF8000F
7FFFFFFF
3FFFFFFF
3FFFFFFF
1FFFFFFF
07FFFFFF
01FFFFFF
ENDCHAR
STARTCHAR 00C4
ENCODING 196
SWIDTH 504 0
DWIDTH 55 0
BBX 53 92 1 0
BITMAP
0003FC00000000
0001FE00000000
0000FF00000000
00003F80000000
00001FC0000000
00000FE0000000
000007F0000000
000003F8000000
000000FC000000
0000007E000000
0000003F000000
00000000000000
00000000000000
00000000000000
00000000000000
000007FF000000
000007FF000000
000007FF800000
00000FFF800000
00000FFF800000
00000FFF800000
00000FFFC00000
00001FFFC00000
00001FFFC00000
00001FDFE00000
00001FDFE00000
00003FDFE00000
00003F9FE00000
00003F8FF00000
00007F8FF00000
00007F8FF00000
00007F0FF00000
00007F07F80000
0000FF07F80000
0000FE07F80000
0000FE07FC0000
0001FE03FC0000
0001FE03FC0000
0001FC03FC0000
0001FC01FE0000
0003FC01FE0000
0003FC01FE0000
0003F801FE0000
0003F800FF0000
0007F800FF0000
0007F800FF0000
0007F000FF8000
000FF0007F8000
000FF0007F8000
000FE0007F8000
000FE0007FC000
001FE0003FC000
001FE0003FC000
001FC0003FC000
003FC0001FE000
003FC0001FE000
003FC0001FE000
003F80001FF000
007F80000FF000
007F80000FF000
007F00000FF000
007F00000FF800
00FF000007F800
00FF000007F800
00FE000007F800
01FE000007FC00
01FFFFFFFFFC00
01FFFFFFFFFC00
01FFFFFFFFFE00
03FFFFFFFFFE00
03FFFFFFFFFE00
03FFFFFFFFFE00
07FC000001FF00
07FC000001FF00
07F8000001FF00
07F8000000FF80
0FF8000000FF80
0FF0000000FF80
0FF0000000FF80
1FF00000007FC0
1FF00000007FC0
1FE00000007FC0
1FE00000003FC0
3FE00000003FE0
3FE00000003FE0
3FC00000003FE0
3FC00000001FF0
7FC00000001FF0
7FC00000001FF0
7F800000001FF0
FF800000000FF8
FF800000000FF8
ENDCHAR
STARTCHAR 00C5
ENCODING 197
SWIDTH 504 0
DWIDTH 55 0
BBX 53 92 1 0
BITMAP
0001FC0001E000
0007FF0001E000
000FFFC001E000
001FFFE001E000
001FFFF801E000
001F07FC03E000
003E01FF07E000
003E007FFFC000
003C003FFFC000
003C001FFF8000
003C0007FF0000
003C0001FC0000
00000000000000
00000000000000
00000000000000
000007FF000000
000007FF000000
000007FF800000
000007FF800000
00000FFF800000
00000FFFC00000
00000FFFC00000
00000FFFC00000
00001FFFC00000
00001FDFE00000
00001FDFE00000
00003FDFE00000
00003FDFE00000
00003F8FF00000
00003F8FF00000
00007F8FF00000
00007F07F80000
00007F07F80000
0000FF07F80000
0000FF07F80000
0000FE03FC0000
0000FE03FC0000
0001FE03FC0000
0001FE03FC0000
0001FC01FE0000
0003FC01FE0000
0003FC01FE0000
0003F801FF0000
0003F800FF0000
0007F800FF0000
0007F800FF0000
0007F0007F8000
0007F0007F8000
000FF0007F8000
000FF0007F8000
000FE0003FC000
001FE0003FC000
001FE0003FC000
001FC0003FE000
001FC0001FE000
003FC0001FE000
003FC0001FE000
003F80000FF000
007F80000FF000
007F80000FF000
007F00000FF000
007F000007F800
00FF000007F800
00FF000007F800
00FE000007FC00
01FE000003FC00
01FFFFFFFFFC00
01FFFFFFFFFC00
01FFFFFFFFFE00
03FFFFFFFFFE00
03FFFFFFFFFE00
03FFFFFFFFFE00
07F8000001FF00
07F8000001FF00
07F8000000FF00
07F8000000FF80
0FF0000000FF80
0FF0000000FF80
0FF00000007F80
0FF00000007FC0
1FE00000007FC0
1FE00000007FC0
1FE00000003FC0
3FE00000003FE0
3FC00000003FE0
3FC00000003FE0
3FC00000001FF0
7FC00000001FF0
7F800000001FF0
7F800000000FF0
FF800000000FF8
FF800000000FF8
ENDCHAR
STARTCHAR 00C6
ENCODING 198
SWIDTH 770 0
DWIDTH 84 0
BBX 86 77 -4 0
BITMAP
00000000007FFFFFFFFFF0
0000000000FFFFFFFFFFF0
0000000000FFFFFFFFFFF0
0000000001FFFFFFFFFFF0
0000000001FFFFFFFFFFF0
0000000003FFFFFFFFFFF0
0000000003FFFFFFFFFFF0
0000000007FFF800000000
0000000007FFF800000000
000000000FFFF800000000
000000000FF7F800000000
000000001FF7F800000000
000000001FE7F800000000
000000003FE7F800000000
000000003FC7F800000000
000000007F87F800000000
00000000FF87F800000000
00000000FF07F800000000
00000001FF07F800000000
00000001FE07F800000000
00000003FE07F800000000
00000003FC07F800000000
00000007FC07F800000000
00000007F807F800000000
0000000FF807F800000000
0000000FF007F800000000
0000001FE007F800000000
0000001FE007F800000000
0000003FC007F800000000
0000003FC007F800000000
0000007F8007F800000000
000000FF8007F800000000
000000FF0007F800000000
000001FF0007FFFFFFFC00
000001FE0007FFFFFFFC00
000003FE0007FFFFFFFC00
000003FC0007FFFFFFFC00
000007FC0007FFFFFFFC00
000007F80007FFFFFFFC00
00000FF00007FFFFFFFC00
00000FF00007F800000000
00001FE00007F800000000
00001FE00007F800000000
00003FC00007F800000000
00003FC00007F800000000
00007F800007F800000000
0000FF800007F800000000
0000FF000007F800000000
0001FF000007F800000000
0001FE000007F800000000
0003FC000007F800000000
0003FFFFFFFFF800000000
0007FFFFFFFFF800000000
0007FFFFFFFFF800000000
000FFFFFFFFFF800000000
000FFFFFFFFFF800000000
001FFFFFFFFFF800000000
001FF0000007F800000000
003FE0000007F800000000
003FE0000007F800000000
007FC0000007F800000000
00FFC0000007F800000000
00FF80000007F800000000
01FF80000007F800000000
01FF00000007F800000000
03FE00000007F800000000
03FE00000007F800000000
07FC00000007F800000000
07FC00000007F800000000
0FF800000007F800000000
0FF800000007FFFFFFFFFC
1FF000000007FFFFFFFFFC
1FF000000007FFFFFFFFFC
3FE000000007FFFFFFFFFC
3FE000000007FFFFFFFFFC
7FC000000007FFFFFFFFFC
FFC000000007FFFFFFFFFC
ENDCHAR
STARTCHAR 00C7
ENCODING 199
SWIDTH 477 0
DWIDTH 52 0
BBX 41 91 8 1
BITMAP
00000FE00000
00001FF00000
00003FF80000
00007FFC0000
0000FEFE0000
0001FC7F0000
0003F01F8000
0007E00FC000
000FC007E000
001F8003F000
003F0001F800
000000000000
000000000000
000000000000
01FFFFFFFF80
07FFFFFFFF80
1FFFFFFFFF80
3FFFFFFFFF80
3FFFFFFFFF80
7FFFFFFFFF80
7FFFFFFFFF80
FFE000000180
FF8000000000
FF8000000000
FF0000000000
FF0000000000
FF0000000000
FF0000000000
FF0000000000
FF0000000000
FF0000000000
FF0000000000
FF0000000000
FF0000000000
FF0000000000
FF0000000000
FF0000000000
FF0000000000
FF0000000000
FF0000000000
FF0000000000
FF0000000000
FF0000000000
FF0000000000
FF0000000000
FF0000000000
FF0000000000
FF0000000000
FF0000000000
FF0000000000
FF0000000000
FF0000000000
FF0000000000
FF0000000000
FF0000000000
FF0000000000
FF0000000000
FF0000000000
FF0000000000
FF0000000000
FF0000000000
FF0000000000
FF0000000000
FF0000000000
FF0000000000
FF0000000000
FF0000000000
FF0000000000
FF0000000000
FF0000000000
FF0000000000
FF0000000000
FF0000000000
FF0000000000
FF0000000000
FF0000000000
FF0000000000
FF0000000000
FF0000000000
FF0000000000
FF0000000000
FF8000000000
FF8000000000
FFE000000080
7FFFFFFFFF80
7FFFFFFFFF80
3FFFFFFFFF80
3FFFFFFFFF80
1FFFFFFFFF80
07FFFFFFFF80
01FFFFFFFF80
ENDCHAR
STARTCHAR 00C8
ENCODING 200
SWIDTH 477 0
DWIDTH 52 0
BBX 39 91 8 1
BITMAP
007F000000
003F800000
000FC00000
0007E00000
0003F00000
0001F80000
0000FC0000
00007E0000
00003F0000
00001F8000
00000FC000
0000000000
0000000000
0000000000
FFFFFFFFF8
FFFFFFFFF8
FFFFFFFFF8
FFFFFFFFF8
FFFFFFFFF8
FFFFFFFFF8
FFFFFFFFF8
FF00000000
FF00000000
FF00000000
FF00000000
FF00000000
FF00000000
FF00000000
FF00000000
FF00000000
FF00000000
FF00000000
FF00000000
FF00000000
FF00000000
FF00000000
FF00000000
FF00000000
FF00000000
FF00000000
FF00000000
FF00000000
FF00000000
FF00000000
FF00000000
FF00000000
FF00000000
FFFFFFFE00
FFFFFFFE00
FFFFFFFE00
FFFFFFFE00
FFFFFFFE00
FFFFFFFE00
FFFFFFFE00
FF00000000
FF00000000
FF00000000
FF00000000
FF00000000
FF00000000
FF00000000
FF00000000
FF00000000
FF00000000
FF00000000
FF00000000
FF00000000
FF00000000
FF00000000
FF00000000
FF00000000
FF00000000
FF00000000
FF00000000
FF00000000
FF00000000
FF00000000
FF00000000
FF00000000
FF00000000
FF00000000
FF00000000
FF00000000
FF00000000
FFFFFFFFFE
FFFFFFFFFE
FFFFFFFFFE
FFFFFFFFFE
FFFFFFFFFE
FFFFFFFFFE
FFFFFFFFFE
ENDCHAR
STARTCHAR 00C9
ENCODING 201
SWIDTH 477 0
DWIDTH 52 0
BBX 42 91 8 1
BITMAP
0000003F8000
0000007F0000
000000FE0000
000001FC0000
000003F00000
000007E00000
00000FC00000
00003F800000
00007F000000
0000FC000000
0001F8000000
000000000000
000000000000
000000000000
FFFFFFFFFF00
FFFFFFFFFF00
FFFFFFFFFF00
FFFFFFFFFF00
FFFFFFFFFF00
FFFFFFFFFF00
FFFFFFFFFF00
FF0000000000
FF0000000000
FF0000000000
FF0000000000
FF0000000000
FF0000000000
FF0000000000
FF0000000000
FF0000000000
FF0000000000
FF0000000000
FF0000000000
FF0000000000
FF0000000000
FF0000000000
FF0000000000
FF0000000000
FF0000000000
FF0000000000
FF0000000000
FF0000000000
FF0000000000
FF0000000000
FF0000000000
FF0000000000
FF0000000000
FFFFFFFFC000
FFFFFFFFC000
FFFFFFFFC000
FFFFFFFFC000
FFFFFFFFC000
FFFFFFFFC000
FFFFFFFFC000
FF0000000000
FF0000000000
FF0000000000
FF0000000000
FF0000000000
FF0000000000
FF0000000000
FF0000000000
FF0000000000
FF0000000000
FF0000000000
FF0000000000
FF0000000000
FF0000000000
FF0000000000
FF0000000000
FF0000000000
FF0000000000
FF0000000000
FF0000000000
FF0000000000
FF0000000000
FF0000000000
FF0000000000
FF0000000000
FF0000000000
FF0000000000
FF0000000000
FF0000000000
FF0000000000
FFFFFFFFFFC0
FFFFFFFFFFC0
FFFFFFFFFFC0
FFFFFFFFFFC0
FFFFFFFFFFC0
FFFFFFFFFFC0
FFFFFFFFFFC0
ENDCHAR
STARTCHAR 00CA
ENCODING 202
SWIDTH 477 0
DWIDTH 52 0
BBX 38 91 8 1
BITMAP
00003F8000
00007FC000
0000FFE000
0003FFF000
0007FBF800
000FE0F800
001FC07C00
003F803E00
007F001F00
00FC000780
01F8000380
0000000000
0000000000
0000000000
FFFFFFFFF0
FFFFFFFFF0
FFFFFFFFF0
FFFFFFFFF0
FFFFFFFFF0
FFFFFFFFF0
FFFFFFFFF0
FF00000000
FF00000000
FF00000000
FF00000000
FF00000000
FF00000000
FF00000000
FF00000000
FF00000000
FF00000000
FF00000000
FF00000000
FF00000000
FF00000000
FF00000000
FF00000000
FF00000000
FF00000000
FF00000000
FF00000000
FF00000000
FF00000000
FF00000000
FF00000000
FF00000000
FF00000000
FFFFFFFFF0
FFFFFFFFF0
FFFFFFFFF0
FFFFFFFFF0
FFFFFFFFF0
FFFFFFFFF0
FFFFFFFFF0
FF00000000
FF00000000
FF00000000
FF00000000
FF00000000
FF00000000
FF00000000
FF00000000
FF00000000
FF00000000
FF00000000
FF00000000
FF00000000
FF00000000
FF00000000
FF00000000
FF00000000
FF00000000
FF00000000
FF00000000
FF00000000
FF00000000
FF00000000
FF00000000
FF00000000
FF00000000
FF00000000
FF00000000
FF00000000
FF00000000
FFFFFFFFFC
FFFFFFFFFC
FFFFFFFFFC
FFFFFFFFFC
FFFFFFFFFC
FFFFFFFFFC
FFFFFFFFFC
ENDCHAR
STARTCHAR 00CB
ENCODING 203
SWIDTH 477 0
DWIDTH 52 0
BBX 40 89 8 0
BITMAP
001F803F00
001F803F00
001F803F00
001F803F00
001F803F00
001F803F00
0000000000
0000000000
0000000000
0000000000
0000000000
0000000000
FFFFFFFFFC
FFFFFFFFFC
FFFFFFFFFC
FFFFFFFFFC
FFFFFFFFFC
FFFFFFFFFC
FFFFFFFFFC
FF00000000
FF00000000
FF00000000
FF00000000
FF00000000
FF00000000
FF00000000
FF00000000
FF00000000
FF00000000
FF00000000
FF00000000
FF00000000
FF00000000
FF00000000
FF00000000
FF00000000
FF00000000
FF00000000
FF00000000
FF00000000
FF00000000
FF00000000
FF00000000
FF00000000
FF00000000
FFFFFFFF00
FFFFFFFF00
FFFFFFFF00
FFFFFFFF00
FFFFFFFF00
FFFFFFFF00
FFFFFFFF00
FF00000000
FF00000000
FF00000000
FF00000000
FF00000000
FF00000000
FF00000000
FF00000000
FF00000000
FF00000000
FF00000000
FF00000000
FF00000000
FF00000000
FF00000000
FF00000000
FF00000000
FF00000000
FF00000000
FF00000000
FF00000000
FF00000000
FF00000000
FF00000000
FF00000000
FF00000000
FF00000000
FF00000000
FF00000000
FF00000000
FFFFFFFFFF
FFFFFFFFFF
FFFFFFFFFF
FFFFFFFFFF
FFFFFFFFFF
FFFFFFFFFF
FFFFFFFFFF
ENDCHAR
STARTCHAR 00CC
ENCODING 204
SWIDTH 229 0
DWIDTH 25 0
BBX 18 91 -1 1
BITMAP
FE0000
7F8000
3FC000
1FE000
07F000
03F800
01FC00
00FE00
007F00
001F80
000FC0
000000
000000
000000
003FC0
003FC0
003FC0
003FC0
003FC0
003FC0
003FC0
003FC0
003FC0
003FC0
003FC0
003FC0
003FC0
003FC0
003FC0
003FC0
003FC0
003FC0
003FC0
003FC0
003FC0
003FC0
003FC0
003FC0
003FC0
003FC0
003FC0
003FC0
003FC0
003FC0
003FC0
003FC0
003FC0
003FC0
003FC0
003FC0
003FC0
003FC0
003FC0
003FC0
003FC0
003FC0
003FC0
003FC0
003FC0
003FC0
003FC0
003FC0
003FC0
003FC0
003FC0
003FC0
003FC0
003FC0
003FC0
003FC0
003FC0
003FC0
003FC0
003FC0
003FC0
003FC0
003FC0
003FC0
003FC0
003FC0
003FC0
003FC0
003FC0
003FC0
003FC0
003FC0
003FC0
003FC0
003FC0
003FC0
003FC0
ENDCHAR
STARTCHAR 00CD
ENCODING 205
SWIDTH 229 0
DWIDTH 25 0
BBX 18 91 6 1
BITMAP
001FC0
003F80
007F00
00FE00
01F800
03F000
07E000
0FC000
1F8000
3E0000
FC0000
000000
000000
000000
3FC000
3FC000
3FC000
3FC000
3FC000
3FC000
3FC000
3FC000
3FC000
3FC000
3FC000
3FC000
3FC000
3FC000
3FC000
3FC000
3FC000
3FC000
3FC000
3FC000
3FC000
3FC000
3FC000
3FC000
3FC000
3FC000
3FC000
3FC000
3FC000
3FC000
3FC000
3FC000
3FC000
3FC000
3FC000
3FC000
3FC000
3FC000
3FC000
3FC000
3FC000
3FC000
3FC000
3FC000
3FC000
3FC000
3FC000
3FC000
3FC000
3FC000
3FC000
3FC000
3FC000
3FC000
3FC000
3FC000
3FC000
3FC000
3FC000
3FC000
3FC000
3FC000
3FC000
3FC000
3FC000
3FC000
3FC000
3FC000
3FC000
3FC000
3FC000
3FC000
3FC000
3FC000
3FC000
3FC000
3FC000
ENDCHAR
STARTCHAR 00CE
ENCODING 206
SWIDTH 229 0
DWIDTH 25 0
BBX 27 91 -1 1
BITMAP
003FC000
007FE000
00FFE000
01FFF000
03F9F800
07F0FC00
0FE07E00
1FC03F00
3F001F80
7E000FC0
FC0007E0
00000000
00000000
00000000
003FC000
003FC000
003FC000
003FC000
003FC000
003FC000
003FC000
003FC000
003FC000
003FC000
003FC000
003FC000
003FC000
003FC000
003FC000
003FC000
003FC000
003FC000
003FC000
003FC000
003FC000
003FC000
003FC000
003FC000
003FC000
003FC000
003FC000
003FC000
003FC000
003FC000
003FC000
003FC000
003FC000
003FC000
003FC000
003FC000
003FC000
003FC000
003FC000
003FC000
003FC000
003FC000
003FC000
003FC000
003FC000
003FC000
003FC000
003FC000
003FC000
003FC000
003FC000
003FC000
003FC000
003FC000
003FC000
003FC000
003FC000
003FC000
003FC000
003FC000
003FC000
003FC000
003FC000
003FC000
003FC000
003FC000
003FC000
003FC000
003FC000
003FC000
003FC000
003FC000
003FC000
003FC000
003FC000
003FC000
003FC000
ENDCHAR
STARTCHAR 00CF
ENCODING 207
SWIDTH 229 0
DWIDTH 25 0
BBX 21 89 2 0
BITMAP
FC01F8
FC01F8
FC01F8
FC01F8
FC01F8
FC01F8
000000
000000
000000
000000
000000
000000
03FC00
03FC00
03FC00
03FC00
03FC00
03FC00
03FC00
03FC00
03FC00
03FC00
03FC00
03FC00
03FC00
03FC00
03FC00
03FC00
03FC00
03FC00
03FC00
03FC00
03FC00
03FC00
03FC00
03FC00
03FC00
03FC00
03FC00
03FC00
03FC00
03FC00
03FC00
03FC00
03FC00
03FC00
03FC00
03FC00
03FC00
03FC00
03FC00
03FC00
03FC00
03FC00
03FC00
03FC00
03FC00
03FC00
03FC00
03FC00
03FC00
03FC00
03FC00
03FC00
03FC00
03FC00
03FC00
03FC00
03FC00
03FC00
03FC00
03FC00
03FC00
03FC00
03FC00
03FC00
03FC00
03FC00
03FC00
03FC00
03FC00
03FC00
03FC00
03FC00
03FC00
03FC00
03FC00
03FC00
03FC00
ENDCHAR
STARTCHAR 00D1
ENCODING 209
SWIDTH 559 0
DWIDTH 61 0
BBX 45 92 8 0
BITMAP
0007F0000F00
001FFC000F00
003FFE000F00
007FFF800F00
007FFFC00F00
007C1FF01F00
00F807FC3F00
00F803FFFE00
00F000FFFE00
00F0007FFC00
00F0001FF800
00F00007E000
000000000000
000000000000
000000000000
FFC000000FF8
FFC000000FF8
FFC000000FF8
FFE000000FF8
FFE000000FF8
FFF000000FF8
FFF000000FF8
FFF800000FF8
FFF800000FF8
FFF800000FF8
FFFC00000FF8
FFFC00000FF8
FFFE00000FF8
FFFE00000FF8
FFFF00000FF8
FF7F00000FF8
FF7F00000FF8
FF3F80000FF8
FF3F80000FF8
FF1FC0000FF8
FF1FC0000FF8
FF1FC0000FF8
FF0FE0000FF8
FF0FE0000FF8
FF07F0000FF8
FF07F0000FF8
FF03F8000FF8
FF03F8000FF8
FF03F8000FF8
FF01FC000FF8
FF01FC000FF8
FF00FE000FF8
FF00FE000FF8
FF007F000FF8
FF007F000FF8
FF003F000FF8
FF003F800FF8
FF003F800FF8
FF001FC00FF8
FF001FC00FF8
FF000FC00FF8
FF000FE00FF8
FF0007E00FF8
FF0007F00FF8
FF0007F00FF8
FF0003F80FF8
FF0003F80FF8
FF0001F80FF8
FF0001FC0FF8
FF0000FC0FF8
FF0000FE0FF8
FF00007E0FF8
FF00007F0FF8
FF00007F0FF8
FF00003F0FF8
FF00003F8FF8
FF00001F8FF8
FF00001FCFF8
FF00000FCFF8
FF00000FCFF8
FF000007EFF8
FF000007EFF8
FF000007FFF8
FF000003FFF8
FF000003FFF8
FF000001FFF8
FF000001FFF8
FF000000FFF8
FF000000FFF8
FF000000FFF8
FF0000007FF8
FF0000007FF8
FF0000003FF8
FF0000003FF8
FF0000001FF8
FF0000001FF8
FF0000000FF8
ENDCHAR
STARTCHAR 00D2
ENCODING 210
SWIDTH 550 0
DWIDTH 60 0
BBX 44 91 8 1
BITMAP
001FC0000000
000FE0000000
0007F0000000
0003FC000000
0000FE000000
00007F000000
00003F800000
00001FC00000
00000FE00000
000003F00000
000001F80000
000000000000
000000000000
000000000000
01FFFFFFF800
07FFFFFFFE00
1FFFFFFFFF80
3FFFFFFFFFC0
3FFFFFFFFFC0
7FFFFFFFFFE0
7FFFFFFFFFE0
FFE000007FF0
FF8000001FF0
FF8000001FF0
FF0000000FF0
FF0000000FF0
FF0000000FF0
FF0000000FF0
FF0000000FF0
FF0000000FF0
FF0000000FF0
FF0000000FF0
FF0000000FF0
FF0000000FF0
FF0000000FF0
FF0000000FF0
FF0000000FF0
FF0000000FF0
FF0000000FF0
FF0000000FF0
FF0000000FF0
FF0000000FF0
FF0000000FF0
FF0000000FF0
FF0000000FF0
FF0000000FF0
FF0000000FF0
FF0000000FF0
FF0000000FF0
FF0000000FF0
FF0000000FF0
FF0000000FF0
FF0000000FF0
FF0000000FF0
FF0000000FF0
FF0000000FF0
FF0000000FF0
FF0000000FF0
FF0000000FF0
FF0000000FF0
FF0000000FF0
FF0000000FF0
FF0000000FF0
FF0000000FF0
FF0000000FF0
FF0000000FF0
FF0000000FF0
FF0000000FF0
FF0000000FF0
FF0000000FF0
FF0000000FF0
FF0000000FF0
FF0000000FF0
FF0000000FF0
FF0000000FF0
FF0000000FF0
FF0000000FF0
FF0000000FF0
FF0000000FF0
FF0000000FF0
FF0000000FF0
FF8000001FF0
FF8000001FF0
FFE000007FF0
7FFFFFFFFFE0
7FFFFFFFFFE0
3FFFFFFFFFC0
3FFFFFFFFFC0
1FFFFFFFFF80
07FFFFFFFE00
01FFFFFFF800
ENDCHAR
STARTCHAR 00D3
ENCODING 211
SWIDTH 550 0
DWIDTH 60 0
BBX 44 91 8 1
BITMAP
0000001FE000
0000003FC000
0000007F0000
000000FE0000
000001FC0000
000003F80000
000007E00000
00000FC00000
00001F800000
00003F000000
00007E000000
000000000000
000000000000
000000000000
01FFFFFFF800
07FFFFFFFE00
1FFFFFFFFF80
3FFFFFFFFFC0
3FFFFFFFFFC0
7FFFFFFFFFE0
7FFFFFFFFFE0
FFE000007FF0
FF8000001FF0
FF8000001FF0
FF0000000FF0
FF0000000FF0
FF0000000FF0
FF0000000FF0
FF0000000FF0
FF0000000FF0
FF0000000FF0
FF0000000FF0
FF0000000FF0
FF0000000FF0
FF0000000FF0
FF0000000FF0
FF0000000FF0
FF0000000FF0
FF0000000FF0
FF0000000FF0
FF0000000FF0
FF0000000FF0
FF0000000FF0
FF0000000FF0
FF0000000FF0
FF0000000FF0
FF0000000FF0
FF0000000FF0
FF0000000FF0
FF0000000FF0
FF0000000FF0
FF0000000FF0
FF0000000FF0
FF0000000FF0
FF0000000FF0
FF0000000FF0
FF0000000FF0
FF0000000FF0
FF0000000FF0
FF0000000FF0
FF0000000FF0
FF0000000FF0
FF0000000FF0
FF0000000FF0
FF0000000FF0
FF0000000FF0
FF0000000FF0
FF0000000FF0
FF0000000FF0
FF0000000FF0
FF0000000FF0
FF0000000FF0
FF0000000FF0
FF0000000FF0
FF0000000FF0
FF0000000FF0
FF0000000FF0
FF0000000FF0
FF0000000FF0
FF0000000FF0
FF0000000FF0
FF8000001FF0
FF8000001FF0
FFE000007FF0
7FFFFFFFFFE0
7FFFFFFFFFE0
3FFFFFFFFFC0
3FFFFFFFFFC0
1FFFFFFFFF80
07FFFFFFFE00
01FFFFFFF800
ENDCHAR
STARTCHAR 00D4
ENCODING 212
SWIDTH 550 0
DWIDTH 60 0
BBX 44 91 8 1
BITMAP
00001FC00000
00003FE00000
00007FF00000
0000FFF80000
0001FDFC0000
0003F0FE0000
0007E07F0000
000FC01F8000
001F800FC000
003F0007E000
007E0003F000
000000000000
000000000000
000000000000
01FFFFFFF800
07FFFFFFFE00
1FFFFFFFFF80
3FFFFFFFFFC0
3FFFFFFFFFC0
7FFFFFFFFFE0
7FFFFFFFFFE0
FFE000007FF0
FF8000001FF0
FF8000001FF0
FF0000000FF0
FF0000000FF0
FF0000000FF0
FF0000000FF0
FF0000000FF0
FF0000000FF0
FF0000000FF0
FF0000000FF0
FF0000000FF0
FF0000000FF0
FF0000000FF0
FF0000000FF0
FF0000000FF0
FF0000000FF0
FF0000000FF0
FF0000000FF0
FF0000000FF0
FF0000000FF0
FF0000000FF0
FF0000000FF0
FF0000000FF0
FF0000000FF0
FF0000000FF0
FF0000000FF0
FF0000000FF0
FF0000000FF0
FF0000000FF0
FF0000000FF0
FF0000000FF0
FF0000000FF0
FF0000000FF0
FF0000000FF0
FF0000000FF0
FF0000000FF0
FF0000000FF0
FF0000000FF0
FF0000000FF0
FF0000000FF0
FF0000000FF0
FF0000000FF0
FF0000000FF0
FF0000000FF0
FF0000000FF0
FF0000000FF0
FF0000000FF0
FF0000000FF0
FF0000000FF0
FF0000000FF0
FF0000000FF0
FF0000000FF0
FF0000000FF0
FF0000000FF0
FF0000000FF0
FF0000000FF0
FF0000000FF0
FF0000000FF0
FF0000000FF0
FF8000001FF0
FF8000001FF0
FFE000007FF0
7FFFFFFFFFE0
7FFFFFFFFFE0
3FFFFFFFFFC0
3FFFFFFFFFC0
1FFFFFFFFF80
07FFFFFFFE00
01FFFFFFF800
ENDCHAR
STARTCHAR 00D5
ENCODING 213
SWIDTH 550 0
DWIDTH 60 0
BBX 44 92 8 0
BITMAP
001FC0003C00
007FF0003C00
00FFF8003C00
01FFFE003C00
01FFFF003C00
01C1FFC07C00
03807FF0FC00
03801FFFF800
03000FFFF800
030003FFF000
030000FFE000
0300003F8000
000000000000
000000000000
000000000000
01FFFFFFF800
07FFFFFFFE00
1FFFFFFFFF80
3FFFFFFFFFC0
3FFFFFFFFFC0
7FFFFFFFFFE0
7FFFFFFFFFE0
FFE00001FFF0
FF8000007FF0
FF8000007FF0
FF0000003FF0
FF0000003FF0
FF0000003FF0
FF0000003FF0
FF0000003FF0
FF0000003FF0
FF0000003FF0
FF0000003FF0
FF0000003FF0
FF0000003FF0
FF0000003FF0
FF0000003FF0
FF0000003FF0
FF0000003FF0
FF0000003FF0
FF0000003FF0
FF0000003FF0
FF0000003FF0
FF0000003FF0
FF0000003FF0
FF0000003FF0
FF0000003FF0
FF0000003FF0
FF0000003FF0
FF0000003FF0
FF0000003FF0
FF0000003FF0
FF0000003FF0
FF0000003FF0
FF0000003FF0
FF0000003FF0
FF0000003FF0
FF0000003FF0
FF0000003FF0
FF0000003FF0
FF0000003FF0
FF0000003FF0
FF0000003FF0
FF0000003FF0
FF0000003FF0
FF0000003FF0
FF0000003FF0
FF0000003FF0
FF0000003FF0
FF0000003FF0
FF0000003FF0
FF0000003FF0
FF0000003FF0
FF0000003FF0
FF0000003FF0
FF0000003FF0
FF0000003FF0
FF0000003FF0
FF0000003FF0
FF0000003FF0
FF0000003FF0
FF0000003FF0
FF8000007FF0
FF8000007FF0
FFE00001FFF0
7FFFFFFFFFE0
7FFFFFFFFFE0
3FFFFFFFFFC0
3FFFFFFFFFC0
1FFFFFFFFF80
07FFFFFFFE00
01FFFFFFF800
ENDCHAR
STARTCHAR 00D6
ENCODING 214
SWIDTH 550 0
DWIDTH 60 0
BBX 44 89 8 0
BITMAP
000FC01F8000
000FC01F8000
000FC01F8000
000FC01F8000
000FC01F8000
000FC01F8000
000000000000
000000000000
000000000000
000000000000
000000000000
000000000000
01FFFFFFF800
07FFFFFFFE00
1FFFFFFFFF80
3FFFFFFFFFC0
3FFFFFFFFFC0
7FFFFFFFFFE0
7FFFFFFFFFE0
FFE000007FF0
FF8000001FF0
FF8000001FF0
FF0000000FF0
FF0000000FF0
FF0000000FF0
FF0000000FF0
FF0000000FF0
FF0000000FF0
FF0000000FF0
FF0000000FF0
FF0000000FF0
FF0000000FF0
FF0000000FF0
FF0000000FF0
FF0000000FF0
FF0000000FF0
FF0000000FF0
FF0000000FF0
FF0000000FF0
FF0000000FF0
FF0000000FF0
FF0000000FF0
FF0000000FF0
FF0000000FF0
FF0000000FF0
FF0000000FF0
FF0000000FF0
FF0000000FF0
FF0000000FF0
FF0000000FF0
FF0000000FF0
FF0000000FF0
FF0000000FF0
FF0000000FF0
FF0000000FF0
FF0000000FF0
FF0000000FF0
FF0000000FF0
FF0000000FF0
FF0000000FF0
FF0000000FF0
FF0000000FF0
FF0000000FF0
FF0000000FF0
FF0000000FF0
FF0000000FF0
FF0000000FF0
FF0000000FF0
FF0000000FF0
FF0000000FF0
FF0000000FF0
FF0000000FF0
FF0000000FF0
FF0000000FF0
FF0000000FF0
FF0000000FF0
FF0000000FF0
FF0000000FF0
FF0000000FF0
FF8000001FF0
FF8000001FF0
FFE000007FF0
7FFFFFFFFFE0
7FFFFFFFFFE0
3FFFFFFFFFC0
3FFFFFFFFFC0
1FFFFFFFFF80
07FFFFFFFE00
01FFFFFFF800
ENDCHAR
STARTCHAR 00D8
ENCODING 216
SWIDTH 559 0
DWIDTH 61 0
BBX 61 77 0 0
BITMAP
0000FFFFFFF800F8
0003FFFFFFFE01F0
000FFFFFFFFF03E0
001FFFFFFFFF87E0
001FFFFFFFFFC7C0
003FFFFFFFFFCF80
003FFFFFFFFFDF00
007FF000007FFF00
007FC000001FFE00
007FC000001FFC00
007F8000000FF800
007F8000000FF800
007F8000000FF000
007F8000000FF000
007F8000000FF000
007F8000000FF000
007F8000000FF000
007F8000001FF000
007F8000003FF000
007F8000007FF000
007F8000007FF000
007F800000FFF000
007F800001FFF000
007F800001FFF000
007F800003EFF000
007F800007CFF000
007F800007CFF000
007F80000F8FF000
007F80001F0FF000
007F80003F0FF000
007F80003E0FF000
007F80007C0FF000
007F8000F80FF000
007F8000F80FF000
007F8001F00FF000
007F8003E00FF000
007F8007E00FF000
007F8007C00FF000
007F800F800FF000
007F801F000FF000
007F801F000FF000
007F803E000FF000
007F807C000FF000
007F80FC000FF000
007F80F8000FF000
007F81F0000FF000
007F83E0000FF000
007F83E0000FF000
007F87C0000FF000
007F8F80000FF000
007F9F80000FF000
007F9F00000FF000
007FBE00000FF000
007FFE00000FF000
007FFC00000FF000
007FF800000FF000
007FF000000FF000
007FF000000FF000
007FE000000FF000
007FC000000FF000
007FC000000FF000
007F8000000FF000
007F8000000FF000
007F8000000FF000
007F8000000FF000
007F8000000FF000
00FF8000000FF000
01FFC000001FF000
03FFC000001FF000
03FFF000007FF000
07DFFFFFFFFFE000
0F9FFFFFFFFFE000
1F9FFFFFFFFFC000
1F0FFFFFFFFFC000
3E07FFFFFFFF8000
7C03FFFFFFFE0000
FC00FFFFFFF80000
ENDCHAR
STARTCHAR 00D9
ENCODING 217
SWIDTH 550 0
DWIDTH 60 0
BBX 44 91 8 1
BITMAP
003FC0000000
001FE0000000
0007F0000000
0003F8000000
0001FC000000
0000FE000000
00007F000000
00001F800000
00000FC00000
000007E00000
000003F00000
000000000000
000000000000
000000000000
FF0000000FF0
FF0000000FF0
FF0000000FF0
FF0000000FF0
FF0000000FF0
FF0000000FF0
FF0000000FF0
FF0000000FF0
FF0000000FF0
FF0000000FF0
FF0000000FF0
FF0000000FF0
FF0000000FF0
FF0000000FF0
FF0000000FF0
FF0000000FF0
FF0000000FF0
FF0000000FF0
FF0000000FF0
FF0000000FF0
FF0000000FF0
FF0000000FF0
FF0000000FF0
FF0000000FF0
FF0000000FF0
FF0000000FF0
FF0000000FF0
FF0000000FF0
FF0000000FF0
FF0000000FF0
FF0000000FF0
FF0000000FF0
FF0000000FF0
FF0000000FF0
FF0000000FF0
FF0000000FF0
FF0000000FF0
FF0000000FF0
FF0000000FF0
FF0000000FF0
FF0000000FF0
FF0000000FF0
FF0000000FF0
FF0000000FF0
FF0000000FF0
FF0000000FF0
FF0000000FF0
FF0000000FF0
FF0000000FF0
FF0000000FF0
FF0000000FF0
FF0000000FF0
FF0000000FF0
FF0000000FF0
FF0000000FF0
FF0000000FF0
FF0000000FF0
FF0000000FF0
FF0000000FF0
FF0000000FF0
FF0000000FF0
FF0000000FF0
FF0000000FF0
FF0000000FF0
FF0000000FF0
FF0000000FF0
FF0000000FF0
FF8000001FF0
FF8000001FF0
FFE000007FF0
7FFFFFFFFFE0
7FFFFFFFFFE0
3FFFFFFFFFC0
3FFFFFFFFFC0
1FFFFFFFFF80
07FFFFFFFE00
01FFFFFFF800
ENDCHAR
STARTCHAR 00DA
ENCODING 218
SWIDTH 550 0
DWIDTH 60 0
BBX 44 91 8 1
BITMAP
0000001FC000
0000003F8000
0000007F0000
000000FE0000
000001FC0000
000003F80000
000007E00000
00000FC00000
00001F800000
00003F000000
00007E000000
000000000000
000000000000
000000000000
FF0000000FF0
FF0000000FF0
FF0000000FF0
FF0000000FF0
FF0000000FF0
FF0000000FF0
FF0000000FF0
FF0000000FF0
FF0000000FF0
FF0000000FF0
FF0000000FF0
FF0000000FF0
FF0000000FF0
FF0000000FF0
FF0000000FF0
FF0000000FF0
FF0000000FF0
FF0000000FF0
FF0000000FF0
FF0000000FF0
FF0000000FF0
FF0000000FF0
FF0000000FF0
FF0000000FF0
FF0000000FF0
FF0000000FF0
FF0000000FF0
FF0000000FF0
FF0000000FF0
FF0000000FF0
FF0000000FF0
FF0000000FF0
FF0000000FF0
FF0000000FF0
FF0000000FF0
FF0000000FF0
FF0000000FF0
FF0000000FF0
FF0000000FF0
FF0000000FF0
FF0000000FF0
FF0000000FF0
FF0000000FF0
FF0000000FF0
FF0000000FF0
FF0000000FF0
FF0000000FF0
FF0000000FF0
FF0000000FF0
FF0000000FF0
FF0000000FF0
FF0000000FF0
FF0000000FF0
FF0000000FF0
FF0000000FF0
FF0000000FF0
FF0000000FF0
FF0000000FF0
FF0000000FF0
FF0000000FF0
FF0000000FF0
FF0000000FF0
FF0000000FF0
FF0000000FF0
FF0000000FF0
FF0000000FF0
FF0000000FF0
FF8000001FF0
FF8000001FF0
FFE000007FF0
7FFFFFFFFFE0
7FFFFFFFFFE0
3FFFFFFFFFC0
3FFFFFFFFFC0
1FFFFFFFFF80
07FFFFFFFE00
01FFFFFFF800
ENDCHAR
STARTCHAR 00DB
ENCODING 219
SWIDTH 550 0
DWIDTH 60 0
BBX 44 91 8 1
BITMAP
00001FC00000
00003FE00000
00007FF00000
0000FFF80000
0001FDFC0000
0003F0FE0000
0007E07F0000
000FC01F8000
001F800FC000
003F0007E000
007E0003F000
000000000000
000000000000
000000000000
FF0000000FF0
FF0000000FF0
FF0000000FF0
FF0000000FF0
FF0000000FF0
FF0000000FF0
FF0000000FF0
FF0000000FF0
FF0000000FF0
FF0000000FF0
FF0000000FF0
FF0000000FF0
FF0000000FF0
FF0000000FF0
FF0000000FF0
FF0000000FF0
FF0000000FF0
FF0000000FF0
FF0000000FF0
FF0000000FF0
FF0000000FF0
FF0000000FF0
FF0000000FF0
FF0000000FF0
FF0000000FF0
FF0000000FF0
FF0000000FF0
FF0000000FF0
FF0000000FF0
FF0000000FF0
FF0000000FF0
FF0000000FF0
FF0000000FF0
FF0000000FF0
FF0000000FF0
FF0000000FF0
FF0000000FF0
FF0000000FF0
FF0000000FF0
FF0000000FF0
FF0000000FF0
FF0000000FF0
FF0000000FF0
FF0000000FF0
FF0000000FF0
FF0000000FF0
FF0000000FF0
FF0000000FF0
FF0000000FF0
FF0000000FF0
FF0000000FF0
FF0000000FF0
FF0000000FF0
FF0000000FF0
FF0000000FF0
FF0000000FF0
FF0000000FF0
FF0000000FF0
FF0000000FF0
FF0000000FF0
FF0000000FF0
FF0000000FF0
FF0000000FF0
FF0000000FF0
FF0000000FF0
FF0000000FF0
FF0000000FF0
FF8000001FF0
FF8000001FF0
FFE000007FF0
7FFFFFFFFFE0
7FFFFFFFFFE0
3FFFFFFFFFC0
3FFFFFFFFFC0
1FFFFFFFFF80
07FFFFFFFE00
01FFFFFFF800
ENDCHAR
STARTCHAR 00DC
ENCODING 220
SWIDTH 550 0
DWIDTH 60 0
BBX 44 89 8 0
BITMAP
000FC01F8000
000FC01F8000
000FC01F8000
000FC01F8000
000FC01F8000
000FC01F8000
000000000000
000000000000
000000000000
000000000000
000000000000
000000000000
FF0000000FF0
FF0000000FF0
FF0000000FF0
FF0000000FF0
FF0000000FF0
FF0000000FF0
FF0000000FF0
FF0000000FF0
FF0000000FF0
FF0000000FF0
FF0000000FF0
FF0000000FF0
FF0000000FF0
FF0000000FF0
FF0000000FF0
FF0000000FF0
FF0000000FF0
FF0000000FF0
FF0000000FF0
FF0000000FF0
FF0000000FF0
FF0000000FF0
FF0000000FF0
FF0000000FF0
FF0000000FF0
FF0000000FF0
FF0000000FF0
FF0000000FF0
FF0000000FF0
FF0000000FF0
FF0000000FF0
FF0000000FF0
FF0000000FF0
FF0000000FF0
FF0000000FF0
FF0000000FF0
FF0000000FF0
FF0000000FF0
FF0000000FF0
FF0000000FF0
FF0000000FF0
FF0000000FF0
FF0000000FF0
FF0000000FF0
FF0000000FF0
FF0000000FF0
FF0000000FF0
FF0000000FF0
FF0000000FF0
FF0000000FF0
FF0000000FF0
FF0000000FF0
FF0000000FF0
FF0000000FF0
FF0000000FF0
FF0000000FF0
FF0000000FF0
FF0000000FF0
FF0000000FF0
FF0000000FF0
FF0000000FF0
FF0000000FF0
FF0000000FF0
FF0000000FF0
FF0000000FF0
FF0000000FF0
FF0000000FF0
FF8000001FF0
FF8000001FF0
FFE000007FF0
7FFFFFFFFFE0
7FFFFFFFFFE0
3FFFFFFFFFC0
3FFFFFFFFFC0
1FFFFFFFFF80
07FFFFFFFE00
01FFFFFFF800
ENDCHAR
STARTCHAR 00DD
ENCODING 221
SWIDTH 522 0
DWIDTH 57 0
BBX 56 91 1 1
BITMAP
000000003F8000
000000007F0000
00000000FC0000
00000001F80000
00000007F00000
0000000FE00000
0000001FC00000
0000003F000000
0000007E000000
000000FC000000
000001F8000000
00000000000000
00000000000000
00000000000000
FF8000000001FF
FFC000000003FE
7FE000000003FE
7FE000000007FC
3FF000000007FC
1FF00000000FF8
1FF80000000FF8
0FF80000001FF0
0FFC0000003FF0
07FC0000003FE0
07FE0000007FC0
03FE0000007FC0
03FF000000FF80
01FF000000FF80
00FF800001FF00
00FF800001FF00
007FC00003FE00
007FC00003FE00
003FE00007FC00
003FF00007F800
001FF0000FF800
000FF8001FF000
000FF8001FF000
0007FC003FE000
0007FC003FE000
0003FE007FC000
0003FE007FC000
0001FF00FF8000
0001FF00FF0000
0000FF81FF0000
00007F81FE0000
00007FC3FE0000
00003FC3FC0000
00003FE7FC0000
00001FFFF80000
00001FFFF80000
00000FFFF00000
00000FFFF00000
000007FFE00000
000003FFC00000
000003FFC00000
000001FF800000
000001FF800000
000000FF000000
000000FF000000
000000FF000000
000000FF000000
000000FF000000
000000FF000000
000000FF000000
000000FF000000
000000FF000000
000000FF000000
000000FF000000
000000FF000000
000000FF000000
000000FF000000
000000FF000000
000000FF000000
000000FF000000
000000FF000000
000000FF000000
000000FF000000
000000FF000000
000000FF000000
000000FF000000
000000FF000000
000000FF000000
000000FF000000
000000FF000000
000000FF000000
000000FF000000
000000FF000000
000000FF000000
000000FF000000
000000FF000000
000000FF000000
ENDCHAR
STARTCHAR 00DF
ENCODING 223
SWIDTH 486 0
DWIDTH 53 0
BBX 40 77 8 0
BITMAP
01FFFFFF80
07FFFFFFF0
1FFFFFFFF8
3FFFFFFFFC
3FFFFFFFFE
7FFFFFFFFE
7FF8000FFE
FFC00003FF
FF800001FF
FF000000FF
FF000000FF
FF000000FF
FF000000FF
FF000000FF
FF000000FF
FF000000FF
FF000000FF
FF000000FF
FF000001FF
FF000001FE
FF000003FE
FF00000FFE
FF00001FFC
FF00003FF8
FF0000FFF0
FF0001FFE0
FF0003FFC0
FF0007FF80
FF001FFE00
FF001FFC00
FF003FF000
FF007FE000
FF007FC000
FF00FF8000
FF00FF8000
FF00FF0000
FF00FF0000
FF00FF0000
FF00FF0000
FF00FF0000
FF00FF8000
FF00FF8000
FF007FC000
FF007FF000
FF003FF800
FF001FFE00
FF001FFF00
FF000FFF80
FF0003FFE0
FF0001FFF0
FF0000FFF8
FF00003FFC
FF00001FFE
FF000007FE
FF000003FE
FF000001FF
FF000001FF
FF000000FF
FF000000FF
FF000000FF
FF000000FF
FF000000FF
FF000000FF
FF000000FF
FF000000FF
FF000000FF
FF000000FF
FF000000FF
FF000001FF
FF000001FF
FF00E00FFE
FF00FFFFFE
FF00FFFFFC
FF00FFFFFC
FF00FFFFF8
FF00FFFFF0
FF00FFFF80
ENDCHAR
STARTCHAR 00E0
ENCODING 224
SWIDTH 458 0
DWIDTH 50 0
BBX 37 72 7 0
BITMAP
01FFFFFC00
01FFFFFC00
01FFFFFC00
01FFFFFC00
01FFFFFC00
01FFFFFC00
0000000000
0000000000
0000000000
0000000000
0000000000
0000000000
0000000000
0000000000
0000000000
0000000000
0000000000
FFFFFFFC00
FFFFFFFF00
FFFFFFFFC0
FFFFFFFFE0
FFFFFFFFE0
FFFFFFFFF0
E000007FF0
0000001FF8
0000000FF8
00000007F8
00000007F8
00000007F8
00000007F8
00000007F8
00000007F8
00000007F8
00000007F8
00000007F8
00000007F8
00000007F8
00FFFFFFF8
07FFFFFFF8
1FFFFFFFF8
1FFFFFFFF8
3FFFFFFFF8
7FFFFFFFF8
7FE00007F8
7F800007F8
FF800007F8
FF000007F8
FF000007F8
FF000007F8
FF000007F8
FF000007F8
FF000007F8
FF000007F8
FF000007F8
FF000007F8
FF000007F8
FF000007F8
FF000007F8
FF000007F8
FF000007F8
FF000007F8
FF000007F8
FF000007F8
FF800007F8
FFC00007F8
7FF00007F8
7FFFFFFFF8
3FFFFFFFF8
3FFFFFFFF8
1FFFFFFFF8
07FFFFFFF8
01FFFFFFF8
ENDCHAR
STARTCHAR 00E1
ENCODING 225
SWIDTH 458 0
DWIDTH 50 0
BBX 36 77 7 1
BITMAP
03E0000E00
03E0000E00
03E0000E00
03E0000E00
03E0000E00
03E0000E00
03F0001E00
03F0001E00
01FC007C00
01FFFFFC00
01FFFFFC00
00FFFFF800
007FFFF000
001FFFC000
0000000000
0000000000
0000000000
0000000000
0000000000
0000000000
0000000000
0000000000
FFFFFFF800
FFFFFFFE00
FFFFFFFF80
FFFFFFFFC0
FFFFFFFFC0
FFFFFFFFE0
E00000FFE0
0000003FF0
0000001FF0
0000000FF0
0000000FF0
0000000FF0
0000000FF0
0000000FF0
0000000FF0
0000000FF0
0000000FF0
0000000FF0
0000000FF0
0000000FF0
01FFFFFFF0
07FFFFFFF0
1FFFFFFFF0
3FFFFFFFF0
3FFFFFFFF0
7FFFFFFFF0
7FC0000FF0
FF80000FF0
FF80000FF0
FF00000FF0
FF00000FF0
FF00000FF0
FF00000FF0
FF00000FF0
FF00000FF0
FF00000FF0
FF00000FF0
FF00000FF0
FF00000FF0
FF00000FF0
FF00000FF0
FF00000FF0
FF00000FF0
FF00000FF0
FF00000FF0
FF00000FF0
FF80000FF0
FFC0000FF0
7FF0000FF0
7FFFFFFFF0
3FFFFFFFF0
3FFFFFFFF0
1FFFFFFFF0
07FFFFFFF0
01FFFFFFF0
ENDCHAR
STARTCHAR 00E2
ENCODING 226
SWIDTH 458 0
DWIDTH 50 0
BBX 37 73 7 0
BITMAP
00FC01F800
00FC01F800
00FC01F800
00FC01F800
00FC01F800
00FC01F800
00FC01F800
00FC01F800
0000000000
0000000000
0000000000
0000000000
0000000000
0000000000
0000000000
0000000000
0000000000
0000000000
FFFFFFFC00
FFFFFFFF00
FFFFFFFFC0
FFFFFFFFE0
FFFFFFFFE0
FFFFFFFFF0
E000007FF0
0000001FF8
0000000FF8
00000007F8
00000007F8
00000007F8
00000007F8
00000007F8
00000007F8
00000007F8
00000007F8
00000007F8
00000007F8
00000007F8
00FFFFFFF8
07FFFFFFF8
0FFFFFFFF8
1FFFFFFFF8
3FFFFFFFF8
7FFFFFFFF8
7FE00007F8
7F800007F8
FF800007F8
FF000007F8
FF000007F8
FF000007F8
FF000007F8
FF000007F8
FF000007F8
FF000007F8
FF000007F8
FF000007F8
FF000007F8
FF000007F8
FF000007F8
FF000007F8
FF000007F8
FF000007F8
FF000007F8
FF000007F8
FF800007F8
FFC00007F8
7FF00007F8
7FFFFFFFF8
3FFFFFFFF8
3FFFFFFFF8
1FFFFFFFF8
07FFFFFFF8
01FFFFFFF8
ENDCHAR
STARTCHAR 00E3
ENCODING 227
SWIDTH 504 0
DWIDTH 55 0
BBX 53 92 1 0
BITMAP
00000001FE0000
00000003FC0000
00000007F00000
0000000FE00000
0000001FC00000
0000003F800000
0000007F000000
000000FC000000
000001F8000000
000003F0000000
000007E0000000
00000000000000
00000000000000
00000000000000
00000000000000
000007FF000000
000007FF000000
000007FF800000
00000FFF800000
00000FFF800000
00000FFF800000
00000FFFC00000
00001FFFC00000
00001FFFC00000
00001FFFC00000
00003FDFE00000
00003FDFE00000
00003F9FE00000
00003F8FF00000
00007F8FF00000
00007F0FF00000
00007F0FF00000
0000FF07F80000
0000FF07F80000
0000FE07F80000
0000FE07FC0000
0001FE03FC0000
0001FE03FC0000
0001FC03FC0000
0001FC03FE0000
0003FC01FE0000
0003FC01FE0000
0003F801FE0000
0007F800FF0000
0007F800FF0000
0007F000FF0000
0007F000FF8000
000FF0007F8000
000FF0007F8000
000FE0007F8000
000FE0007FC000
001FE0003FC000
001FE0003FC000
001FC0003FC000
003FC0003FE000
003FC0001FE000
003FC0001FE000
003F80001FF000
007F80000FF000
007F80000FF000
007F00000FF000
00FF00000FF800
00FF000007F800
00FF000007F800
00FE000007F800
01FE000007FC00
01FFFFFFFFFC00
01FFFFFFFFFC00
01FFFFFFFFFE00
03FFFFFFFFFE00
03FFFFFFFFFE00
03FFFFFFFFFE00
07FC000001FF00
07FC000001FF00
07F8000001FF00
07F8000000FF00
0FF8000000FF80
0FF0000000FF80
0FF0000000FF80
1FF00000007FC0
1FF00000007FC0
1FE00000007FC0
1FE00000007FC0
3FE00000003FE0
3FE00000003FE0
3FC00000003FE0
3FC00000001FF0
7FC00000001FF0
7FC00000001FF0
7F800000001FF0
FF800000000FF8
FF800000000FF8
ENDCHAR
STARTCHAR 00E4
ENCODING 228
SWIDTH 458 0
DWIDTH 50 0
BBX 36 77 7 0
BITMAP
03FC000000
01FC000000
00FE000000
007F000000
003F800000
003F800000
001FC00000
000FE00000
0007E00000
0003F00000
0001F80000
0001FC0000
0000FC0000
00007E0000
00003F0000
0000000000
0000000000
0000000000
0000000000
0000000000
0000000000
0000000000
FFFFFFF800
FFFFFFFE00
FFFFFFFF80
FFFFFFFFC0
FFFFFFFFC0
FFFFFFFFE0
E00000FFE0
0000003FF0
0000001FF0
0000000FF0
0000000FF0
0000000FF0
0000000FF0
0000000FF0
0000000FF0
0000000FF0
0000000FF0
0000000FF0
0000000FF0
0000000FF0
01FFFFFFF0
07FFFFFFF0
1FFFFFFFF0
3FFFFFFFF0
3FFFFFFFF0
7FFFFFFFF0
7FC0000FF0
FF80000FF0
FF80000FF0
FF00000FF0
FF00000FF0
FF00000FF0
FF00000FF0
FF00000FF0
FF00000FF0
FF00000FF0
FF00000FF0
FF00000FF0
FF00000FF0
FF00000FF0
FF00000FF0
FF00000FF0
FF00000FF0
FF00000FF0
FF00000FF0
FF00000FF0
FF80000FF0
FFC0000FF0
7FF0000FF0
7FFFFFFFF0
3FFFFFFFF0
3FFFFFFFF0
1FFFFFFFF0
07FFFFFFF0
01FFFFFFF0
ENDCHAR
STARTCHAR 00E5
ENCODING 229
SWIDTH 458 0
DWIDTH 50 0
BBX 34 77 7 0
BITMAP
03F00003C0
0FFC0003C0
1FFE0003C0
3FFF0003C0
3FFF8003C0
7FFFE003C0
7FC3F007C0
7F81F807C0
FF80FC07C0
FF807F0F80
FF003FFF80
FF001FFF80
FF000FFF00
FF0007FF00
FF0003FE00
FF0000F800
0000000000
0000000000
0000000000
0000000000
0000000000
0000000000
FFFFFFE000
FFFFFFFC00
FFFFFFFE00
FFFFFFFF00
FFFFFFFF80
FFFFFFFF80
E000007F80
0000000FC0
00000007C0
00000003C0
00000003C0
00000003C0
00000003C0
00000003C0
00000003C0
00000003C0
00000003C0
00000003C0
00000003C0
00000003C0
00FFFFFFC0
07FFFFFFC0
0FFFFFFFC0
1FFFFFFFC0
3FFFFFFFC0
7FFFFFFFC0
7FE00003C0
7F800003C0
FF800003C0
FF000003C0
FF000003C0
FF000003C0
FF000003C0
FF000003C0
FF000003C0
FF000003C0
FF000003C0
FF000003C0
FF000003C0
FF000003C0
FF000003C0
FF000003C0
FF000003C0
FF000003C0
FF000003C0
FF000003C0
FF800003C0
FFC00003C0
7FF80003C0
7FFFFFFFC0
3FFFFFFFC0
3FFFFFFFC0
1FFFFFFFC0
0FFFFFFFC0
01FFFFFFC0
ENDCHAR
STARTCHAR 00E6
ENCODING 230
SWIDTH 706 0
DWIDTH 77 0
BBX 65 55 7 0
BITMAP
FFFFFFE003FFFFC000
FFFFFFF81FFFFFF000
FFFFFFFE3FFFFFFC00
FFFFFFFF7FFFFFFE00
FFFFFFFF7FFFFFFE00
FFFFFFFFFFFFFFFF00
E00000FFFF0007FF00
0000003FFC0001FF80
0000001FF80000FF80
0000000FF000007F80
0000000FF000007F80
0000000FF000007F80
0000000FF000007F80
0000000FF000007F80
0000000FF000007F80
0000000FF000007F80
0000000FF000007F80
0000000FF000007F80
0000000FF000007F80
0000000FF000007F80
01FFFFFFFFFFFFFF80
07FFFFFFFFFFFFFF80
1FFFFFFFFFFFFFFF80
3FFFFFFFFFFFFFFF80
3FFFFFFFFFFFFFFF80
7FFFFFFFFFFFFFFF80
7FC0000FF000000000
FF80000FF000000000
FF80000FF000000000
FF00000FF000000000
FF00000FF000000000
FF00000FF000000000
FF00000FF000000000
FF00000FF000000000
FF00000FF000000000
FF00000FF000000000
FF00000FF000000000
FF00000FF000000000
FF00000FF000000000
FF00000FF000000000
FF00000FF000000000
FF00000FF000000000
FF00000FF000000000
FF00000FF000000000
FF00000FF000000000
FF00000FF000000000
FF80001FF800000000
FFC0001FFC00000000
7FF000FFFF00000380
7FFFFFFFFFFFFFFF80
3FFFFFFFFFFFFFFF80
3FFFFFFF7FFFFFFF80
1FFFFFFE3FFFFFFF80
07FFFFFC1FFFFFFF80
01FFFFE003FFFFFF80
ENDCHAR
STARTCHAR 00E7
ENCODING 231
SWIDTH 385 0
DWIDTH 42 0
BBX 29 77 8 0
BITMAP
0003F000
0007F000
000FF800
000FF800
001FFC00
003F7E00
003F3E00
007E3F00
00FC1F80
00FC0F80
01F80FC0
03F007C0
03F003E0
07E003F0
0FC001F0
00000000
00000000
00000000
00000000
00000000
00000000
00000000
01FFFFF8
0FFFFFF8
1FFFFFF8
3FFFFFF8
3FFFFFF8
7FFFFFF8
7FFFFFF8
FFC00000
FF800000
FF000000
FF000000
FF000000
FF000000
FF000000
FF000000
FF000000
FF000000
FF000000
FF000000
FF000000
FF000000
FF000000
FF000000
FF000000
FF000000
FF000000
FF000000
FF000000
FF000000
FF000000
FF000000
FF000000
FF000000
FF000000
FF000000
FF000000
FF000000
FF000000
FF000000
FF000000
FF000000
FF000000
FF000000
FF000000
FF000000
FF000000
FF800000
FFC00000
7FF00038
7FFFFFF8
3FFFFFF8
3FFFFFF8
1FFFFFF8
0FFFFFF8
03FFFFF8
ENDCHAR
STARTCHAR 00E8
ENCODING 232
SWIDTH 449 0
DWIDTH 49 0
BBX 36 77 8 0
BITMAP
01FC000000
00FE000000
00FF000000
007F000000
003F800000
001FC00000
000FC00000
0007E00000
0007F00000
0003F80000
0001F80000
0000FC0000
00007E0000
00003E0000
00003F0000
0000000000
0000000000
0000000000
0000000000
0000000000
0000000000
0000000000
01FFFFF800
07FFFFFE00
1FFFFFFF80
3FFFFFFFC0
3FFFFFFFC0
7FFFFFFFE0
7FE0007FE0
FF80001FF0
FF80001FF0
FF00000FF0
FF00000FF0
FF00000FF0
FF00000FF0
FF00000FF0
FF00000FF0
FF00000FF0
FF00000FF0
FF00000FF0
FF00000FF0
FF00000FF0
FFFFFFFFF0
FFFFFFFFF0
FFFFFFFFF0
FFFFFFFFF0
FFFFFFFFF0
FFFFFFFFF0
FF00000000
FF00000000
FF00000000
FF00000000
FF00000000
FF00000000
FF00000000
FF00000000
FF00000000
FF00000000
FF00000000
FF00000000
FF00000000
FF00000000
FF00000000
FF00000000
FF00000000
FF00000000
FF00000000
FF00000000
FF80000000
FFC0000000
7FF0000070
7FFFFFFFF0
3FFFFFFFF0
3FFFFFFFF0
1FFFFFFFF0
07FFFFFFF0
01FFFFFFF0
ENDCHAR
STARTCHAR 00E9
ENCODING 233
SWIDTH 449 0
DWIDTH 49 0
BBX 35 77 8 0
BITMAP
000003FC00
000007FC00
000007F800
00000FF000
00001FE000
00003FC000
00003F8000
00007F0000
0000FE0000
0000FC0000
0001F80000
0003F80000
0007F00000
0007E00000
000FC00000
0000000000
0000000000
0000000000
0000000000
0000000000
0000000000
0000000000
01FFFFF000
07FFFFFE00
1FFFFFFF00
3FFFFFFF80
3FFFFFFFC0
7FFFFFFFC0
7FE000FFC0
FF80003FE0
FF80003FE0
FF00001FE0
FF00001FE0
FF00001FE0
FF00001FE0
FF00001FE0
FF00001FE0
FF00001FE0
FF00001FE0
FF00001FE0
FF00001FE0
FF00001FE0
FFFFFFFFE0
FFFFFFFFE0
FFFFFFFFE0
FFFFFFFFE0
FFFFFFFFE0
FFFFFFFFE0
FF00000000
FF00000000
FF00000000
FF00000000
FF00000000
FF00000000
FF00000000
FF00000000
FF00000000
FF00000000
FF00000000
FF00000000
FF00000000
FF00000000
FF00000000
FF00000000
FF00000000
FF00000000
FF00000000
FF00000000
FF80000000
FFC0000000
7FF00000E0
7FFFFFFFE0
3FFFFFFFE0
3FFFFFFFE0
1FFFFFFFE0
07FFFFFFE0
01FFFFFFE0
ENDCHAR
STARTCHAR 00EA
ENCODING 234
SWIDTH 449 0
DWIDTH 49 0
BBX 33 77 8 0
BITMAP
0001F80000
0003FC0000
0003FE0000
0007FE0000
000FFF0000
001FFF8000
001F9FC000
003F0FC000
007E07E000
007E07F000
00FC03F000
01F801F800
01F000FC00
03F000FE00
07E0007E00
0000000000
0000000000
0000000000
0000000000
0000000000
0000000000
0000000000
01FFFFE000
0FFFFFF800
1FFFFFFC00
3FFFFFFE00
3FFFFFFF00
7FFFFFFF00
7FE0007F00
FF80001F80
FF80001F80
FF00000F80
FF00000F80
FF00000F80
FF00000F80
FF00000F80
FF00000F80
FF00000F80
FF00000F80
FF00000F80
FF00000F80
FF00000F80
FFFFFFFF80
FFFFFFFF80
FFFFFFFF80
FFFFFFFF80
FFFFFFFF80
FFFFFFFF80
FF00000000
FF00000000
FF00000000
FF00000000
FF00000000
FF00000000
FF00000000
FF00000000
FF00000000
FF00000000
FF00000000
FF00000000
FF00000000
FF00000000
FF00000000
FF00000000
FF00000000
FF00000000
FF00000000
FF00000000
FF80000000
FFC0000000
7FF0000380
7FFFFFFF80
3FFFFFFF80
3FFFFFFF80
1FFFFFFF80
0FFFFFFF80
01FFFFFF80
ENDCHAR
STARTCHAR 00EB
ENCODING 235
SWIDTH 449 0
DWIDTH 49 0
BBX 35 73 8 0
BITMAP
00FC03F000
00FC03F000
00FC03F000
00FC03F000
00FC03F000
00FC03F000
00FC03F000
00FC03F000
0000000000
0000000000
0000000000
0000000000
0000000000
0000000000
0000000000
0000000000
0000000000
0000000000
01FFFFF000
07FFFFFE00
1FFFFFFF00
3FFFFFFF80
3FFFFFFFC0
7FFFFFFFC0
7FE000FFC0
FF80003FE0
FF80003FE0
FF00001FE0
FF00001FE0
FF00001FE0
FF00001FE0
FF00001FE0
FF00001FE0
FF00001FE0
FF00001FE0
FF00001FE0
FF00001FE0
FF00001FE0
FFFFFFFFE0
FFFFFFFFE0
FFFFFFFFE0
FFFFFFFFE0
FFFFFFFFE0
FFFFFFFFE0
FF00000000
FF00000000
FF00000000
FF00000000
FF00000000
FF00000000
FF00000000
FF00000000
FF00000000
FF00000000
FF00000000
FF00000000
FF00000000
FF00000000
FF00000000
FF00000000
FF00000000
FF00000000
FF00000000
FF00000000
FF80000000
FFC0000000
7FF00000E0
7FFFFFFFE0
3FFFFFFFE0
3FFFFFFFE0
1FFFFFFFE0
07FFFFFFE0
01FFFFFFE0
ENDCHAR
STARTCHAR 00EC
ENCODING 236
SWIDTH 211 0
DWIDTH 23 0
BBX 20 77 -4 0
BITMAP
FF0000
7F0000
3F8000
1FC000
0FE000
07F000
07F800
03FC00
01FE00
00FF00
007F80
003F80
001FC0
000FE0
0007F0
000000
000000
000000
000000
000000
000000
000000
007FE0
007FE0
007FE0
007FE0
007FE0
007FE0
007FE0
007FE0
007FE0
007FE0
007FE0
007FE0
007FE0
007FE0
007FE0
007FE0
007FE0
007FE0
007FE0
007FE0
007FE0
007FE0
007FE0
007FE0
007FE0
007FE0
007FE0
007FE0
007FE0
007FE0
007FE0
007FE0
007FE0
007FE0
007FE0
007FE0
007FE0
007FE0
007FE0
007FE0
007FE0
007FE0
007FE0
007FE0
007FE0
007FE0
007FE0
007FE0
007FE0
007FE0
007FE0
007FE0
007FE0
007FE0
007FE0
ENDCHAR
STARTCHAR 00ED
ENCODING 237
SWIDTH 211 0
DWIDTH 23 0
BBX 18 77 6 0
BITMAP
003FC0
007F80
00FF00
00FE00
01FC00
03F800
03F000
07F000
0FE000
1FC000
1F8000
3F0000
7E0000
FE0000
FC0000
000000
000000
000000
000000
000000
000000
000000
3F8000
3F8000
3F8000
3F8000
3F8000
3F8000
3F8000
3F8000
3F8000
3F8000
3F8000
3F8000
3F8000
3F8000
3F8000
3F8000
3F8000
3F8000
3F8000
3F8000
3F8000
3F8000
3F8000
3F8000
3F8000
3F8000
3F8000
3F8000
3F8000
3F8000
3F8000
3F8000
3F8000
3F8000
3F8000
3F8000
3F8000
3F8000
3F8000
3F8000
3F8000
3F8000
3F8000
3F8000
3F8000
3F8000
3F8000
3F8000
3F8000
3F8000
3F8000
3F8000
3F8000
3F8000
3F8000
ENDCHAR
STARTCHAR 00EE
ENCODING 238
SWIDTH 211 0
DWIDTH 23 0
BBX 25 77 -1 0
BITMAP
007F0000
007F8000
00FFC000
01FFC000
01FFE000
03F7F000
07F3F000
07E1F800
0FC0FC00
1F80FC00
3F007E00
3F003F00
7E001F00
FC001F80
F8000F80
00000000
00000000
00000000
00000000
00000000
00000000
00000000
007F8000
007F8000
007F8000
007F8000
007F8000
007F8000
007F8000
007F8000
007F8000
007F8000
007F8000
007F8000
007F8000
007F8000
007F8000
007F8000
007F8000
007F8000
007F8000
007F8000
007F8000
007F8000
007F8000
007F8000
007F8000
007F8000
007F8000
007F8000
007F8000
007F8000
007F8000
007F8000
007F8000
007F8000
007F8000
007F8000
007F8000
007F8000
007F8000
007F8000
007F8000
007F8000
007F8000
007F8000
007F8000
007F8000
007F8000
007F8000
007F8000
007F8000
007F8000
007F8000
007F8000
007F8000
007F8000
ENDCHAR
STARTCHAR 00EF
ENCODING 239
SWIDTH 211 0
DWIDTH 23 0
BBX 21 73 1 0
BITMAP
FC01F8
FC01F8
FC01F8
FC01F8
FC01F8
FC01F8
FC01F8
FC01F8
000000
000000
000000
000000
000000
000000
000000
000000
000000
000000
01FE00
01FE00
01FE00
01FE00
01FE00
01FE00
01FE00
01FE00
01FE00
01FE00
01FE00
01FE00
01FE00
01FE00
01FE00
01FE00
01FE00
01FE00
01FE00
01FE00
01FE00
01FE00
01FE00
01FE00
01FE00
01FE00
01FE00
01FE00
01FE00
01FE00
01FE00
01FE00
01FE00
01FE00
01FE00
01FE00
01FE00
01FE00
01FE00
01FE00
01FE00
01FE00
01FE00
01FE00
01FE00
01FE00
01FE00
01FE00
01FE00
01FE00
01FE00
01FE00
01FE00
01FE00
01FE00
ENDCHAR
STARTCHAR 00F0
ENCODING 240
SWIDTH 513 0
DWIDTH 56 0
BBX 39 77 9 1
BITMAP
3FE0000000
3FF0000000
1FF0000000
0FF8010000
07FC038000
03FE0FC000
01FF1FE000
00FFBF8000
007FFF0000
003FFE0000
001FFC0000
000FF80000
001FFC0000
003FFE0000
00FFFE0000
01FFFF0000
03F8FF8000
03F07FC000
01E03FE000
00C01FF000
00000FF800
000007FC00
000003FE00
000003FF00
000001FF80
000000FFC0
0000007FE0
0000003FE0
0000001FF0
0000000FF8
00000007FC
00000003FC
00000001FE
01FFFFFFFE
07FFFFFFFE
1FFFFFFFFE
3FFFFFFFFE
3FFFFFFFFE
7FFFFFFFFE
7FFFFFFFFE
FFC00001FE
FF800001FE
FF800001FE
FF000001FE
FF000001FE
FF000001FE
FF000001FE
FF000001FE
FF000001FE
FF000001FE
FF000001FE
FF000001FE
FF000001FE
FF000001FE
FF000001FE
FF000001FE
FF000001FE
FF000001FE
FF000001FE
FF000001FE
FF000001FE
FF000001FE
FF000001FE
FF000001FE
FF000001FE
FF000001FE
FF000001FE
FF800003FE
FF800003FE
FFE0000FFE
7FFFFFFFFC
7FFFFFFFFC
3FFFFFFFF8
3FFFFFFFF8
1FFFFFFFF0
07FFFFFFC0
01FFFFFF00
ENDCHAR
STARTCHAR 00F1
ENCODING 241
SWIDTH 467 0
DWIDTH 51 0
BBX 36 77 8 0
BITMAP
03E0000FF0
0FF8000FF0
1FFC000FF0
3FFE000FF0
3FFF000FF0
7FFF800FF0
7FC3C00FF0
7F80E01FF0
FF80701FF0
FF803C3FE0
FF001FFFE0
FF000FFFE0
FF0007FFC0
FF0003FFC0
FF0001FF80
FF00007E00
0000000000
0000000000
0000000000
0000000000
0000000000
0000000000
FFFFFFF800
FFFFFFFE00
FFFFFFFF80
FFFFFFFFC0
FFFFFFFFC0
FFFFFFFFE0
FF0001FFE0
FF00003FF0
FF00001FF0
FF00000FF0
FF00000FF0
FF00000FF0
FF00000FF0
FF00000FF0
FF00000FF0
FF00000FF0
FF00000FF0
FF00000FF0
FF00000FF0
FF00000FF0
FF00000FF0
FF00000FF0
FF00000FF0
FF00000FF0
FF00000FF0
FF00000FF0
FF00000FF0
FF00000FF0
FF00000FF0
FF00000FF0
FF00000FF0
FF00000FF0
FF00000FF0
FF00000FF0
FF00000FF0
FF00000FF0
FF00000FF0
FF00000FF0
FF00000FF0
FF00000FF0
FF00000FF0
FF00000FF0
FF00000FF0
FF00000FF0
FF00000FF0
FF00000FF0
FF00000FF0
FF00000FF0
FF00000FF0
FF00000FF0
FF00000FF0
FF00000FF0
FF00000FF0
FF00000FF0
FF00000FF0
ENDCHAR
STARTCHAR 00F2
ENCODING 242
SWIDTH 467 0
DWIDTH 51 0
BBX 36 77 8 0
BITMAP
01FC000000
00FE000000
007F000000
007F800000
003F800000
001FC00000
000FE00000
0007E00000
0003F00000
0003F80000
0001F80000
0000FC0000
00007E0000
00003F0000
00001F0000
0000000000
0000000000
0000000000
0000000000
0000000000
0000000000
0000000000
01FFFFF800
07FFFFFE00
1FFFFFFF80
3FFFFFFFC0
3FFFFFFFC0
7FFFFFFFE0
7FF801FFE0
FFC0003FF0
FF80001FF0
FF00000FF0
FF00000FF0
FF00000FF0
FF00000FF0
FF00000FF0
FF00000FF0
FF00000FF0
FF00000FF0
FF00000FF0
FF00000FF0
FF00000FF0
FF00000FF0
FF00000FF0
FF00000FF0
FF00000FF0
FF00000FF0
FF00000FF0
FF00000FF0
FF00000FF0
FF00000FF0
FF00000FF0
FF00000FF0
FF00000FF0
FF00000FF0
FF00000FF0
FF00000FF0
FF00000FF0
FF00000FF0
FF00000FF0
FF00000FF0
FF00000FF0
FF00000FF0
FF00000FF0
FF00000FF0
FF00000FF0
FF00000FF0
FF00000FF0
FF80001FF0
FFC0001FF0
7FF000FFE0
7FFFFFFFE0
3FFFFFFFC0
3FFFFFFFC0
1FFFFFFF80
07FFFFFE00
01FFFFF800
ENDCHAR
STARTCHAR 00F3
ENCODING 243
SWIDTH 467 0
DWIDTH 51 0
BBX 37 77 8 0
BITMAP
000001FE00
000001FC00
000003F800
000007F800
00000FF000
00000FE000
00001FC000
00003F8000
00007F0000
00007E0000
0000FC0000
0001F80000
0003F80000
0007F00000
0007E00000
0000000000
0000000000
0000000000
0000000000
0000000000
0000000000
0000000000
01FFFFFC00
07FFFFFF00
1FFFFFFFC0
3FFFFFFFE0
3FFFFFFFE0
7FFFFFFFF0
7FF800FFF0
FFC0001FF8
FF80000FF8
FF000007F8
FF000007F8
FF000007F8
FF000007F8
FF000007F8
FF000007F8
FF000007F8
FF000007F8
FF000007F8
FF000007F8
FF000007F8
FF000007F8
FF000007F8
FF000007F8
FF000007F8
FF000007F8
FF000007F8
FF000007F8
FF000007F8
FF000007F8
FF000007F8
FF000007F8
FF000007F8
FF000007F8
FF000007F8
FF000007F8
FF000007F8
FF000007F8
FF000007F8
FF000007F8
FF000007F8
FF000007F8
FF000007F8
FF000007F8
FF000007F8
FF000007F8
FF000007F8
FF80000FF8
FFC0001FF8
7FF0007FF0
7FFFFFFFF0
3FFFFFFFE0
3FFFFFFFE0
1FFFFFFFC0
07FFFFFF00
01FFFFFC00
ENDCHAR
STARTCHAR 00F4
ENCODING 244
SWIDTH 467 0
DWIDTH 51 0
BBX 37 77 8 0
BITMAP
0001FC0000
0003FC0000
0003FE0000
0007FF0000
000FFF8000
000FDF8000
001F8FC000
003F0FE000
003F07E000
007E03F000
00FC01F800
00F801FC00
01F800FC00
03F0007E00
03E0003F00
0000000000
0000000000
0000000000
0000000000
0000000000
0000000000
0000000000
01FFFFFC00
07FFFFFF00
1FFFFFFFC0
3FFFFFFFE0
3FFFFFFFE0
7FFFFFFFF0
7FF800FFF0
FFC0001FF8
FF80000FF8
FF000007F8
FF000007F8
FF000007F8
FF000007F8
FF000007F8
FF000007F8
FF000007F8
FF000007F8
FF000007F8
FF000007F8
FF000007F8
FF000007F8
FF000007F8
FF000007F8
FF000007F8
FF000007F8
FF000007F8
FF000007F8
FF000007F8
FF000007F8
FF000007F8
FF000007F8
FF000007F8
FF000007F8
FF000007F8
FF000007F8
FF000007F8
FF000007F8
FF000007F8
FF000007F8
FF000007F8
FF000007F8
FF000007F8
FF000007F8
FF000007F8
FF000007F8
FF000007F8
FF80000FF8
FFC0001FF8
7FF0007FF0
7FFFFFFFF0
3FFFFFFFE0
3FFFFFFFE0
1FFFFFFFC0
07FFFFFF00
01FFFFFC00
ENDCHAR
STARTCHAR 00F5
ENCODING 245
SWIDTH 467 0
DWIDTH 51 0
BBX 36 77 8 0
BITMAP
03E0000FF0
0FF8000FF0
1FFC000FF0
3FFE000FF0
3FFF000FF0
7FFF800FF0
7FC3C00FF0
7F80E01FF0
FF80701FF0
FF803C3FE0
FF001FFFE0
FF000FFFE0
FF0007FFC0
FF0003FFC0
FF0001FF80
FF00007E00
0000000000
0000000000
0000000000
0000000000
0000000000
0000000000
01FFFFF800
07FFFFFE00
1FFFFFFF80
3FFFFFFFC0
3FFFFFFFC0
7FFFFFFFE0
7FF801FFE0
FFC0003FF0
FF80001FF0
FF00000FF0
FF00000FF0
FF00000FF0
FF00000FF0
FF00000FF0
FF00000FF0
FF00000FF0
FF00000FF0
FF00000FF0
FF00000FF0
FF00000FF0
FF00000FF0
FF00000FF0
FF00000FF0
FF00000FF0
FF00000FF0
FF00000FF0
FF00000FF0
FF00000FF0
FF00000FF0
FF00000FF0
FF00000FF0
FF00000FF0
FF00000FF0
FF00000FF0
FF00000FF0
FF00000FF0
FF00000FF0
FF00000FF0
FF00000FF0
FF00000FF0
FF00000FF0
FF00000FF0
FF00000FF0
FF00000FF0
FF00000FF0
FF00000FF0
FF80001FF0
FFC0001FF0
7FF000FFE0
7FFFFFFFE0
3FFFFFFFC0
3FFFFFFFC0
1FFFFFFF80
07FFFFFE00
01FFFFF800
ENDCHAR
STARTCHAR 00F6
ENCODING 246
SWIDTH 467 0
DWIDTH 51 0
BBX 36 73 8 0
BITMAP
00FC03F000
00FC03F000
00FC03F000
00FC03F000
00FC03F000
00FC03F000
00FC03F000
00FC03F000
0000000000
0000000000
0000000000
0000000000
0000000000
0000000000
0000000000
0000000000
0000000000
0000000000
01FFFFF800
07FFFFFE00
1FFFFFFF80
3FFFFFFFC0
3FFFFFFFC0
7FFFFFFFE0
7FF801FFE0
FFC0003FF0
FF80001FF0
FF00000FF0
FF00000FF0
FF00000FF0
FF00000FF0
FF00000FF0
FF00000FF0
FF00000FF0
FF00000FF0
FF00000FF0
FF00000FF0
FF00000FF0
FF00000FF0
FF00000FF0
FF00000FF0
FF00000FF0
FF00000FF0
FF00000FF0
FF00000FF0
FF00000FF0
FF00000FF0
FF00000FF0
FF00000FF0
FF00000FF0
FF00000FF0
FF00000FF0
FF00000FF0
FF00000FF0
FF00000FF0
FF00000FF0
FF00000FF0
FF00000FF0
FF00000FF0
FF00000FF0
FF00000FF0
FF00000FF0
FF00000FF0
FF00000FF0
FF80001FF0
FFC0001FF0
7FF000FFE0
7FFFFFFFE0
3FFFFFFFC0
3FFFFFFFC0
1FFFFFFF80
07FFFFFE00
01FFFFF800
ENDCHAR
STARTCHAR 00F7
ENCODING 247
SWIDTH 458 0
DWIDTH 50 0
BBX 38 44 6 10
BITMAP
0001FC0000
0001FC0000
0001FC0000
0001FC0000
0001FC0000
0001FC0000
0001FC0000
0000000000
0000000000
0000000000
0000000000
0000000000
0000000000
0000000000
0000000000
0000000000
0000000000
0000000000
FFFFFFFFFC
FFFFFFFFFC
FFFFFFFFFC
FFFFFFFFFC
FFFFFFFFFC
FFFFFFFFFC
FFFFFFFFFC
0000000000
0000000000
0000000000
0000000000
0000000000
0000000000
0000000000
0000000000
0000000000
0000000000
0000000000
0000000000
0001FC0000
0001FC0000
0001FC0000
0001FC0000
0001FC0000
0001FC0000
0001FC0000
ENDCHAR
STARTCHAR 00F8
ENCODING 248
SWIDTH 467 0
DWIDTH 51 0
BBX 48 55 2 0
BITMAP
0007FFFFE01F
001FFFFFF83F
007FFFFFFC7E
00FFFFFFFEFC
00FFFFFFFFF8
01FFFFFFFFF0
01FFE007FFF0
03FF0000FFE0
03FE00007FC0
03FC00003FC0
03FC00003FC0
03FC00003FC0
03FC00007FC0
03FC0000FFC0
03FC0001FFC0
03FC0001FFC0
03FC0003FFC0
03FC0007FFC0
03FC0007BFC0
03FC000F3FC0
03FC001F3FC0
03FC003E3FC0
03FC003C3FC0
03FC007C3FC0
03FC00F83FC0
03FC01F03FC0
03FC01E03FC0
03FC03E03FC0
03FC07C03FC0
03FC0F803FC0
03FC0F003FC0
03FC1F003FC0
03FC3E003FC0
03FC7C003FC0
03FC78003FC0
03FCF8003FC0
03FDF0003FC0
03FFE0003FC0
03FFC0003FC0
03FFC0003FC0
03FF80003FC0
03FF00003FC0
03FE00003FC0
03FE00003FC0
03FC00003FC0
03FC00003FC0
03FE00007FC0
07FE00007FC0
07FFC003FF80
0FFFFFFFFF80
1FFFFFFFFF00
3F7FFFFFFF00
3E3FFFFFFE00
7C1FFFFFF800
F807FFFFE000
ENDCHAR
STARTCHAR 00F9
ENCODING 249
SWIDTH 467 0
DWIDTH 51 0
BBX 36 77 8 0
BITMAP
03F8000000
01FC000000
00FE000000
00FF000000
007F000000
003F800000
001FC00000
000FC00000
0007E00000
0007F00000
0003F80000
0001F80000
0000FC0000
00007E0000
00003E0000
0000000000
0000000000
0000000000
0000000000
0000000000
0000000000
0000000000
FF00000FF0
FF00000FF0
FF00000FF0
FF00000FF0
FF00000FF0
FF00000FF0
FF00000FF0
FF00000FF0
FF00000FF0
FF00000FF0
FF00000FF0
FF00000FF0
FF00000FF0
FF00000FF0
FF00000FF0
FF00000FF0
FF00000FF0
FF00000FF0
FF00000FF0
FF00000FF0
FF00000FF0
FF00000FF0
FF00000FF0
FF00000FF0
FF00000FF0
FF00000FF0
FF00000FF0
FF00000FF0
FF00000FF0
FF00000FF0
FF00000FF0
FF00000FF0
FF00000FF0
FF00000FF0
FF00000FF0
FF00000FF0
FF00000FF0
FF00000FF0
FF00000FF0
FF00000FF0
FF00000FF0
FF00000FF0
FF00000FF0
FF00000FF0
FF00000FF0
FF00000FF0
FF80000FF0
FFC0000FF0
7FF0000FF0
7FFFFFFFF0
3FFFFFFFF0
3FFFFFFFF0
1FFFFFFFF0
07FFFFFFF0
01FFFFFFF0
ENDCHAR
STARTCHAR 00FA
ENCODING 250
SWIDTH 467 0
DWIDTH 51 0
BBX 37 77 8 0
BITMAP
000000FF00
000001FE00
000003FC00
000007F800
000007F000
00000FE000
00001FC000
00003F8000
00003F0000
00007F0000
0000FE0000
0001FC0000
0001F80000
0003F00000
0007E00000
0000000000
0000000000
0000000000
0000000000
0000000000
0000000000
0000000000
FF000007F8
FF000007F8
FF000007F8
FF000007F8
FF000007F8
FF000007F8
FF000007F8
FF000007F8
FF000007F8
FF000007F8
FF000007F8
FF000007F8
FF000007F8
FF000007F8
FF000007F8
FF000007F8
FF000007F8
FF000007F8
FF000007F8
FF000007F8
FF000007F8
FF000007F8
FF000007F8
FF000007F8
FF000007F8
FF000007F8
FF000007F8
FF000007F8
FF000007F8
FF000007F8
FF000007F8
FF000007F8
FF000007F8
FF000007F8
FF000007F8
FF000007F8
FF000007F8
FF000007F8
FF000007F8
FF000007F8
FF000007F8
FF000007F8
FF000007F8
FF000007F8
FF000007F8
FF000007F8
FF800007F8
FFC00007F8
7FF00007F8
7FFFFFFFF8
3FFFFFFFF8
3FFFFFFFF8
1FFFFFFFF8
07FFFFFFF8
01FFFFFFF8
ENDCHAR
STARTCHAR 00FB
ENCODING 251
SWIDTH 467 0
DWIDTH 51 0
BBX 37 77 8 0
BITMAP
0001FC0000
0003FC0000
0003FE0000
0007FF0000
000FFF8000
000FDF8000
001F8FC000
003F0FE000
003F07E000
007E03F000
00FC01F800
00F801FC00
01F800FC00
03F0007E00
03E0003F00
0000000000
0000000000
0000000000
0000000000
0000000000
0000000000
0000000000
FF000007F8
FF000007F8
FF000007F8
FF000007F8
FF000007F8
FF000007F8
FF000007F8
FF000007F8
FF000007F8
FF000007F8
FF000007F8
FF000007F8
FF000007F8
FF000007F8
FF000007F8
FF000007F8
FF000007F8
FF000007F8
FF000007F8
FF000007F8
FF000007F8
FF000007F8
FF000007F8
FF000007F8
FF000007F8
FF000007F8
FF000007F8
FF000007F8
FF000007F8
FF000007F8
FF000007F8
FF000007F8
FF000007F8
FF000007F8
FF000007F8
FF000007F8
FF000007F8
FF000007F8
FF000007F8
FF000007F8
FF000007F8
FF000007F8
FF000007F8
FF000007F8
FF000007F8
FF000007F8
FF800007F8
FFC00007F8
7FF00007F8
7FFFFFFFF8
3FFFFFFFF8
3FFFFFFFF8
1FFFFFFFF8
07FFFFFFF8
01FFFFFFF8
ENDCHAR
STARTCHAR 00FC
ENCODING 252
SWIDTH 467 0
DWIDTH 51 0
BBX 36 73 8 0
BITMAP
00FC03F000
00FC03F000
00FC03F000
00FC03F000
00FC03F000
00FC03F000
00FC03F000
00FC03F000
0000000000
0000000000
0000000000
0000000000
0000000000
0000000000
0000000000
0000000000
0000000000
0000000000
FF00000FF0
FF00000FF0
FF00000FF0
FF00000FF0
FF00000FF0
FF00000FF0
FF00000FF0
FF00000FF0
FF00000FF0
FF00000FF0
FF00000FF0
FF00000FF0
FF00000FF0
FF00000FF0
FF00000FF0
FF00000FF0
FF00000FF0
FF00000FF0
FF00000FF0
FF00000FF0
FF00000FF0
FF00000FF0
FF00000FF0
FF00000FF0
FF00000FF0
FF00000FF0
FF00000FF0
FF00000FF0
FF00000FF0
FF00000FF0
FF00000FF0
FF00000FF0
FF00000FF0
FF00000FF0
FF00000FF0
FF00000FF0
FF00000FF0
FF00000FF0
FF00000FF0
FF00000FF0
FF00000FF0
FF00000FF0
FF00000FF0
FF00000FF0
FF00000FF0
FF00000FF0
FF80000FF0
FFC0000FF0
7FF0000FF0
7FFFFFFFF0
3FFFFFFFF0
3FFFFFFFF0
1FFFFFFFF0
07FFFFFFF0
01FFFFFFF0
ENDCHAR
STARTCHAR 00FD
ENCODING 253
SWIDTH 412 0
DWIDTH 45 0
BBX 42 99 1 -22
BITMAP
0000001FE000
0000003FC000
0000007F8000
0000007F0000
000000FE0000
000001FC0000
000001F80000
000003F00000
000007F00000
00000FE00000
00000FC00000
00001F800000
00003F000000
00003E000000
00007C000000
000000000000
000000000000
000000000000
000000000000
000000000000
000000000000
000000000000
FF8000007FC0
FF8000007FC0
7F8000007F80
7F8000007F80
7FC00000FF80
3FC00000FF00
3FC00000FF00
3FC00000FF00
1FE00001FE00
1FE00001FE00
1FE00001FE00
1FE00003FC00
0FF00003FC00
0FF00003FC00
0FF00003F800
07F00007F800
07F80007F800
07F80007F800
07F80007F000
03F8000FF000
03FC000FF000
03FC000FE000
01FC001FE000
01FC001FE000
01FE001FC000
00FE001FC000
00FE003FC000
00FE003F8000
00FF003F8000
007F003F8000
007F007F8000
007F807F0000
003F807F0000
003F80FF0000
003F80FE0000
001FC0FE0000
001FC0FE0000
001FC1FC0000
001FC1FC0000
000FE1FC0000
000FE1F80000
000FE3F80000
0007E3F80000
0007F3F00000
0007F7F00000
0003F7F00000
0003F7F00000
0003FFE00000
0003FFE00000
0001FFE00000
0001FFC00000
0001FFC00000
0000FFC00000
0000FF800000
0000FF800000
00007F800000
00007F000000
0000FF000000
0000FF000000
0000FE000000
0001FE000000
0001FE000000
0001FE000000
0003FC000000
0003FC000000
0003FC000000
0007F8000000
0007F8000000
0007F8000000
0007F0000000
000FF0000000
000FF0000000
000FE0000000
001FE0000000
001FE0000000
001FC0000000
003FC0000000
ENDCHAR
STARTCHAR 00FF
ENCODING 255
SWIDTH 412 0
DWIDTH 45 0
BBX 42 95 1 -22
BITMAP
003F003F0000
003F003F0000
003F003F0000
003F003F0000
003F003F0000
003F003F0000
003F003F0000
003F003F0000
000000000000
000000000000
000000000000
000000000000
000000000000
000000000000
000000000000
000000000000
000000000000
000000000000
FF0000003FC0
FF8000003FC0
7F8000007F80
7F8000007F80
7F8000007F80
3FC000007F00
3FC00000FF00
3FC00000FF00
3FE00000FE00
1FE00001FE00
1FE00001FE00
1FE00001FE00
0FF00001FC00
0FF00003FC00
0FF00003FC00
07F00003F800
07F80003F800
07F80007F800
07F80007F000
03FC0007F000
03FC0007F000
03FC000FF000
01FC000FE000
01FE000FE000
01FE001FE000
01FE001FC000
00FF001FC000
00FF001FC000
00FF003F8000
007F003F8000
007F803F8000
007F803F0000
003F807F0000
003F807F0000
003FC07F0000
003FC07E0000
001FC0FE0000
001FE0FE0000
001FE0FC0000
000FE1FC0000
000FE1FC0000
000FF1F80000
000FF1F80000
0007F3F80000
0007F3F80000
0007FBF00000
0003FBF00000
0003FFF00000
0003FFE00000
0001FFE00000
0001FFE00000
0001FFC00000
0001FFC00000
0000FFC00000
0000FFC00000
00003F800000
00007F800000
00007F800000
0000FF000000
0000FF000000
0000FF000000
0001FE000000
0001FE000000
0001FE000000
0003FE000000
0003FC000000
0003FC000000
0007FC000000
0007F8000000
0007F8000000
000FF8000000
000FF0000000
000FF0000000
001FF0000000
001FE0000000
003FE0000000
003FE0000000
ENDCHAR
STARTCHAR 0100
ENCODING 256
SWIDTH 504 0
DWIDTH 55 0
BBX 53 99 1 -21
BITMAP
000007FF000000
000007FF000000
000007FF000000
00000FFF800000
00000FFF800000
00000FFF800000
00000FFFC00000
00001FFFC00000
00001FFFC00000
00001FFFC00000
00001FDFE00000
00003FDFE00000
00003F9FE00000
00003F8FE00000
00007F8FF00000
00007F0FF00000
00007F0FF00000
00007F07F00000
0000FF07F80000
0000FE07F80000
0000FE07F80000
0000FE03FC0000
0001FE03FC0000
0001FC03FC0000
0001FC03FC0000
0001FC01FE0000
0003FC01FE0000
0003F801FE0000
0003F800FE0000
0007F800FF0000
0007F000FF0000
0007F000FF0000
0007F0007F8000
000FF0007F8000
000FE0007F8000
000FE0007F8000
000FE0003FC000
001FE0003FC000
001FC0003FC000
001FC0003FC000
003FC0001FE000
003FC0001FE000
003F80001FE000
003F80000FE000
007F80000FF000
007F00000FF000
007F00000FF000
007F000007F800
00FF000007F800
00FE000007F800
00FE000007F800
01FFFFFFFFFC00
01FFFFFFFFFC00
01FFFFFFFFFC00
01FFFFFFFFFC00
03FFFFFFFFFE00
03FFFFFFFFFE00
03FC000001FE00
03FC000001FE00
07F8000001FF00
07F8000001FF00
07F8000000FF00
07F8000000FF80
0FF0000000FF80
0FF0000000FF80
0FF00000007F80
1FF00000007FC0
1FE00000007FC0
1FE00000007FC0
1FE00000003FC0
3FE00000003FE0
3FE00000003FE0
3FC00000003FE0
3FC00000001FF0
7FC00000001FF0
7FC00000001FF0
7F800000001FF0
FF800000000FF8
FF800000000FF8
000000000003F0
00000000001F80
00000000007E00
0000000003F800
0000000007E000
000000001F8000
000000003F0000
000000007E0000
000000007C0000
00000000FC0000
00000000FC0000
00000000FC0000
00000000FC0000
00000000FE0000
00000000FF0000
00000000FFFFF8
000000007FFFF8
000000007FFFF8
000000003FFFF8
0000000007FFF8
ENDCHAR
STARTCHAR 0101
ENCODING 257
SWIDTH 458 0
DWIDTH 50 0
BBX 36 77 7 -22
BITMAP
FFFFFFF800
FFFFFFFE00
FFFFFFFF80
FFFFFFFFC0
FFFFFFFFC0
FFFFFFFFE0
E00000FFE0
0000003FF0
0000001FF0
0000000FF0
0000000FF0
0000000FF0
0000000FF0
0000000FF0
0000000FF0
0000000FF0
0000000FF0
0000000FF0
0000000FF0
0000000FF0
01FFFFFFF0
07FFFFFFF0
0FFFFFFFF0
1FFFFFFFF0
3FFFFFFFF0
7FFFFFFFF0
7FC0000FF0
7F80000FF0
FF80000FF0
FF00000FF0
FF00000FF0
FF00000FF0
FF00000FF0
FF00000FF0
FF00000FF0
FF00000FF0
FF00000FF0
FF00000FF0
FF00000FF0
FF00000FF0
FF00000FF0
FF00000FF0
FF00000FF0
FF00000FF0
FF00000FF0
FF00000FF0
FF80000FF0
FFC0000FF0
FFF0000FF0
7FFFFFFFF0
7FFFFFFFF0
7FFFFFFFF0
3FFFFFFFF0
1FFFFFFFF0
1FFFFFFFF0
07FFFFFFF0
01FFFFFFF0
0000001FE0
0000007F00
000001FC00
000007F000
00001FC000
00003F0000
00007E0000
00007C0000
0000FC0000
0000FC0000
0000FC0000
0000FC0000
0000FC0000
0000FC0000
0000FE0000
0000FFFFF0
00007FFFF0
00007FFFF0
00003FFFF0
00000FFFF0
ENDCHAR
STARTCHAR 0102
ENCODING 258
SWIDTH 504 0
DWIDTH 55 0
BBX 53 92 1 0
BITMAP
000000FC000000
000001FC000000
000003FE000000
000007FF000000
00000FFF800000
00001F8FC00000
00003F07E00000
00007E03F00000
0000FC01F80000
0001F800FC0000
0003F0007E0000
00000000000000
00000000000000
00000000000000
00000000000000
000003FF000000
000007FF800000
000007FF800000
000007FF800000
00000FFF800000
00000FFFC00000
00000FFFC00000
00000FFFC00000
00001FFFC00000
00001FDFE00000
00001FDFE00000
00001FDFE00000
00003FCFF00000
00003F8FF00000
00003F8FF00000
00007F8FF00000
00007F87F80000
00007F07F80000
00007F07F80000
0000FF07F80000
0000FE03FC0000
0000FE03FC0000
0001FE03FC0000
0001FE03FC0000
0001FC01FE0000
0001FC01FE0000
0003FC01FE0000
0003FC00FF0000
0003F800FF0000
0007F800FF0000
0007F800FF0000
0007F8007F8000
0007F0007F8000
000FF0007F8000
000FF0007F8000
000FE0003FC000
001FE0003FC000
001FE0003FC000
001FE0003FE000
001FC0001FE000
003FC0001FE000
003FC0001FE000
003FC0001FF000
007F80000FF000
007F80000FF000
007F80000FF000
007F800007F800
00FF000007F800
00FF000007F800
00FF000007FC00
01FF000003FC00
01FFFFFFFFFC00
01FFFFFFFFFC00
01FFFFFFFFFE00
03FFFFFFFFFE00
03FFFFFFFFFE00
03FFFFFFFFFE00
03FC000001FF00
07FC000001FF00
07FC000001FF00
07F8000000FF80
0FF8000000FF80
0FF8000000FF80
0FF8000000FF80
0FF00000007FC0
1FF00000007FC0
1FF00000007FC0
1FF00000003FC0
3FE00000003FE0
3FE00000003FE0
3FE00000003FE0
3FC00000001FF0
7FC00000001FF0
7FC00000001FF0
7FC00000001FF0
FF800000000FF8
FF800000000FF8
ENDCHAR
STARTCHAR 0103
ENCODING 259
SWIDTH 458 0
DWIDTH 50 0
BBX 37 77 7 0
BITMAP
0001FC0000
0001FE0000
0003FE0000
0007FF0000
0007FF8000
000FDFC000
001F8FC000
003F8FE000
003F07F000
007E03F000
00FC01F800
00FC00FC00
01F800FE00
03F0007E00
03E0003F00
0000000000
0000000000
0000000000
0000000000
0000000000
0000000000
0000000000
FFFFFFFC00
FFFFFFFF00
FFFFFFFFC0
FFFFFFFFE0
FFFFFFFFE0
FFFFFFFFF0
E000007FF0
0000001FF8
0000000FF8
00000007F8
00000007F8
00000007F8
00000007F8
00000007F8
00000007F8
00000007F8
00000007F8
00000007F8
00000007F8
00000007F8
00FFFFFFF8
07FFFFFFF8
1FFFFFFFF8
1FFFFFFFF8
3FFFFFFFF8
7FFFFFFFF8
7FE00007F8
7F800007F8
FF800007F8
FF000007F8
FF000007F8
FF000007F8
FF000007F8
FF000007F8
FF000007F8
FF000007F8
FF000007F8
FF000007F8
FF000007F8
FF000007F8
FF000007F8
FF000007F8
FF000007F8
FF000007F8
FF000007F8
FF000007F8
FF800007F8
FFC00007F8
7FF00007F8
7FFFFFFFF8
3FFFFFFFF8
3FFFFFFFF8
1FFFFFFFF8
07FFFFFFF8
01FFFFFFF8
ENDCHAR
STARTCHAR 0104
ENCODING 260
SWIDTH 504 0
DWIDTH 55 0
BBX 53 92 1 0
BITMAP
00001FFFC00000
00007FFFF00000
0000FFFFF80000
0001F801FC0000
0001F0007C0000
0001F0007C0000
0001F0007C0000
0001F0007C0000
0001F8007C0000
0001FC00FC0000
0000FFFFF80000
00007FFFF00000
00001FFFC00000
00000000000000
00000000000000
000003FF000000
000003FF000000
000007FF000000
000007FF800000
000007FF800000
00000FFF800000
00000FFF800000
00000FFFC00000
00000FFFC00000
00001FDFC00000
00001FDFC00000
00001FDFE00000
00003FDFE00000
00003F8FE00000
00003F8FF00000
00003F8FF00000
00007F8FF00000
00007F07F00000
00007F07F80000
0000FF07F80000
0000FE07F80000
0000FE03FC0000
0000FE03FC0000
0001FE03FC0000
0001FC03FC0000
0001FC01FE0000
0003FC01FE0000
0003FC01FE0000
0003F801FE0000
0003F800FF0000
0007F800FF0000
0007F800FF0000
0007F000FF8000
000FF0007F8000
000FF0007F8000
000FF0007F8000
000FE0007FC000
001FE0003FC000
001FE0003FC000
001FE0003FE000
003FC0003FE000
003FC0001FE000
003FC0001FE000
003F80001FF000
007F80001FF000
007F80000FF000
007F80000FF800
00FF00000FF800
00FF00000FF800
00FF000007F800
00FF000007FC00
01FFFFFFFFFC00
01FFFFFFFFFC00
01FFFFFFFFFC00
03FFFFFFFFFE00
03FFFFFFFFFE00
03FFFFFFFFFE00
03FC000003FF00
07FC000001FF00
07FC000001FF00
07FC000001FF00
0FF8000001FF80
0FF8000000FF80
0FF8000000FF80
0FF0000000FFC0
1FF00000007FC0
1FF00000007FC0
1FF00000007FC0
3FE00000007FE0
3FE00000003FE0
3FE00000003FE0
3FE00000003FE0
7FC00000003FF0
7FC00000001FF0
7FC00000001FF0
FFC00000001FF8
FF800000000FF8
ENDCHAR
STARTCHAR 0105
ENCODING 261
SWIDTH 458 0
DWIDTH 50 0
BBX 37 79 7 0
BITMAP
001FFF8000
007FFFE000
00FFFFF800
01FFFFF800
03F801FC00
03F000FC00
03E0007C00
03E0007C00
03E0007C00
03E0007C00
03E0007C00
03E0007C00
03F000FC00
03F801FC00
01FFFFF800
01FFFFF800
00FFFFE000
001FFF8000
0000000000
0000000000
0000000000
0000000000
0000000000
0000000000
FFFFFFFC00
FFFFFFFF00
FFFFFFFFC0
FFFFFFFFE0
FFFFFFFFE0
FFFFFFFFF0
E000007FF0
0000001FF8
0000000FF8
00000007F8
00000007F8
00000007F8
00000007F8
00000007F8
00000007F8
00000007F8
00000007F8
00000007F8
00000007F8
00000007F8
01FFFFFFF8
07FFFFFFF8
1FFFFFFFF8
3FFFFFFFF8
3FFFFFFFF8
7FFFFFFFF8
7FE00007F8
FF800007F8
FF800007F8
FF000007F8
FF000007F8
FF000007F8
FF000007F8
FF000007F8
FF000007F8
FF000007F8
FF000007F8
FF000007F8
FF000007F8
FF000007F8
FF000007F8
FF000007F8
FF000007F8
FF000007F8
FF000007F8
FF000007F8
FF800007F8
FFC00007F8
7FF00007F8
7FFFFFFFF8
3FFFFFFFF8
3FFFFFFFF8
1FFFFFFFF8
07FFFFFFF8
01FFFFFFF8
ENDCHAR
STARTCHAR 0106
ENCODING 262
SWIDTH 477 0
DWIDTH 52 0
BBX 39 91 8 1
BITMAP
003F0003F0
001F8007E0
000FC00FC0
0007E01F80
0003F03F00
0001FCFE00
0000FFFC00
00007FF800
00003FF000
00001FE000
00000FC000
0000000000
0000000000
0000000000
01FFFFFFFE
0FFFFFFFFE
1FFFFFFFFE
3FFFFFFFFE
3FFFFFFFFE
7FFFFFFFFE
7FFFFFFFFE
FFE0000002
FF80000000
FF80000000
FF00000000
FF00000000
FF00000000
FF00000000
FF00000000
FF00000000
FF00000000
FF00000000
FF00000000
FF00000000
FF00000000
FF00000000
FF00000000
FF00000000
FF00000000
FF00000000
FF00000000
FF00000000
FF00000000
FF00000000
FF00000000
FF00000000
FF00000000
FF00000000
FF00000000
FF00000000
FF00000000
FF00000000
FF00000000
FF00000000
FF00000000
FF00000000
FF00000000
FF00000000
FF00000000
FF00000000
FF00000000
FF00000000
FF00000000
FF00000000
FF00000000
FF00000000
FF00000000
FF00000000
FF00000000
FF00000000
FF00000000
FF00000000
FF00000000
FF00000000
FF00000000
FF00000000
FF00000000
FF00000000
FF00000000
FF00000000
FF00000000
FF80000000
FF80000000
FFE0000002
7FFFFFFFFE
7FFFFFFFFE
3FFFFFFFFE
3FFFFFFFFE
1FFFFFFFFE
0FFFFFFFFE
01FFFFFFFE
ENDCHAR
STARTCHAR 0107
ENCODING 263
SWIDTH 385 0
DWIDTH 42 0
BBX 32 77 8 0
BITMAP
07E0003F
03F0003E
01F8007E
00FC00FC
00FC01F8
007E01F8
003F03F0
003F87E0
001F8FC0
000FDFC0
000FFF80
0007FF00
0003FF00
0001FE00
0001FC00
00000000
00000000
00000000
00000000
00000000
00000000
00000000
01FFFFFF
07FFFFFF
1FFFFFFF
3FFFFFFF
3FFFFFFF
7FFFFFFF
7FFFFFFF
FFC00000
FF800000
FF000000
FF000000
FF000000
FF000000
FF000000
FF000000
FF000000
FF000000
FF000000
FF000000
FF000000
FF000000
FF000000
FF000000
FF000000
FF000000
FF000000
FF000000
FF000000
FF000000
FF000000
FF000000
FF000000
FF000000
FF000000
FF000000
FF000000
FF000000
FF000000
FF000000
FF000000
FF000000
FF000000
FF000000
FF000000
FF000000
FF000000
FF800000
FFC00000
7FF8000F
7FFFFFFF
3FFFFFFF
3FFFFFFF
1FFFFFFF
07FFFFFF
01FFFFFF
ENDCHAR
STARTCHAR 0108
ENCODING 264
SWIDTH 477 0
DWIDTH 52 0
BBX 38 88 8 0
BITMAP
00007F0000
00007F0000
00007F0000
00007F0000
00007F0000
00007F0000
0000000000
0000000000
0000000000
0000000000
0000000000
01FFFFFFFC
0FFFFFFFFC
1FFFFFFFFC
3FFFFFFFFC
3FFFFFFFFC
7FFFFFFFFC
7FFFFFFFFC
FFE0000004
FF80000000
FF80000000
FF00000000
FF00000000
FF00000000
FF00000000
FF00000000
FF00000000
FF00000000
FF00000000
FF00000000
FF00000000
FF00000000
FF00000000
FF00000000
FF00000000
FF00000000
FF00000000
FF00000000
FF00000000
FF00000000
FF00000000
FF00000000
FF00000000
FF00000000
FF00000000
FF00000000
FF00000000
FF00000000
FF00000000
FF00000000
FF00000000
FF00000000
FF00000000
FF00000000
FF00000000
FF00000000
FF00000000
FF00000000
FF00000000
FF00000000
FF00000000
FF00000000
FF00000000
FF00000000
FF00000000
FF00000000
FF00000000
FF00000000
FF00000000
FF00000000
FF00000000
FF00000000
FF00000000
FF00000000
FF00000000
FF00000000
FF00000000
FF00000000
FF80000000
FF80000000
FFE0000004
7FFFFFFFFC
7FFFFFFFFC
7FFFFFFFFC
3FFFFFFFFC
1FFFFFFFFC
0FFFFFFFFC
03FFFFFFFC
ENDCHAR
STARTCHAR 0109
ENCODING 265
SWIDTH 385 0
DWIDTH 42 0
BBX 30 71 8 0
BITMAP
000FF000
000FF000
000FF000
000FF000
000FF000
000FF000
000FF000
000FF000
00000000
00000000
00000000
00000000
00000000
00000000
00000000
00000000
01FFFFFC
0FFFFFFC
1FFFFFFC
3FFFFFFC
3FFFFFFC
7FFFFFFC
7FFFFFFC
FFC00000
FF800000
FF000000
FF000000
FF000000
FF000000
FF000000
FF000000
FF000000
FF000000
FF000000
FF000000
FF000000
FF000000
FF000000
FF000000
FF000000
FF000000
FF000000
FF000000
FF000000
FF000000
FF000000
FF000000
FF000000
FF000000
FF000000
FF000000
FF000000
FF000000
FF000000
FF000000
FF000000
FF000000
FF000000
FF000000
FF000000
FF000000
FF000000
FF800000
FFC00000
7FF8003C
7FFFFFFC
3FFFFFFC
3FFFFFFC
1FFFFFFC
0FFFFFFC
01FFFFFC
ENDCHAR
STARTCHAR 010A
ENCODING 266
SWIDTH 550 0
DWIDTH 60 0
BBX 44 91 8 1
BITMAP
00FC000FC000
007E001F8000
003F003F0000
001F807E0000
000FE0FC0000
0007F1F80000
0003FBF00000
0001FFE00000
0000FFC00000
00007F800000
00003F000000
000000000000
000000000000
000000000000
FFFFFFFFF800
FFFFFFFFFE00
FFFFFFFFFF80
FFFFFFFFFFC0
FFFFFFFFFFC0
FFFFFFFFFFE0
FFFFFFFFFFE0
FF0000007FF0
FF0000001FF0
FF0000001FF0
FF0000000FF0
FF0000000FF0
FF0000000FF0
FF0000000FF0
FF0000000FF0
FF0000000FF0
FF0000000FF0
FF0000000FF0
FF0000000FF0
FF0000000FF0
FF0000000FF0
FF0000000FF0
FF0000000FF0
FF0000000FF0
FF0000000FF0
FF0000000FF0
FF0000000FF0
FF0000000FF0
FF0000000FF0
FF0000000FF0
FF0000000FF0
FF0000000FF0
FF0000000FF0
FF0000000FF0
FF0000000FF0
FF0000000FF0
FF0000000FF0
FF0000000FF0
FF0000000FF0
FF0000000FF0
FF0000000FF0
FF0000000FF0
FF0000000FF0
FF0000000FF0
FF0000000FF0
FF0000000FF0
FF0000000FF0
FF0000000FF0
FF0000000FF0
FF0000000FF0
FF0000000FF0
FF0000000FF0
FF0000000FF0
FF0000000FF0
FF0000000FF0
FF0000000FF0
FF0000000FF0
FF0000000FF0
FF0000000FF0
FF0000000FF0
FF0000000FF0
FF0000000FF0
FF0000000FF0
FF0000000FF0
FF0000000FF0
FF0000000FF0
FF0000000FF0
FF0000001FF0
FF0000001FF0
FF0000007FF0
FFFFFFFFFFE0
FFFFFFFFFFE0
FFFFFFFFFFC0
FFFFFFFFFFC0
FFFFFFFFFF80
FFFFFFFFFE00
FFFFFFFFF800
ENDCHAR
STARTCHAR 010B
ENCODING 267
SWIDTH 477 0
DWIDTH 52 0
BBX 41 91 8 1
BITMAP
0000000FE000
0000001FC000
0000003F8000
0000007F0000
000000FC0000
000001F80000
000003F00000
000007E00000
00000FC00000
00001F800000
00003E000000
000000000000
000000000000
000000000000
01FFFFFFFF80
07FFFFFFFF80
1FFFFFFFFF80
3FFFFFFFFF80
3FFFFFFFFF80
7FFFFFFFFF80
7FFFFFFFFF80
FFE000000180
FF8000000000
FF8000000000
FF0000000000
FF0000000000
FF0000000000
FF0000000000
FF0000000000
FF0000000000
FF0000000000
FF0000000000
FF0000000000
FF0000000000
FF0000000000
FF0000000000
FF0000000000
FF0000000000
FF0000000000
FF0000000000
FF0000000000
FF0000000000
FF0000000000
FF0000000000
FF0000000000
FF0000000000
FF0000000000
FF0000000000
FF0000000000
FF0000000000
FF0000000000
FF0000000000
FF0000000000
FF0000000000
FF0000000000
FF0000000000
FF0000000000
FF0000000000
FF0000000000
FF0000000000
FF0000000000
FF0000000000
FF0000000000
FF0000000000
FF0000000000
FF0000000000
FF0000000000
FF0000000000
FF0000000000
FF0000000000
FF0000000000
FF0000000000
FF0000000000
FF0000000000
FF0000000000
FF0000000000
FF0000000000
FF0000000000
FF0000000000
FF0000000000
FF0000000000
FF8000000000
FF8000000000
FFE000000180
7FFFFFFFFF80
7FFFFFFFFF80
3FFFFFFFFF80
3FFFFFFFFF80
1FFFFFFFFF80
07FFFFFFFF80
01FFFFFFFF80
ENDCHAR
STARTCHAR 010C
ENCODING 268
SWIDTH 477 0
DWIDTH 52 0
BBX 41 99 8 -22
BITMAP
01FFFFFFFF80
07FFFFFFFF80
1FFFFFFFFF80
3FFFFFFFFF80
3FFFFFFFFF80
7FFFFFFFFF80
7FFFFFFFFF80
FFE000000180
FF8000000000
FF8000000000
FF0000000000
FF0000000000
FF0000000000
FF0000000000
FF0000000000
FF0000000000
FF0000000000
FF0000000000
FF0000000000
FF0000000000
FF0000000000
FF0000000000
FF0000000000
FF0000000000
FF0000000000
FF0000000000
FF0000000000
FF0000000000
FF0000000000
FF0000000000
FF0000000000
FF0000000000
FF0000000000
FF0000000000
FF0000000000
FF0000000000
FF0000000000
FF0000000000
FF0000000000
FF0000000000
FF0000000000
FF0000000000
FF0000000000
FF0000000000
FF0000000000
FF0000000000
FF0000000000
FF0000000000
FF0000000000
FF0000000000
FF0000000000
FF0000000000
FF0000000000
FF0000000000
FF0000000000
FF0000000000
FF0000000000
FF0000000000
FF0000000000
FF0000000000
FF0000000000
FF0000000000
FF0000000000
FF0000000000
FF0000000000
FF0000000000
FF0000000000
FF8000000000
FF8000000000
FFE000000180
7FFFFFFFFF80
7FFFFFFFFF80
3FFFFFFFFF80
3FFFFFFFFF80
1FFFFFFFFF80
07FFFFFFFF80
01FFFFFFFF80
000007800000
00000F800000
00000F800000
00000F800000
00001F000000
00001FFE0000
00001FFF8000
00003FFFC000
0000001FC000
0000000FE000
00000007E000
00000007E000
00000007E000
00000007E000
00000007E000
00000007E000
0000000FE000
0000001FE000
0001FFFFC000
0003FFFF8000
0003FFFF0000
0003FFFC0000
ENDCHAR
STARTCHAR 010D
ENCODING 269
SWIDTH 385 0
DWIDTH 42 0
BBX 29 77 8 -22
BITMAP
01FFFFF8
0FFFFFF8
1FFFFFF8
3FFFFFF8
3FFFFFF8
7FFFFFF8
7FFFFFF8
FFC00000
FF800000
FF000000
FF000000
FF000000
FF000000
FF000000
FF000000
FF000000
FF000000
FF000000
FF000000
FF000000
FF000000
FF000000
FF000000
FF000000
FF000000
FF000000
FF000000
FF000000
FF000000
FF000000
FF000000
FF000000
FF000000
FF000000
FF000000
FF000000
FF000000
FF000000
FF000000
FF000000
FF000000
FF000000
FF000000
FF000000
FF000000
FF000000
FF800000
FFC00000
7FF00078
7FFFFFF8
3FFFFFF8
3FFFFFF8
1FFFFFF8
07FFFFF8
01FFFFF8
0003C000
0003C000
0003C000
00038000
00078000
0007FE00
0007FF80
0007FFC0
00000FC0
00000FE0
000007E0
000007E0
000007E0
000007E0
000007E0
000007E0
00000FE0
00001FE0
007FFFC0
007FFFC0
007FFF80
007FFE00
ENDCHAR
STARTCHAR 010E
ENCODING 270
SWIDTH 550 0
DWIDTH 60 0
BBX 44 88 8 0
BITMAP
007FFFFF0000
007FFFFF0000
007FFFFF0000
007FFFFF0000
007FFFFF0000
000000000000
000000000000
000000000000
000000000000
000000000000
000000000000
FFFFFFFFF800
FFFFFFFFFE00
FFFFFFFFFF80
FFFFFFFFFFC0
FFFFFFFFFFC0
FFFFFFFFFFE0
FFFFFFFFFFE0
FF0000007FF0
FF0000001FF0
FF0000001FF0
FF0000000FF0
FF0000000FF0
FF0000000FF0
FF0000000FF0
FF0000000FF0
FF0000000FF0
FF0000000FF0
FF0000000FF0
FF0000000FF0
FF0000000FF0
FF0000000FF0
FF0000000FF0
FF0000000FF0
FF0000000FF0
FF0000000FF0
FF0000000FF0
FF0000000FF0
FF0000000FF0
FF0000000FF0
FF0000000FF0
FF0000000FF0
FF0000000FF0
FF0000000FF0
FF0000000FF0
FF0000000FF0
FF0000000FF0
FF0000000FF0
FF0000000FF0
FF0000000FF0
FF0000000FF0
FF0000000FF0
FF0000000FF0
FF0000000FF0
FF0000000FF0
FF0000000FF0
FF0000000FF0
FF0000000FF0
FF0000000FF0
FF0000000FF0
FF0000000FF0
FF0000000FF0
FF0000000FF0
FF0000000FF0
FF0000000FF0
FF0000000FF0
FF0000000FF0
FF0000000FF0
FF0000000FF0
FF0000000FF0
FF0000000FF0
FF0000000FF0
FF0000000FF0
FF0000000FF0
FF0000000FF0
FF0000000FF0
FF0000000FF0
FF0000000FF0
FF0000001FF0
FF0000001FF0
FF0000007FF0
FFFFFFFFFFE0
FFFFFFFFFFE0
FFFFFFFFFFC0
FFFFFFFFFFC0
FFFFFFFFFF80
FFFFFFFFFE00
FFFFFFFFF800
ENDCHAR
STARTCHAR 010F
ENCODING 271
SWIDTH 467 0
DWIDTH 51 0
BBX 42 78 8 0
BITMAP
00000007F800
00000007F800
00000007F800
00000007F800
00000007F800
00000007F800
00003FFFFFC0
00003FFFFFC0
00003FFFFFC0
00003FFFFFC0
00003FFFFFC0
00003FFFFFC0
00000007F800
00000007F800
00000007F800
00000007F800
00000007F800
00000007F800
00000007F800
00000007F800
00000007F800
00000007F800
00000007F800
00FFFFFFF800
07FFFFFFF800
1FFFFFFFF800
3FFFFFFFF800
3FFFFFFFF800
7FFFFFFFF800
7FF80007F800
7FC00007F800
FF800007F800
FF000007F800
FF000007F800
FF000007F800
FF000007F800
FF000007F800
FF000007F800
FF000007F800
FF000007F800
FF000007F800
FF000007F800
FF000007F800
FF000007F800
FF000007F800
FF000007F800
FF000007F800
FF000007F800
FF000007F800
FF000007F800
FF000007F800
FF000007F800
FF000007F800
FF000007F800
FF000007F800
FF000007F800
FF000007F800
FF000007F800
FF000007F800
FF000007F800
FF000007F800
FF000007F800
FF000007F800
FF000007F800
FF000007F800
FF000007F800
FF000007F800
FF000007F800
FF000007F800
FF800007F800
FFC00007F800
7FF00007F800
7FFFFFFFF800
3FFFFFFFF800
3FFFFFFFF800
1FFFFFFFF800
07FFFFFFF800
01FFFFFFF800
ENDCHAR
STARTCHAR 0111
ENCODING 273
SWIDTH 467 0
DWIDTH 51 0
BBX 36 78 8 0
BITMAP
0000000FF0
0000000FF0
0000000FF0
0000000FF0
0000000FF0
0000000FF0
07FFFFFFF0
07FFFFFFF0
07FFFFFFF0
07FFFFFFF0
07FFFFFFF0
07FFFFFFF0
0000000FF0
0000000FF0
0000000FF0
0000000FF0
0000000FF0
0000000FF0
0000000FF0
0000000FF0
0000000FF0
0000000FF0
0000000FF0
01FFFFFFF0
07FFFFFFF0
1FFFFFFFF0
3FFFFFFFF0
3FFFFFFFF0
7FFFFFFFF0
7FF8000FF0
FFC0000FF0
FF80000FF0
FF00000FF0
FF00000FF0
FF00000FF0
FF00000FF0
FF00000FF0
FF00000FF0
FF00000FF0
FF00000FF0
FF00000FF0
FF00000FF0
FF00000FF0
FF00000FF0
FF00000FF0
FF00000FF0
FF00000FF0
FF00000FF0
FF00000FF0
FF00000FF0
FF00000FF0
FF00000FF0
FF00000FF0
FF00000FF0
FF00000FF0
FF00000FF0
FF00000FF0
FF00000FF0
FF00000FF0
FF00000FF0
FF00000FF0
FF00000FF0
FF00000FF0
FF00000FF0
FF00000FF0
FF00000FF0
FF00000FF0
FF00000FF0
FF00000FF0
FF80000FF0
FFC0000FF0
7FF0000FF0
7FFFFFFFF0
3FFFFFFFF0
3FFFFFFFF0
1FFFFFFFF0
07FFFFFFF0
01FFFFFFF0
ENDCHAR
STARTCHAR 0112
ENCODING 274
SWIDTH 477 0
DWIDTH 52 0
BBX 42 88 8 0
BITMAP
001FFFFFC000
001FFFFFC000
001FFFFFC000
001FFFFFC000
001FFFFFC000
000000000000
000000000000
000000000000
000000000000
000000000000
000000000000
FFFFFFFFFF00
FFFFFFFFFF00
FFFFFFFFFF00
FFFFFFFFFF00
FFFFFFFFFF00
FFFFFFFFFF00
FFFFFFFFFF00
FF0000000000
FF0000000000
FF0000000000
FF0000000000
FF0000000000
FF0000000000
FF0000000000
FF0000000000
FF0000000000
FF0000000000
FF0000000000
FF0000000000
FF0000000000
FF0000000000
FF0000000000
FF0000000000
FF0000000000
FF0000000000
FF0000000000
FF0000000000
FF0000000000
FF0000000000
FF0000000000
FF0000000000
FF0000000000
FF0000000000
FFFFFFFFC000
FFFFFFFFC000
FFFFFFFFC000
FFFFFFFFC000
FFFFFFFFC000
FFFFFFFFC000
FFFFFFFFC000
FF0000000000
FF0000000000
FF0000000000
FF0000000000
FF0000000000
FF0000000000
FF0000000000
FF0000000000
FF0000000000
FF0000000000
FF0000000000
FF0000000000
FF0000000000
FF0000000000
FF0000000000
FF0000000000
FF0000000000
FF0000000000
FF0000000000
FF0000000000
FF0000000000
FF0000000000
FF0000000000
FF0000000000
FF0000000000
FF0000000000
FF0000000000
FF0000000000
FF0000000000
FF0000000000
FFFFFFFFFFC0
FFFFFFFFFFC0
FFFFFFFFFFC0
FFFFFFFFFFC0
FFFFFFFFFFC0
FFFFFFFFFFC0
FFFFFFFFFFC0
ENDCHAR
STARTCHAR 0113
ENCODING 275
SWIDTH 449 0
DWIDTH 49 0
BBX 35 72 8 0
BITMAP
01FFFFFC00
01FFFFFC00
01FFFFFC00
01FFFFFC00
01FFFFFC00
01FFFFFC00
0000000000
0000000000
0000000000
0000000000
0000000000
0000000000
0000000000
0000000000
0000000000
0000000000
0000000000
01FFFFF000
07FFFFFE00
1FFFFFFF00
3FFFFFFF80
3FFFFFFFC0
7FFFFFFFC0
7FE000FFC0
FF80003FE0
FF80003FE0
FF00001FE0
FF00001FE0
FF00001FE0
FF00001FE0
FF00001FE0
FF00001FE0
FF00001FE0
FF00001FE0
FF00001FE0
FF00001FE0
FF00001FE0
FFFFFFFFE0
FFFFFFFFE0
FFFFFFFFE0
FFFFFFFFE0
FFFFFFFFE0
FFFFFFFFE0
FF00000000
FF00000000
FF00000000
FF00000000
FF00000000
FF00000000
FF00000000
FF00000000
FF00000000
FF00000000
FF00000000
FF00000000
FF00000000
FF00000000
FF00000000
FF00000000
FF00000000
FF00000000
FF00000000
FF00000000
FF80000000
FF80000000
7FF0000C00
7FFFFFFC00
7FFFFFFC00
3FFFFFFC00
1FFFFFFC00
0FFFFFFC00
03FFFFFC00
ENDCHAR
STARTCHAR 0114
ENCODING 276
SWIDTH 477 0
DWIDTH 52 0
BBX 42 91 8 0
BITMAP
00F80007C000
00F80007C000
00F80007C000
00F80007C000
00F80007C000
00FC000FC000
007E001F8000
007FFFFF8000
003FFFFF0000
001FFFFE0000
0007FFF80000
000000000000
000000000000
000000000000
FFFFFFFFFF00
FFFFFFFFFF00
FFFFFFFFFF00
FFFFFFFFFF00
FFFFFFFFFF00
FFFFFFFFFF00
FFFFFFFFFF00
FF0000000000
FF0000000000
FF0000000000
FF0000000000
FF0000000000
FF0000000000
FF0000000000
FF0000000000
FF0000000000
FF0000000000
FF0000000000
FF0000000000
FF0000000000
FF0000000000
FF0000000000
FF0000000000
FF0000000000
FF0000000000
FF0000000000
FF0000000000
FF0000000000
FF0000000000
FF0000000000
FF0000000000
FF0000000000
FF0000000000
FFFFFFFFC000
FFFFFFFFC000
FFFFFFFFC000
FFFFFFFFC000
FFFFFFFFC000
FFFFFFFFC000
FFFFFFFFC000
FF0000000000
FF0000000000
FF0000000000
FF0000000000
FF0000000000
FF0000000000
FF0000000000
FF0000000000
FF0000000000
FF0000000000
FF0000000000
FF0000000000
FF0000000000
FF0000000000
FF0000000000
FF0000000000
FF0000000000
FF0000000000
FF0000000000
FF0000000000
FF0000000000
FF0000000000
FF0000000000
FF0000000000
FF0000000000
FF0000000000
FF0000000000
FF0000000000
FF0000000000
FF0000000000
FFFFFFFFFFC0
FFFFFFFFFFC0
FFFFFFFFFFC0
FFFFFFFFFFC0
FFFFFFFFFFC0
FFFFFFFFFFC0
FFFFFFFFFFC0
ENDCHAR
STARTCHAR 0115
ENCODING 277
SWIDTH 449 0
DWIDTH 49 0
BBX 36 77 8 1
BITMAP
0700000C00
0700000C00
0700000C00
0700000C00
0700000C00
0700000C00
0780001C00
07C0001C00
03E0007800
03FFFFF800
03FFFFF800
01FFFFF000
00FFFFE000
003FFF8000
0000000000
0000000000
0000000000
0000000000
0000000000
0000000000
0000000000
0000000000
01FFFFF800
07FFFFFE00
1FFFFFFF80
3FFFFFFFC0
3FFFFFFFC0
7FFFFFFFE0
7FE0007FE0
FF80001FF0
FF80001FF0
FF00000FF0
FF00000FF0
FF00000FF0
FF00000FF0
FF00000FF0
FF00000FF0
FF00000FF0
FF00000FF0
FF00000FF0
FF00000FF0
FF00000FF0
FFFFFFFFF0
FFFFFFFFF0
FFFFFFFFF0
FFFFFFFFF0
FFFFFFFFF0
FFFFFFFFF0
FF00000000
FF00000000
FF00000000
FF00000000
FF00000000
FF00000000
FF00000000
FF00000000
FF00000000
FF00000000
FF00000000
FF00000000
FF00000000
FF00000000
FF00000000
FF00000000
FF00000000
FF00000000
FF00000000
FF00000000
FF80000000
FFC0000000
7FF0000070
7FFFFFFFF0
3FFFFFFFF0
3FFFFFFFF0
1FFFFFFFF0
07FFFFFFF0
01FFFFFFF0
ENDCHAR
STARTCHAR 0116
ENCODING 278
SWIDTH 477 0
DWIDTH 52 0
BBX 42 88 8 0
BITMAP
00003F800000
00003F800000
00003F800000
00003F800000
00003F800000
00003F800000
000000000000
000000000000
000000000000
000000000000
000000000000
FFFFFFFFFF00
FFFFFFFFFF00
FFFFFFFFFF00
FFFFFFFFFF00
FFFFFFFFFF00
FFFFFFFFFF00
FFFFFFFFFF00
FF0000000000
FF0000000000
FF0000000000
FF0000000000
FF0000000000
FF0000000000
FF0000000000
FF0000000000
FF0000000000
FF0000000000
FF0000000000
FF0000000000
FF0000000000
FF0000000000
FF0000000000
FF0000000000
FF0000000000
FF0000000000
FF0000000000
FF0000000000
FF0000000000
FF0000000000
FF0000000000
FF0000000000
FF0000000000
FF0000000000
FFFFFFFFC000
FFFFFFFFC000
FFFFFFFFC000
FFFFFFFFC000
FFFFFFFFC000
FFFFFFFFC000
FFFFFFFFC000
FF0000000000
FF0000000000
FF0000000000
FF0000000000
FF0000000000
FF0000000000
FF0000000000
FF0000000000
FF0000000000
FF0000000000
FF0000000000
FF0000000000
FF0000000000
FF0000000000
FF0000000000
FF0000000000
FF0000000000
FF0000000000
FF0000000000
FF0000000000
FF0000000000
FF0000000000
FF0000000000
FF0000000000
FF0000000000
FF0000000000
FF0000000000
FF0000000000
FF0000000000
FF0000000000
FFFFFFFFFFC0
FFFFFFFFFFC0
FFFFFFFFFFC0
FFFFFFFFFFC0
FFFFFFFFFFC0
FFFFFFFFFFC0
FFFFFFFFFFC0
ENDCHAR
STARTCHAR 0117
ENCODING 279
SWIDTH 449 0
DWIDTH 49 0
BBX 36 71 8 0
BITMAP
0001FE0000
0001FE0000
0001FE0000
0001FE0000
0001FE0000
0001FE0000
0001FE0000
0001FE0000
0000000000
0000000000
0000000000
0000000000
0000000000
0000000000
0000000000
0000000000
01FFFFF800
07FFFFFE00
1FFFFFFF80
3FFFFFFFC0
3FFFFFFFC0
7FFFFFFFE0
7FE0007FE0
FF80001FF0
FF80001FF0
FF00000FF0
FF00000FF0
FF00000FF0
FF00000FF0
FF00000FF0
FF00000FF0
FF00000FF0
FF00000FF0
FF00000FF0
FF00000FF0
FF00000FF0
FFFFFFFFF0
FFFFFFFFF0
FFFFFFFFF0
FFFFFFFFF0
FFFFFFFFF0
FFFFFFFFF0
FF00000000
FF00000000
FF00000000
FF00000000
FF00000000
FF00000000
FF00000000
FF00000000
FF00000000
FF00000000
FF00000000
FF00000000
FF00000000
FF00000000
FF00000000
FF00000000
FF00000000
FF00000000
FF00000000
FF00000000
FF80000000
FFC0000000
7FF0000070
7FFFFFFFF0
3FFFFFFFF0
3FFFFFFFF0
1FFFFFFFF0
07FFFFFFF0
01FFFFFFF0
ENDCHAR
STARTCHAR 0118
ENCODING 280
SWIDTH 477 0
DWIDTH 52 0
BBX 38 99 8 -22
BITMAP
FFFFFFFFF0
FFFFFFFFF0
FFFFFFFFF0
FFFFFFFFF0
FFFFFFFFF0
FFFFFFFFF0
FFFFFFFFF0
FF00000000
FF00000000
FF00000000
FF00000000
FF00000000
FF00000000
FF00000000
FF00000000
FF00000000
FF00000000
FF00000000
FF00000000
FF00000000
FF00000000
FF00000000
FF00000000
FF00000000
FF00000000
FF00000000
FF00000000
FF00000000
FF00000000
FF00000000
FF00000000
FF00000000
FF00000000
FFFFFFFC00
FFFFFFFC00
FFFFFFFC00
FFFFFFFC00
FFFFFFFC00
FFFFFFFC00
FFFFFFFC00
FF00000000
FF00000000
FF00000000
FF00000000
FF00000000
FF00000000
FF00000000
FF00000000
FF00000000
FF00000000
FF00000000
FF00000000
FF00000000
FF00000000
FF00000000
FF00000000
FF00000000
FF00000000
FF00000000
FF00000000
FF00000000
FF00000000
FF00000000
FF00000000
FF00000000
FF00000000
FF00000000
FF00000000
FF00000000
FF00000000
FFFFFFFFFC
FFFFFFFFFC
FFFFFFFFFC
FFFFFFFFFC
FFFFFFFFFC
FFFFFFFFFC
FFFFFFFFFC
FFFFFFFFFC
FFFFFFFFFC
00000007E0
0000001F00
000000FC00
000003F000
000007C000
00001F8000
00003F0000
00007E0000
00007C0000
0000FC0000
0000FC0000
0000FC0000
0000FC0000
0000FE0000
0000FF0000
0000FFFFE0
00007FFFE0
00007FFFE0
00003FFFE0
00000FFFE0
ENDCHAR
STARTCHAR 0119
ENCODING 281
SWIDTH 449 0
DWIDTH 49 0
BBX 36 77 8 -22
BITMAP
01FFFFF800
07FFFFFE00
0FFFFFFF80
1FFFFFFFC0
3FFFFFFFC0
7FFFFFFFE0
7FE0007FE0
7F80001FF0
FF80001FF0
FF00000FF0
FF00000FF0
FF00000FF0
FF00000FF0
FF00000FF0
FF00000FF0
FF00000FF0
FF00000FF0
FF00000FF0
FF00000FF0
FF00000FF0
FFFFFFFFF0
FFFFFFFFF0
FFFFFFFFF0
FFFFFFFFF0
FFFFFFFFF0
FFFFFFFFF0
FF00000000
FF00000000
FF00000000
FF00000000
FF00000000
FF00000000
FF00000000
FF00000000
FF00000000
FF00000000
FF00000000
FF00000000
FF00000000
FF00000000
FF00000000
FF00000000
FF00000000
FF00000000
FF00000000
FF00000000
FF80000000
FFC0000000
FFF0000070
FFFFFFFFF0
7FFFFFFFF0
7FFFFFFFF0
7FFFFFFFF0
3FFFFFFFF0
1FFFFFFFF0
0FFFFFFFF0
03FFFFFFF0
0000001F80
000000FC00
000007E000
00001F0000
0000FC0000
0001F00000
0007E00000
000FC00000
000F800000
001F800000
001F800000
001F800000
001F800000
001FC00000
001FE00000
001FFFFF80
000FFFFF80
000FFFFF80
0003FFFF80
0000FFFF80
ENDCHAR
STARTCHAR 011A
ENCODING 282
SWIDTH 477 0
DWIDTH 52 0
BBX 41 91 8 1
BITMAP
01FC00078000
00FE000F0000
007F003F0000
003F807E0000
001FC0FC0000
000FF1F80000
0007FBF00000
0003FFE00000
0001FFC00000
00007F800000
00003F000000
000000000000
000000000000
000000000000
FFFFFFFFFE00
FFFFFFFFFE00
FFFFFFFFFE00
FFFFFFFFFE00
FFFFFFFFFE00
FFFFFFFFFE00
FFFFFFFFFE00
FF0000000000
FF0000000000
FF0000000000
FF0000000000
FF0000000000
FF0000000000
FF0000000000
FF0000000000
FF0000000000
FF0000000000
FF0000000000
FF0000000000
FF0000000000
FF0000000000
FF0000000000
FF0000000000
FF0000000000
FF0000000000
FF0000000000
FF0000000000
FF0000000000
FF0000000000
FF0000000000
FF0000000000
FF0000000000
FF0000000000
FFFFFFFFE000
FFFFFFFFE000
FFFFFFFFE000
FFFFFFFFE000
FFFFFFFFE000
FFFFFFFFE000
FFFFFFFFE000
FF0000000000
FF0000000000
FF0000000000
FF0000000000
FF0000000000
FF0000000000
FF0000000000
FF0000000000
FF0000000000
FF0000000000
FF0000000000
FF0000000000
FF0000000000
FF0000000000
FF0000000000
FF0000000000
FF0000000000
FF0000000000
FF0000000000
FF0000000000
FF0000000000
FF0000000000
FF0000000000
FF0000000000
FF0000000000
FF0000000000
FF0000000000
FF0000000000
FF0000000000
FF0000000000
FFFFFFFFFF80
FFFFFFFFFF80
FFFFFFFFFF80
FFFFFFFFFF80
FFFFFFFFFF80
FFFFFFFFFF80
FFFFFFFFFF80
ENDCHAR
STARTCHAR 011B
ENCODING 283
SWIDTH 449 0
DWIDTH 49 0
BBX 34 77 8 0
BITMAP
07E0001F80
03F0003F00
01F8007E00
01FC00FE00
00FE00FC00
007E01F800
003F03F000
003F87F000
001FCFE000
000FCFC000
000FFF8000
0007FF8000
0003FF0000
0001FE0000
0001FE0000
0000000000
0000000000
0000000000
0000000000
0000000000
0000000000
0000000000
01FFFFE000
07FFFFFC00
1FFFFFFE00
3FFFFFFF00
3FFFFFFF80
7FFFFFFF80
7FE0007F80
FF80000FC0
FF80000FC0
FF000007C0
FF000007C0
FF000007C0
FF000007C0
FF000007C0
FF000007C0
FF000007C0
FF000007C0
FF000007C0
FF000007C0
FF000007C0
FFFFFFFFC0
FFFFFFFFC0
FFFFFFFFC0
FFFFFFFFC0
FFFFFFFFC0
FFFFFFFFC0
FF00000000
FF00000000
FF00000000
FF00000000
FF00000000
FF00000000
FF00000000
FF00000000
FF00000000
FF00000000
FF00000000
FF00000000
FF00000000
FF00000000
FF00000000
FF00000000
FF00000000
FF00000000
FF00000000
FF00000000
FF80000000
FFC0000000
7FF00001C0
7FFFFFFFC0
3FFFFFFFC0
3FFFFFFFC0
1FFFFFFFC0
07FFFFFFC0
01FFFFFFC0
ENDCHAR
STARTCHAR 011C
ENCODING 284
SWIDTH 550 0
DWIDTH 60 0
BBX 44 91 8 1
BITMAP
00000FE00000
00001FF00000
00003FF80000
00007FFC0000
0000FCFE0000
0001F87E0000
0003F03F0000
0007E01F8000
000FC00FC000
001F8007E000
003F0003F000
000000000000
000000000000
000000000000
01FFFFFFFFF0
07FFFFFFFFF0
1FFFFFFFFFF0
3FFFFFFFFFF0
3FFFFFFFFFF0
7FFFFFFFFFF0
7FFFFFFFFFF0
FFE000000030
FF8000000000
FF8000000000
FF0000000000
FF0000000000
FF0000000000
FF0000000000
FF0000000000
FF0000000000
FF0000000000
FF0000000000
FF0000000000
FF0000000000
FF0000000000
FF0000000000
FF0000000000
FF0000000000
FF0000000000
FF0000000000
FF0000000000
FF0000000000
FF0000000000
FF0000000000
FF0000000000
FF0000000000
FF0000000000
FF0003FFFFF0
FF0003FFFFF0
FF0003FFFFF0
FF0003FFFFF0
FF0003FFFFF0
FF0003FFFFF0
FF0003FFFFF0
FF0000000FF0
FF0000000FF0
FF0000000FF0
FF0000000FF0
FF0000000FF0
FF0000000FF0
FF0000000FF0
FF0000000FF0
FF0000000FF0
FF0000000FF0
FF0000000FF0
FF0000000FF0
FF0000000FF0
FF0000000FF0
FF0000000FF0
FF0000000FF0
FF0000000FF0
FF0000000FF0
FF0000000FF0
FF0000000FF0
FF0000000FF0
FF0000000FF0
FF0000000FF0
FF0000000FF0
FF0000000FF0
FF0000000FF0
FF0000000FF0
FF8000001FF0
FF8000001FF0
FFE000007FF0
7FFFFFFFFFE0
7FFFFFFFFFE0
3FFFFFFFFFC0
3FFFFFFFFFC0
1FFFFFFFFF80
07FFFFFFFE00
01FFFFFFF800
ENDCHAR
STARTCHAR 011D
ENCODING 285
SWIDTH 467 0
DWIDTH 51 0
BBX 37 99 8 -22
BITMAP
0000FE0000
0001FE0000
0001FF0000
0003FF8000
0007FFC000
0007EFC000
000FCFE000
001F87F000
001F83F000
003F01F800
007E00FC00
007C00FE00
00FC007E00
01F8003F00
03F0001F80
0000000000
0000000000
0000000000
0000000000
0000000000
0000000000
0000000000
01FFFFFFF8
07FFFFFFF8
1FFFFFFFF8
3FFFFFFFF8
3FFFFFFFF8
7FFFFFFFF8
7FF80007F8
FFC00007F8
FF800007F8
FF000007F8
FF000007F8
FF000007F8
FF000007F8
FF000007F8
FF000007F8
FF000007F8
FF000007F8
FF000007F8
FF000007F8
FF000007F8
FF000007F8
FF000007F8
FF000007F8
FF000007F8
FF000007F8
FF000007F8
FF000007F8
FF000007F8
FF000007F8
FF000007F8
FF000007F8
FF000007F8
FF000007F8
FF000007F8
FF000007F8
FF000007F8
FF000007F8
FF000007F8
FF000007F8
FF000007F8
FF000007F8
FF000007F8
FF000007F8
FF000007F8
FF000007F8
FF000007F8
FF800007F8
FFC00007F8
7FF00007F8
7FFFFFFFF8
3FFFFFFFF8
3FFFFFFFF8
1FFFFFFFF8
07FFFFFFF8
01FFFFFFF8
00000007F8
00000007F8
00000007F8
00000007F8
00000007F8
00000007F8
00000007F8
00000007F8
00000007F8
00000007F8
00000007F8
00000007F8
00000007F8
0000000FF8
0000001FF8
E00000FFF0
FFFFFFFFF0
FFFFFFFFE0
FFFFFFFFC0
FFFFFFFF80
FFFFFFFF00
FFFFFFF800
ENDCHAR
STARTCHAR 011E
ENCODING 286
SWIDTH 550 0
DWIDTH 60 0
BBX 44 91 8 0
BITMAP
007C0003E000
007C0003E000
007C0003E000
007C0003E000
007C0003E000
007E0007E000
003F000FC000
003FFFFFC000
001FFFFF8000
000FFFFF0000
0003FFFC0000
000000000000
000000000000
000000000000
01FFFFFFFFF0
07FFFFFFFFF0
1FFFFFFFFFF0
3FFFFFFFFFF0
3FFFFFFFFFF0
7FFFFFFFFFF0
7FFFFFFFFFF0
FFE000000030
FF8000000000
FF8000000000
FF0000000000
FF0000000000
FF0000000000
FF0000000000
FF0000000000
FF0000000000
FF0000000000
FF0000000000
FF0000000000
FF0000000000
FF0000000000
FF0000000000
FF0000000000
FF0000000000
FF0000000000
FF0000000000
FF0000000000
FF0000000000
FF0000000000
FF0000000000
FF0000000000
FF0000000000
FF0000000000
FF0007FFFFF0
FF0007FFFFF0
FF0007FFFFF0
FF0007FFFFF0
FF0007FFFFF0
FF0007FFFFF0
FF0007FFFFF0
FF0000000FF0
FF0000000FF0
FF0000000FF0
FF0000000FF0
FF0000000FF0
FF0000000FF0
FF0000000FF0
FF0000000FF0
FF0000000FF0
FF0000000FF0
FF0000000FF0
FF0000000FF0
FF0000000FF0
FF0000000FF0
FF0000000FF0
FF0000000FF0
FF0000000FF0
FF0000000FF0
FF0000000FF0
FF0000000FF0
FF0000000FF0
FF0000000FF0
FF0000000FF0
FF0000000FF0
FF0000000FF0
FF0000000FF0
FF0000000FF0
FF8000001FF0
FF8000001FF0
FFE000007FF0
7FFFFFFFFFE0
7FFFFFFFFFE0
3FFFFFFFFFC0
3FFFFFFFFFC0
1FFFFFFFFF80
07FFFFFFFE00
01FFFFFFF800
ENDCHAR
STARTCHAR 011F
ENCODING 287
SWIDTH 467 0
DWIDTH 51 0
BBX 36 99 8 -21
BITMAP
0700000C00
0700000C00
0700000C00
0700000C00
0700000C00
0700000C00
0780001C00
07C0001C00
03E0007800
03FFFFF800
03FFFFF800
01FFFFF000
00FFFFE000
003FFF8000
0000000000
0000000000
0000000000
0000000000
0000000000
0000000000
0000000000
0000000000
01FFFFFFF0
07FFFFFFF0
1FFFFFFFF0
3FFFFFFFF0
3FFFFFFFF0
7FFFFFFFF0
7FF8000FF0
FFC0000FF0
FF80000FF0
FF00000FF0
FF00000FF0
FF00000FF0
FF00000FF0
FF00000FF0
FF00000FF0
FF00000FF0
FF00000FF0
FF00000FF0
FF00000FF0
FF00000FF0
FF00000FF0
FF00000FF0
FF00000FF0
FF00000FF0
FF00000FF0
FF00000FF0
FF00000FF0
FF00000FF0
FF00000FF0
FF00000FF0
FF00000FF0
FF00000FF0
FF00000FF0
FF00000FF0
FF00000FF0
FF00000FF0
FF00000FF0
FF00000FF0
FF00000FF0
FF00000FF0
FF00000FF0
FF00000FF0
FF00000FF0
FF00000FF0
FF00000FF0
FF00000FF0
FF80000FF0
FFC0000FF0
7FF0000FF0
7FFFFFFFF0
7FFFFFFFF0
3FFFFFFFF0
1FFFFFFFF0
0FFFFFFFF0
03FFFFFFF0
0000000FF0
0000000FF0
0000000FF0
0000000FF0
0000000FF0
0000000FF0
0000000FF0
0000000FF0
0000000FF0
0000000FF0
0000000FF0
0000000FF0
0000000FF0
0000001FF0
0000003FF0
E00001FFE0
FFFFFFFFE0
FFFFFFFFC0
FFFFFFFFC0
FFFFFFFF80
FFFFFFFE00
FFFFFFF800
ENDCHAR
STARTCHAR 0120
ENCODING 288
SWIDTH 550 0
DWIDTH 60 0
BBX 44 88 8 0
BITMAP
00001FC00000
00001FC00000
00001FC00000
00001FC00000
00001FC00000
00001FC00000
000000000000
000000000000
000000000000
000000000000
000000000000
01FFFFFFFFF0
07FFFFFFFFF0
1FFFFFFFFFF0
3FFFFFFFFFF0
3FFFFFFFFFF0
7FFFFFFFFFF0
7FFFFFFFFFF0
FFE000000030
FF8000000000
FF8000000000
FF0000000000
FF0000000000
FF0000000000
FF0000000000
FF0000000000
FF0000000000
FF0000000000
FF0000000000
FF0000000000
FF0000000000
FF0000000000
FF0000000000
FF0000000000
FF0000000000
FF0000000000
FF0000000000
FF0000000000
FF0000000000
FF0000000000
FF0000000000
FF0000000000
FF0000000000
FF0000000000
FF001FFFFFF0
FF001FFFFFF0
FF001FFFFFF0
FF001FFFFFF0
FF001FFFFFF0
FF001FFFFFF0
FF001FFFFFF0
FF0000000FF0
FF0000000FF0
FF0000000FF0
FF0000000FF0
FF0000000FF0
FF0000000FF0
FF0000000FF0
FF0000000FF0
FF0000000FF0
FF0000000FF0
FF0000000FF0
FF0000000FF0
FF0000000FF0
FF0000000FF0
FF0000000FF0
FF0000000FF0
FF0000000FF0
FF0000000FF0
FF0000000FF0
FF0000000FF0
FF0000000FF0
FF0000000FF0
FF0000000FF0
FF0000000FF0
FF0000000FF0
FF0000000FF0
FF0000000FF0
FF8000001FF0
FF8000001FF0
FFE000007FF0
7FFFFFFFFFE0
7FFFFFFFFFE0
3FFFFFFFFFC0
3FFFFFFFFFC0
1FFFFFFFFF80
07FFFFFFFE00
01FFFFFFF800
ENDCHAR
STARTCHAR 0121
ENCODING 289
SWIDTH 467 0
DWIDTH 51 0
BBX 36 93 8 -22
BITMAP
0003FC0000
0003FC0000
0003FC0000
0003FC0000
0003FC0000
0003FC0000
0003FC0000
0003FC0000
0000000000
0000000000
0000000000
0000000000
0000000000
0000000000
0000000000
0000000000
01FFFFFFF0
07FFFFFFF0
1FFFFFFFF0
3FFFFFFFF0
3FFFFFFFF0
7FFFFFFFF0
7FF8000FF0
FFC0000FF0
FF80000FF0
FF00000FF0
FF00000FF0
FF00000FF0
FF00000FF0
FF00000FF0
FF00000FF0
FF00000FF0
FF00000FF0
FF00000FF0
FF00000FF0
FF00000FF0
FF00000FF0
FF00000FF0
FF00000FF0
FF00000FF0
FF00000FF0
FF00000FF0
FF00000FF0
FF00000FF0
FF00000FF0
FF00000FF0
FF00000FF0
FF00000FF0
FF00000FF0
FF00000FF0
FF00000FF0
FF00000FF0
FF00000FF0
FF00000FF0
FF00000FF0
FF00000FF0
FF00000FF0
FF00000FF0
FF00000FF0
FF00000FF0
FF00000FF0
FF00000FF0
FF80000FF0
FFC0000FF0
7FF0000FF0
7FFFFFFFF0
3FFFFFFFF0
3FFFFFFFF0
1FFFFFFFF0
0FFFFFFFF0
01FFFFFFF0
0000000FF0
0000000FF0
0000000FF0
0000000FF0
0000000FF0
0000000FF0
0000000FF0
0000000FF0
0000000FF0
0000000FF0
0000000FF0
0000000FF0
0000000FF0
0000001FF0
0000003FF0
E00001FFE0
FFFFFFFFE0
FFFFFFFFC0
FFFFFFFFC0
FFFFFFFF80
FFFFFFFE00
FFFFFFF800
ENDCHAR
STARTCHAR 0122
ENCODING 290
SWIDTH 550 0
DWIDTH 60 0
BBX 44 101 8 -24
BITMAP
01FFFFFFFFF0
07FFFFFFFFF0
1FFFFFFFFFF0
3FFFFFFFFFF0
3FFFFFFFFFF0
7FFFFFFFFFF0
7FFFFFFFFFF0
FFE000000030
FF8000000000
FF8000000000
FF0000000000
FF0000000000
FF0000000000
FF0000000000
FF0000000000
FF0000000000
FF0000000000
FF0000000000
FF0000000000
FF0000000000
FF0000000000
FF0000000000
FF0000000000
FF0000000000
FF0000000000
FF0000000000
FF0000000000
FF0000000000
FF0000000000
FF0000000000
FF0000000000
FF0000000000
FF0000000000
FF0001FFFFF0
FF0001FFFFF0
FF0001FFFFF0
FF0001FFFFF0
FF0001FFFFF0
FF0001FFFFF0
FF0001FFFFF0
FF0000000FF0
FF0000000FF0
FF0000000FF0
FF0000000FF0
FF0000000FF0
FF0000000FF0
FF0000000FF0
FF0000000FF0
FF0000000FF0
FF0000000FF0
FF0000000FF0
FF0000000FF0
FF0000000FF0
FF0000000FF0
FF0000000FF0
FF0000000FF0
FF0000000FF0
FF0000000FF0
FF0000000FF0
FF0000000FF0
FF0000000FF0
FF0000000FF0
FF0000000FF0
FF0000000FF0
FF0000000FF0
FF0000000FF0
FF0000000FF0
FF8000001FF0
FF8000001FF0
FFE000007FF0
7FFFFFFFFFE0
7FFFFFFFFFE0
3FFFFFFFFFC0
3FFFFFFFFFC0
1FFFFFFFFF80
07FFFFFFFE00
01FFFFFFF800
000000000000
000000000000
000000000000
000000000000
000000000000
000001FE0000
000001FE0000
000001FE0000
000001FE0000
000001FE0000
000001FE0000
000001FE0000
000001FE0000
000003FC0000
000003FC0000
000007F80000
000007F80000
000007F00000
00000FE00000
00000FE00000
00001FC00000
00001FC00000
00003F800000
00003F000000
ENDCHAR
STARTCHAR 0123
ENCODING 291
SWIDTH 467 0
DWIDTH 51 0
BBX 36 103 8 -23
BITMAP
000001E000
000001E000
000003E000
000003E000
000007E000
000007E000
00000FE000
00000FE000
00001FC000
00001FC000
00003FC000
00003FC000
00003FC000
00003FC000
00003FC000
00003FC000
00003FC000
00003FC000
00003FC000
0000000000
0000000000
0000000000
0000000000
0000000000
01FFFFFFF0
07FFFFFFF0
1FFFFFFFF0
3FFFFFFFF0
3FFFFFFFF0
7FFFFFFFF0
7FF8000FF0
FFC0000FF0
FF80000FF0
FF00000FF0
FF00000FF0
FF00000FF0
FF00000FF0
FF00000FF0
FF00000FF0
FF00000FF0
FF00000FF0
FF00000FF0
FF00000FF0
FF00000FF0
FF00000FF0
FF00000FF0
FF00000FF0
FF00000FF0
FF00000FF0
FF00000FF0
FF00000FF0
FF00000FF0
FF00000FF0
FF00000FF0
FF00000FF0
FF00000FF0
FF00000FF0
FF00000FF0
FF00000FF0
FF00000FF0
FF00000FF0
FF00000FF0
FF00000FF0
FF00000FF0
FF00000FF0
FF00000FF0
FF00000FF0
FF00000FF0
FF00000FF0
FF00000FF0
FF80000FF0
FFC0000FF0
7FF0000FF0
7FFFFFFFF0
3FFFFFFFF0
1FFFFFFFF0
0FFFFFFFF0
07FFFFFFF0
00FFFFFFF0
0000000FF0
0000000FF0
0000000FF0
0000000FF0
0000000FF0
0000000FF0
0000000FF0
0000000FF0
0000000FF0
0000000FF0
0000000FF0
0000000FF0
0000000FF0
0000001FF0
0000003FF0
E00001FFF0
FFFFFFFFF0
FFFFFFFFE0
FFFFFFFFE0
FFFFFFFFC0
FFFFFFFF80
FFFFFFFF00
FFFFFFFE00
FFFFFFF000
ENDCHAR
ENDFONT
